<svg width="13" height="12" viewBox="0 0 13 12" fill="none" xmlns="http://www.w3.org/2000/svg">
<path d="M1.7122 11.2959L9.3602 0.0958977H10.5922L2.9442 11.2959H1.7122ZM2.6082 6.1119C2.0962 6.1119 1.64287 5.9839 1.2482 5.7279C0.853536 5.4719 0.544203 5.11456 0.320203 4.6559C0.10687 4.19723 0.000203133 3.6639 0.000203133 3.0559C0.000203133 2.4479 0.10687 1.91456 0.320203 1.4559C0.544203 0.997231 0.853536 0.639898 1.2482 0.383898C1.64287 0.127898 2.0962 -0.000102043 2.6082 -0.000102043C3.13087 -0.000102043 3.5842 0.127898 3.9682 0.383898C4.36287 0.639898 4.66687 0.997231 4.8802 1.4559C5.09354 1.91456 5.2002 2.4479 5.2002 3.0559C5.2002 3.6639 5.09354 4.19723 4.8802 4.6559C4.66687 5.11456 4.36287 5.4719 3.9682 5.7279C3.5842 5.9839 3.13087 6.1119 2.6082 6.1119ZM2.6082 5.1999C3.09887 5.1999 3.48287 5.01323 3.7602 4.6399C4.03754 4.2559 4.1762 3.7279 4.1762 3.0559C4.1762 2.3839 4.03754 1.86123 3.7602 1.4879C3.48287 1.1039 3.09887 0.911898 2.6082 0.911898C2.1282 0.911898 1.7442 1.1039 1.4562 1.4879C1.17887 1.86123 1.0402 2.3839 1.0402 3.0559C1.0402 3.71723 1.17887 4.2399 1.4562 4.6239C1.7442 5.0079 2.1282 5.1999 2.6082 5.1999ZM9.6962 11.3919C9.1842 11.3919 8.73087 11.2639 8.3362 11.0079C7.94154 10.7519 7.63754 10.3946 7.4242 9.9359C7.21087 9.47723 7.1042 8.9439 7.1042 8.3359C7.1042 7.7279 7.21087 7.19456 7.4242 6.7359C7.63754 6.27723 7.94154 5.9199 8.3362 5.6639C8.73087 5.4079 9.1842 5.2799 9.6962 5.2799C10.2189 5.2799 10.6722 5.4079 11.0562 5.6639C11.4509 5.9199 11.7549 6.27723 11.9682 6.7359C12.1922 7.19456 12.3042 7.7279 12.3042 8.3359C12.3042 8.9439 12.1922 9.47723 11.9682 9.9359C11.7549 10.3946 11.4509 10.7519 11.0562 11.0079C10.6722 11.2639 10.2189 11.3919 9.6962 11.3919ZM9.6962 10.4799C10.1762 10.4799 10.5549 10.2932 10.8322 9.9199C11.1202 9.5359 11.2642 9.0079 11.2642 8.3359C11.2642 7.67456 11.1202 7.1519 10.8322 6.7679C10.5549 6.3839 10.1762 6.1919 9.6962 6.1919C9.2162 6.1919 8.8322 6.3839 8.5442 6.7679C8.26687 7.14123 8.1282 7.6639 8.1282 8.3359C8.1282 9.0079 8.26687 9.5359 8.5442 9.9199C8.8322 10.2932 9.2162 10.4799 9.6962 10.4799Z" fill="#030303"/>
</svg>
