<svg width="12" height="12" viewBox="0 0 12 12" fill="none" xmlns="http://www.w3.org/2000/svg">
<path d="M11.8988 1.00102C11.8988 0.448596 11.4503 2.51164e-05 10.8978 2.51164e-05H3.82677C3.27434 2.51164e-05 2.82577 0.448596 2.82577 1.00102C2.82577 1.55345 3.27434 2.00202 3.82677 2.00202L8.48484 2.00202L0.293447 10.1934C-0.0976722 10.5845 -0.0976719 11.2165 0.293447 11.6076C0.684565 11.9987 1.31654 11.9987 1.70766 11.6076L9.89905 3.41623L9.89905 8.0743C9.89905 8.62673 10.3476 9.0753 10.9 9.0753C11.4525 9.0753 11.901 8.62673 11.901 8.0743L11.901 1.00323L11.8988 1.00102Z" fill="#030303"/>
</svg>
