<svg width="20" height="20" viewBox="0 0 20 20" fill="none" xmlns="http://www.w3.org/2000/svg">
<path d="M14.04 3.45959C13.6495 3.06927 13.0164 3.06916 12.626 3.45959C12.2357 3.85007 12.2357 4.48317 12.626 4.87366L15.0869 7.33362H10.833C5.67848 7.33379 1.50018 11.5121 1.5 16.6666V17.5006C1.50032 18.0526 1.94792 18.5006 2.5 18.5006C3.05209 18.5006 3.49968 18.0526 3.5 17.5006V16.6666C3.50018 12.6167 6.78305 9.33379 10.833 9.33362H15.085L12.626 11.7926C12.2356 12.183 12.2358 12.8161 12.626 13.2067C13.0165 13.5972 13.6495 13.5972 14.04 13.2067L18.207 9.04065C18.2426 9.00509 18.2737 8.96659 18.3027 8.92737C18.3126 8.91408 18.3228 8.90111 18.332 8.88733C18.3599 8.8455 18.3844 8.80215 18.4053 8.75745C18.4245 8.71649 18.4415 8.67425 18.4551 8.63049L18.459 8.61877C18.4744 8.56661 18.4844 8.51322 18.4912 8.45959C18.4964 8.4183 18.5 8.37633 18.5 8.33362C18.5 8.1782 18.4637 8.03123 18.4004 7.90002C18.3812 7.86024 18.3597 7.8213 18.335 7.78381C18.2976 7.72714 18.2548 7.67441 18.207 7.62659L14.04 3.45959Z" fill="#030303" fill-opacity="0.2"/>
</svg>
