<svg width="32" height="32" viewBox="0 0 32 32" fill="none" xmlns="http://www.w3.org/2000/svg">
<path d="M16 0C23.5424 0 27.3155 0.000373424 29.6562 2.34277C31.9999 4.6868 32 8.45793 32 16C32 23.5424 32.0003 27.3155 29.6562 29.6562C27.3139 32.0003 23.5424 32 16 32C8.45793 32 4.6884 31.9999 2.34277 29.6562C0.000373424 27.3139 0 23.5424 0 16C0 8.4576 0.000373703 4.68837 2.34277 2.34277C4.68677 0.000373576 8.4576 0 16 0ZM12.0352 5.2002C11.5577 5.19978 11.0848 5.29308 10.6436 5.47559C10.2024 5.65811 9.80149 5.92607 9.46387 6.26367C9.12626 6.60128 8.85832 7.00219 8.67578 7.44336C8.49327 7.88452 8.4 8.35754 8.40039 8.83496V23.7168C8.40018 24.1215 8.47907 24.5225 8.63379 24.8965C8.7885 25.2704 9.01573 25.6102 9.30176 25.8965C9.5879 26.1828 9.92782 26.4105 10.3018 26.5654C10.6757 26.7204 11.0767 26.7998 11.4814 26.7998H17.5996C18.9536 26.8005 20.268 26.3429 21.3291 25.502C22.3903 24.661 23.1366 23.4863 23.4453 22.168C23.754 20.8497 23.6068 19.4659 23.0293 18.2412C22.4518 17.0166 21.4772 16.0234 20.2637 15.4229C21.097 14.5815 21.6627 13.5119 21.8896 12.3496C22.1165 11.1874 21.9948 9.98357 21.5391 8.89062C21.0832 7.79765 20.3136 6.86369 19.3281 6.20703C18.3425 5.55036 17.1844 5.19996 16 5.2002H12.0352ZM17.4814 17.1113C18.3654 17.1114 19.2128 17.4628 19.8379 18.0879C20.4629 18.713 20.8144 19.5604 20.8145 20.4443C20.8145 21.3284 20.463 22.1766 19.8379 22.8018C19.2129 23.4266 18.3653 23.7773 17.4814 23.7773H11.8164C11.7334 23.7773 11.6509 23.7613 11.5742 23.7295C11.4976 23.6977 11.4277 23.6515 11.3691 23.5928C11.3105 23.534 11.2641 23.4635 11.2324 23.3867C11.2009 23.3101 11.1844 23.2293 11.1846 23.1465V17.1113H17.4814ZM16 8.22266C16.8838 8.22273 17.7314 8.57337 18.3564 9.19824C18.9816 9.82336 19.333 10.6716 19.333 11.5557C19.333 12.4396 18.9815 13.287 18.3564 13.9121C17.7314 14.5372 16.884 14.8886 16 14.8887H11.1846V9.36621C11.1846 8.73526 11.6972 8.22291 12.3281 8.22266H16Z" fill="#B7B9BD"/>
</svg>
