<svg width="24" height="28" viewBox="0 0 24 28" fill="none" xmlns="http://www.w3.org/2000/svg">
<path fill-rule="evenodd" clip-rule="evenodd" d="M24 12.7973V19.4546C24 23.5826 24 25.648 23.0213 26.5493C22.5547 26.98 21.9653 27.2506 21.3373 27.3226C20.0213 27.4733 18.484 26.1133 15.4107 23.3946C14.0507 22.1933 13.372 21.592 12.5867 21.4346C12.1995 21.3556 11.8005 21.3556 11.4133 21.4346C10.6267 21.592 9.948 22.1933 8.58933 23.3946C5.516 26.1133 3.97867 27.4733 2.66267 27.3213C2.0337 27.249 1.44399 26.9786 0.978667 26.5493C-7.94729e-08 25.648 0 23.584 0 19.4546V12.796C0 7.07996 -1.58946e-07 4.22129 1.75733 2.44396C3.51467 0.666626 6.344 0.666626 12 0.666626C17.656 0.666626 20.4853 0.666626 22.2427 2.44263C24 4.21863 24 7.07996 24 12.7973ZM7 5.99996C7 5.73474 7.10536 5.48039 7.29289 5.29285C7.48043 5.10532 7.73478 4.99996 8 4.99996H16C16.2652 4.99996 16.5196 5.10532 16.7071 5.29285C16.8946 5.48039 17 5.73474 17 5.99996C17 6.26518 16.8946 6.51953 16.7071 6.70707C16.5196 6.8946 16.2652 6.99996 16 6.99996H8C7.73478 6.99996 7.48043 6.8946 7.29289 6.70707C7.10536 6.51953 7 6.26518 7 5.99996Z" fill="#363946"/>
</svg>
