<svg width="15" height="15" viewBox="0 0 15 15" fill="none" xmlns="http://www.w3.org/2000/svg">
<path d="M7.5 8.09L10.205 10.795C10.2828 10.8728 10.3783 10.9144 10.4917 10.92C10.605 10.9256 10.7061 10.8839 10.795 10.795C10.8839 10.7061 10.9283 10.6078 10.9283 10.5C10.9283 10.3922 10.8839 10.2939 10.795 10.205L8.09 7.5L10.795 4.795C10.8728 4.71722 10.9144 4.62167 10.92 4.50833C10.9256 4.395 10.8839 4.29389 10.795 4.205C10.7061 4.11611 10.6078 4.07167 10.5 4.07167C10.3922 4.07167 10.2939 4.11611 10.205 4.205L7.5 6.91L4.795 4.205C4.71722 4.12722 4.62167 4.08556 4.50833 4.08C4.395 4.07444 4.29389 4.11611 4.205 4.205C4.11611 4.29389 4.07167 4.39222 4.07167 4.5C4.07167 4.60778 4.11611 4.70611 4.205 4.795L6.91 7.5L4.205 10.205C4.12722 10.2828 4.08556 10.3786 4.08 10.4925C4.07444 10.6053 4.11611 10.7061 4.205 10.795C4.29389 10.8839 4.39222 10.9283 4.5 10.9283C4.60778 10.9283 4.70611 10.8839 4.795 10.795L7.5 8.09ZM7.5025 15C6.46528 15 5.49028 14.8033 4.5775 14.41C3.66472 14.0161 2.87056 13.4817 2.195 12.8067C1.51944 12.1317 0.984722 11.3383 0.590833 10.4267C0.196945 9.515 0 8.54028 0 7.5025C0 6.46472 0.196945 5.48972 0.590833 4.5775C0.984167 3.66472 1.51778 2.87056 2.19167 2.195C2.86556 1.51944 3.65917 0.984722 4.5725 0.590833C5.48583 0.196945 6.46083 0 7.4975 0C8.53417 0 9.50917 0.196945 10.4225 0.590833C11.3353 0.984167 12.1294 1.51806 12.805 2.1925C13.4806 2.86694 14.0153 3.66056 14.4092 4.57333C14.8031 5.48611 15 6.46083 15 7.4975C15 8.53417 14.8033 9.50917 14.41 10.4225C14.0167 11.3358 13.4822 12.13 12.8067 12.805C12.1311 13.48 11.3378 14.0147 10.4267 14.4092C9.51556 14.8036 8.54083 15.0006 7.5025 15Z" fill="#FF0000"/>
</svg>
