<svg width="53" height="43" viewBox="0 0 53 43" fill="none" xmlns="http://www.w3.org/2000/svg">
<path d="M17.3342 29.3333C26.9092 29.3333 34.6676 22.7667 34.6676 14.6667C34.6676 6.56667 26.9092 0 17.3342 0C7.75924 0 0.000912037 6.56667 0.000912037 14.6667C0.000912037 17.8833 1.22591 20.8583 3.30091 23.2833C3.00925 24.0667 2.57591 24.7583 2.11758 25.3417C1.71758 25.8583 1.30925 26.2583 1.00925 26.5333C0.859245 26.6667 0.734245 26.775 0.650912 26.8417C0.609245 26.875 0.575912 26.9 0.559245 26.9083L0.542579 26.925C0.0842454 27.2667 -0.115755 27.8667 0.0675787 28.4083C0.250912 28.95 0.759245 29.3333 1.33425 29.3333C3.15091 29.3333 4.98425 28.8667 6.50925 28.2917C7.27591 28 7.99258 27.675 8.60925 27.3417C11.1759 28.6083 14.1509 29.3333 17.3342 29.3333ZM37.3342 14.6667C37.3342 24.025 29.0759 31.075 19.2926 31.9167C21.3176 38.1167 28.0342 42.6667 36.0009 42.6667C39.1842 42.6667 42.1592 41.9417 44.7259 40.675C45.3509 41.0083 46.0592 41.3333 46.8259 41.625C48.3509 42.2 50.1842 42.6667 52.0009 42.6667C52.5759 42.6667 53.0926 42.2917 53.2676 41.7417C53.4426 41.1917 53.2509 40.5917 52.7842 40.25L52.7676 40.2333C52.7509 40.2167 52.7176 40.2 52.6759 40.1667C52.5926 40.1 52.4676 40 52.3176 39.8583C52.0176 39.5833 51.6092 39.1833 51.2092 38.6667C50.7509 38.0833 50.3176 37.3833 50.0259 36.6083C52.1009 34.1917 53.3259 31.2167 53.3259 27.9917C53.3259 20.2583 46.2509 13.9167 37.2759 13.3667C37.3092 13.7917 37.3259 14.225 37.3259 14.6583L37.3342 14.6667Z" fill="#363946" fill-opacity="0.4"/>
</svg>
