<svg width="22" height="22" viewBox="0 0 22 22" fill="none" xmlns="http://www.w3.org/2000/svg">
<path d="M3.2234 18.7774C2.17279 17.7627 1.33479 16.5489 0.758289 15.2069C0.18179 13.8648 -0.121658 12.4214 -0.13435 10.9608C-0.147042 9.50025 0.131276 8.05177 0.684366 6.69991C1.23746 5.34805 2.05424 4.11988 3.08706 3.08706C4.11988 2.05424 5.34805 1.23746 6.69991 0.684366C8.05177 0.131276 9.50025 -0.147042 10.9608 -0.13435C12.4214 -0.121658 13.8648 0.18179 15.2069 0.758289C16.5489 1.33479 17.7627 2.17279 18.7774 3.2234C20.7811 5.29803 21.8899 8.07665 21.8648 10.9608C21.8398 13.845 20.6829 16.6039 18.6434 18.6434C16.6039 20.6829 13.845 21.8398 10.9608 21.8648C8.07665 21.8899 5.29803 20.7811 3.2234 18.7774ZM12.5404 11.0004L15.6534 7.8874L14.1024 6.3364L11.0004 9.4494L7.8874 6.3364L6.3364 7.8874L9.4494 11.0004L6.3364 14.1134L7.8874 15.6644L11.0004 12.5514L14.1134 15.6644L15.6644 14.1134L12.5514 11.0004H12.5404Z" fill="white"/>
</svg>
