<svg width="16" height="16" viewBox="0 0 16 16" fill="none" xmlns="http://www.w3.org/2000/svg">
<path d="M2.34465 13.6566C1.58057 12.9187 0.97111 12.0359 0.551838 11.0599C0.132566 10.0839 -0.0881237 9.03409 -0.0973542 7.97186C-0.106585 6.90962 0.0958289 5.85619 0.498076 4.87302C0.900323 3.88985 1.49435 2.99663 2.24549 2.24549C2.99663 1.49435 3.88985 0.900323 4.87302 0.498076C5.85619 0.0958289 6.90962 -0.106585 7.97186 -0.0973542C9.03409 -0.0881237 10.0839 0.132566 11.0599 0.551838C12.0359 0.97111 12.9187 1.58057 13.6566 2.34465C15.1139 3.85347 15.9203 5.87428 15.902 7.97186C15.8838 10.0694 15.0425 12.0759 13.5592 13.5592C12.0759 15.0425 10.0694 15.8838 7.97186 15.902C5.87428 15.9203 3.85347 15.1139 2.34465 13.6566ZM9.12065 8.00065L11.3846 5.73665L10.2566 4.60865L8.00065 6.87265L5.73665 4.60865L4.60865 5.73665L6.87265 8.00065L4.60865 10.2646L5.73665 11.3926L8.00065 9.12865L10.2646 11.3926L11.3926 10.2646L9.12865 8.00065H9.12065Z" fill="#363946" fill-opacity="0.4"/>
</svg>
