<svg width="32" height="32" viewBox="0 0 32 32" fill="none" xmlns="http://www.w3.org/2000/svg">
<rect width="32" height="32" rx="8" fill="#F8F7F4"/>
<path d="M16.0008 17.4L11.1008 22.3C10.9174 22.4834 10.6841 22.575 10.4008 22.575C10.1174 22.575 9.88411 22.4834 9.70078 22.3C9.51745 22.1167 9.42578 21.8834 9.42578 21.6C9.42578 21.3167 9.51745 21.0834 9.70078 20.9L14.6008 16L9.70078 11.1C9.51745 10.9167 9.42578 10.6834 9.42578 10.4C9.42578 10.1167 9.51745 9.88338 9.70078 9.70005C9.88411 9.51672 10.1174 9.42505 10.4008 9.42505C10.6841 9.42505 10.9174 9.51672 11.1008 9.70005L16.0008 14.6L20.9008 9.70005C21.0841 9.51672 21.3174 9.42505 21.6008 9.42505C21.8841 9.42505 22.1174 9.51672 22.3008 9.70005C22.4841 9.88338 22.5758 10.1167 22.5758 10.4C22.5758 10.6834 22.4841 10.9167 22.3008 11.1L17.4008 16L22.3008 20.9C22.4841 21.0834 22.5758 21.3167 22.5758 21.6C22.5758 21.8834 22.4841 22.1167 22.3008 22.3C22.1174 22.4834 21.8841 22.575 21.6008 22.575C21.3174 22.575 21.0841 22.4834 20.9008 22.3L16.0008 17.4Z" fill="#030303"/>
</svg>
