<svg width="190" height="200" viewBox="0 0 190 200" fill="none" xmlns="http://www.w3.org/2000/svg">
<path d="M91.6922 200C138.186 200 175.879 162.164 175.879 115.327C175.879 68.4899 138.186 30.6536 91.6922 30.6536C45.1986 30.6536 7.50549 68.4899 7.50549 115.327C7.50549 162.164 45.1986 200 91.6922 200Z" fill="#F8F7F4"/>
<path d="M29.756 60.4893H149.477C154.293 60.4893 157.946 64.1562 157.946 68.9899V145.163C157.946 149.996 154.293 153.663 149.477 153.663H29.756C24.9406 153.663 21.2875 149.996 21.2875 145.163V68.9899C21.2875 64.1562 25.2727 60.4893 29.756 60.4893Z" fill="url(#paint0_radial_14420_4613)"/>
<path d="M149.809 88.3247H110.954C107.135 88.3247 103.482 89.6581 100.659 91.9917L90.5299 100.326C87.707 102.659 84.054 103.993 80.2348 103.993H36.398C31.9147 103.993 28.2616 107.66 28.2616 112.16C28.2616 112.493 28.2616 112.993 28.4276 113.327L36.564 156.33C37.2282 160.33 40.5492 163.331 44.7004 163.331H138.518C142.503 163.331 145.99 160.497 146.654 156.497L157.946 97.6588C158.776 93.1584 155.787 89.1581 151.304 88.3247C150.639 88.3247 150.141 88.3247 149.809 88.3247Z" fill="white"/>
<g filter="url(#filter0_dd_14420_4613)">
<path d="M167.244 76.8239H116.766C111.784 76.8239 107.135 78.4907 103.316 81.6576L90.0318 92.4918C86.3787 95.4921 81.5633 97.3255 76.5818 97.3255H19.4611C13.6494 97.3255 9 102.159 9 107.826C9 108.326 9 108.826 9.16605 109.326L19.6271 165.498C20.4574 170.831 24.9407 174.665 30.0882 174.665H152.3C157.614 174.665 161.931 170.998 162.761 165.664L177.539 88.8249C178.536 82.9911 174.717 77.824 168.905 76.6572C168.407 76.8239 167.743 76.8239 167.244 76.8239Z" fill="url(#paint1_linear_14420_4613)"/>
</g>
<path d="M69.6077 134.995C72.5965 134.995 75.0873 132.495 75.0873 129.495C75.0873 126.494 72.5965 123.994 69.6077 123.994C66.6188 123.994 64.1281 126.494 64.1281 129.495C64.1281 132.495 66.6188 134.995 69.6077 134.995Z" fill="#B7B9BD"/>
<path d="M112.282 134.828C115.271 134.828 117.762 132.328 117.762 129.328C117.762 126.328 115.271 123.827 112.282 123.827C109.293 123.827 106.803 126.328 106.803 129.328C106.803 132.495 109.293 134.828 112.282 134.828Z" fill="#B7B9BD"/>
<path d="M175.381 170.831C174.717 173.665 173.72 176.665 172.558 179.165C169.403 185.332 164.422 190.166 158.278 193.333C151.968 196.5 144.496 197.833 137.024 196.166C119.422 192.499 108.131 175.165 111.784 157.497C115.437 139.829 132.54 128.328 150.141 132.161C156.451 133.495 161.931 136.662 166.58 140.995C174.385 148.829 177.706 160.164 175.381 170.831Z" fill="url(#paint2_radial_14420_4613)"/>
<path d="M153.96 161.33H146.488V153.829C146.488 152.329 145.326 150.996 143.665 150.996C142.171 150.996 140.843 152.162 140.843 153.829V161.33H133.37C131.876 161.33 130.548 162.497 130.548 164.163C130.548 165.83 131.71 166.997 133.37 166.997H140.843V174.497C140.843 175.998 142.005 177.331 143.665 177.331C145.16 177.331 146.488 176.164 146.488 174.497V166.997H153.96C155.455 166.997 156.783 165.83 156.783 164.163C156.783 162.497 155.455 161.33 153.96 161.33Z" fill="white"/>
<path d="M84.22 95.492C78.2423 83.8244 76.9139 69.8233 80.8991 57.1556C84.7182 44.4879 93.8509 33.6538 105.142 27.4866C108.629 25.6531 112.614 24.153 116.6 23.9863C120.585 23.8196 124.902 25.1531 127.559 28.4867C130.216 31.4869 130.714 36.4873 128.555 39.8209C126.23 42.9878 121.581 44.3213 117.762 43.3212C111.618 42.1544 106.637 37.3207 105.142 31.4869C103.648 25.6531 105.64 18.8192 110.29 14.9856C113.279 12.3187 117.43 10.8186 121.249 9.65186C139.846 4.15142 160.104 3.4847 179.034 7.6517" stroke="#B7B9BD" stroke-width="2" stroke-miterlimit="10" stroke-dasharray="4 4"/>
<path d="M96.1755 140.829H85.8804V143.329H96.1755V140.829Z" fill="#B7B9BD"/>
<path d="M188.997 3.31769C188.831 5.81789 188.665 8.15141 186.838 8.65145C185.012 9.15149 184.181 7.48469 183.019 5.15117C181.857 2.98433 182.521 0.650814 184.513 0.150774C186.34 -0.349266 189.329 0.317454 188.997 3.31769Z" fill="url(#paint3_radial_14420_4613)"/>
<path d="M187.004 15.3189C187.502 12.3186 188 10.6519 186.34 9.81845C184.513 8.98505 183.351 10.4852 181.358 12.4853C179.698 14.3188 180.694 16.9857 182.355 17.8191C184.347 18.8192 186.506 17.8191 187.004 15.3189Z" fill="url(#paint4_radial_14420_4613)"/>
<path d="M189.329 9.81849C189.163 10.9853 188.333 11.8187 187.17 11.9853C186.672 11.9853 186.174 11.9853 185.51 11.9853C183.185 11.652 181.359 10.1519 181.525 8.65173C181.691 7.15162 183.849 6.31822 186.506 6.65158C187.004 6.65158 187.502 6.81826 187.834 6.98494C188.831 7.3183 189.495 8.48506 189.329 9.81849C189.329 9.81849 189.329 9.65181 189.329 9.81849Z" fill="url(#paint5_radial_14420_4613)"/>
<path d="M4.01862 56.6556C4.01862 53.8221 4.01862 50.9885 6.0112 50.1551C8.16983 49.3217 9.33217 51.3219 10.9927 54.1554C12.4871 56.6556 11.8229 59.3225 9.66427 60.1559C7.83774 60.9893 4.01862 60.4893 4.01862 56.6556Z" fill="url(#paint6_radial_14420_4613)"/>
<path d="M5.18081 42.6546C4.84872 46.1549 4.35057 48.155 6.5092 48.9884C8.66784 49.8218 9.83018 47.9884 11.9888 45.3215C13.6493 42.988 12.487 39.9877 10.3283 39.1543C8.16969 38.3209 5.51291 39.821 5.18081 42.6546Z" fill="url(#paint7_radial_14420_4613)"/>
<path d="M3.35431 49.3215C3.35431 47.9881 4.3506 46.988 5.51294 46.8213C6.01109 46.6546 6.67528 46.6546 7.33948 46.8213C9.99626 46.988 12.3209 48.4881 12.1549 50.1549C11.9888 51.8217 9.83021 52.9885 7.00738 52.6551C6.50923 52.6551 6.01109 52.4884 5.51294 52.3217C4.18455 52.1551 3.35431 50.8216 3.35431 49.3215Z" fill="url(#paint8_radial_14420_4613)"/>
<path d="M14.6456 49.8215C32.0807 49.8215 64.2942 59.989 64.7923 97.3253" stroke="#B7B9BD" stroke-width="2" stroke-miterlimit="10" stroke-dasharray="4 4"/>
<defs>
<filter id="filter0_dd_14420_4613" x="0" y="71.6572" width="186.697" height="116.008" filterUnits="userSpaceOnUse" color-interpolation-filters="sRGB">
<feFlood flood-opacity="0" result="BackgroundImageFix"/>
<feColorMatrix in="SourceAlpha" type="matrix" values="0 0 0 0 0 0 0 0 0 0 0 0 0 0 0 0 0 0 127 0" result="hardAlpha"/>
<feOffset dy="4"/>
<feGaussianBlur stdDeviation="4.5"/>
<feColorMatrix type="matrix" values="0 0 0 0 0.397708 0 0 0 0 0.47749 0 0 0 0 0.575 0 0 0 0.15 0"/>
<feBlend mode="normal" in2="BackgroundImageFix" result="effect1_dropShadow_14420_4613"/>
<feColorMatrix in="SourceAlpha" type="matrix" values="0 0 0 0 0 0 0 0 0 0 0 0 0 0 0 0 0 0 127 0" result="hardAlpha"/>
<feOffset dy="1"/>
<feGaussianBlur stdDeviation="0.5"/>
<feComposite in2="hardAlpha" operator="out"/>
<feColorMatrix type="matrix" values="0 0 0 0 0 0 0 0 0 0 0 0 0 0 0 0 0 0 0.03 0"/>
<feBlend mode="normal" in2="effect1_dropShadow_14420_4613" result="effect2_dropShadow_14420_4613"/>
<feBlend mode="normal" in="SourceGraphic" in2="effect2_dropShadow_14420_4613" result="shape"/>
</filter>
<radialGradient id="paint0_radial_14420_4613" cx="0" cy="0" r="1" gradientUnits="userSpaceOnUse" gradientTransform="translate(89.628 59.2947) rotate(90) scale(114.676 145.473)">
<stop stop-color="#F6E07D"/>
<stop offset="1" stop-color="#B2802C"/>
</radialGradient>
<linearGradient id="paint1_linear_14420_4613" x1="93.2937" y1="74.3902" x2="93.2937" y2="175.722" gradientUnits="userSpaceOnUse">
<stop stop-color="#FFFFFD"/>
<stop offset="0.9964" stop-color="#F5F4EC"/>
</linearGradient>
<radialGradient id="paint2_radial_14420_4613" cx="0" cy="0" r="1" gradientUnits="userSpaceOnUse" gradientTransform="translate(143.609 130.584) rotate(90) scale(80.5718 69.205)">
<stop stop-color="#F6E07D"/>
<stop offset="1" stop-color="#B2802C"/>
</radialGradient>
<radialGradient id="paint3_radial_14420_4613" cx="0" cy="0" r="1" gradientUnits="userSpaceOnUse" gradientTransform="translate(185.735 -0.11206) rotate(90) scale(10.7575 6.99934)">
<stop stop-color="#F6E07D"/>
<stop offset="1" stop-color="#B2802C"/>
</radialGradient>
<radialGradient id="paint4_radial_14420_4613" cx="0" cy="0" r="1" gradientUnits="userSpaceOnUse" gradientTransform="translate(183.994 9.473) rotate(90) scale(10.6078 7.4277)">
<stop stop-color="#F6E07D"/>
<stop offset="1" stop-color="#B2802C"/>
</radialGradient>
<radialGradient id="paint5_radial_14420_4613" cx="0" cy="0" r="1" gradientUnits="userSpaceOnUse" gradientTransform="translate(185.435 6.50929) rotate(90) scale(6.65442 8.34594)">
<stop stop-color="#F6E07D"/>
<stop offset="1" stop-color="#B2802C"/>
</radialGradient>
<radialGradient id="paint6_radial_14420_4613" cx="0" cy="0" r="1" gradientUnits="userSpaceOnUse" gradientTransform="translate(7.90928 49.8293) rotate(90) scale(12.9674 8.28187)">
<stop stop-color="#F6E07D"/>
<stop offset="1" stop-color="#B2802C"/>
</radialGradient>
<radialGradient id="paint7_radial_14420_4613" cx="0" cy="0" r="1" gradientUnits="userSpaceOnUse" gradientTransform="translate(8.83028 38.7934) rotate(90) scale(12.6355 8.40214)">
<stop stop-color="#F6E07D"/>
<stop offset="1" stop-color="#B2802C"/>
</radialGradient>
<radialGradient id="paint8_radial_14420_4613" cx="0" cy="0" r="1" gradientUnits="userSpaceOnUse" gradientTransform="translate(7.75953 46.6192) rotate(90) scale(7.40408 9.37719)">
<stop stop-color="#F6E07D"/>
<stop offset="1" stop-color="#B2802C"/>
</radialGradient>
</defs>
</svg>
