<svg width="20" height="20" viewBox="0 0 20 20" fill="none" xmlns="http://www.w3.org/2000/svg">
<path d="M17.0847 5H2.91797" stroke="white" stroke-width="1.5" stroke-linecap="round"/>
<path d="M15.6936 7.08325L15.3103 12.8325C15.1628 15.0449 15.089 16.1512 14.3682 16.8255C13.6474 17.4999 12.5387 17.4999 10.3214 17.4999H9.6769C7.45956 17.4999 6.35089 17.4999 5.63005 16.8255C4.90921 16.1512 4.83547 15.0449 4.68797 12.8325L4.30469 7.08325" stroke="white" stroke-width="1.5" stroke-linecap="round"/>
<path d="M7.91797 9.16675L8.33464 13.3334" stroke="white" stroke-width="1.5" stroke-linecap="round"/>
<path d="M12.0846 9.16675L11.668 13.3334" stroke="white" stroke-width="1.5" stroke-linecap="round"/>
<path d="M5.41797 5C5.46454 5 5.48782 5 5.50893 4.99947C6.19513 4.98208 6.80049 4.54576 7.03398 3.90027C7.04117 3.88041 7.04853 3.85832 7.06325 3.81415L7.14416 3.57143C7.21323 3.36423 7.24776 3.26063 7.29356 3.17267C7.47631 2.82173 7.81442 2.57803 8.20514 2.51564C8.30308 2.5 8.41228 2.5 8.63069 2.5H11.3719C11.5903 2.5 11.6995 2.5 11.7975 2.51564C12.1882 2.57803 12.5263 2.82173 12.709 3.17267C12.7548 3.26063 12.7894 3.36423 12.8584 3.57143L12.9394 3.81415C12.9541 3.85826 12.9614 3.88042 12.9686 3.90027C13.2021 4.54576 13.8075 4.98208 14.4937 4.99947C14.5148 5 14.5381 5 14.5846 5" stroke="white" stroke-width="1.5"/>
</svg>
