<svg width="48" height="48" viewBox="0 0 48 48" fill="none" xmlns="http://www.w3.org/2000/svg">
<path d="M3.42969 24C3.42969 12.6386 12.6397 3.42857 24.0011 3.42857C35.3625 3.42857 44.5725 12.6386 44.5725 24C44.5725 35.3614 35.3625 44.5714 24.0011 44.5714C12.6397 44.5714 3.42969 35.3614 3.42969 24ZM24.4923 25.4949C27.0414 26.1223 27.8051 26.9537 27.8051 28.3577C27.8051 29.8166 26.8237 30.9206 24.4923 31.098V25.4949ZM22.952 22.3466C20.7714 21.8006 19.9528 20.8877 19.9528 19.6466C19.9528 18.4054 20.9891 17.2749 22.9528 17.0297L22.952 22.3466ZM24.4923 22.7143V17.0297C26.2374 17.2474 27.464 18.2426 27.6414 19.9611H30.4768C30.368 16.8669 27.9003 14.8217 24.4923 14.5483V12.2451H22.952V14.5483C19.5165 14.808 17.0634 16.8249 17.0634 19.8789C17.0634 22.6457 18.9311 24.2006 22.3931 25.0046L22.952 25.1409V31.0843C20.7577 30.8529 19.7214 29.6803 19.4763 28.0851H16.6545C16.7488 31.3569 19.49 33.306 22.952 33.5657V35.8551H24.4923V33.5657C27.9688 33.3197 30.6954 31.4254 30.6954 28.0851C30.6954 25.182 28.7325 23.7094 25.1471 22.878L24.4923 22.7143Z" fill="url(#paint0_radial_14536_1501)"/>
<defs>
<radialGradient id="paint0_radial_14536_1501" cx="0" cy="0" r="1" gradientUnits="userSpaceOnUse" gradientTransform="translate(24.0046 2.90109) rotate(90) scale(50.6374 43.7968)">
<stop stop-color="#F6E07D"/>
<stop offset="1" stop-color="#B2802C"/>
</radialGradient>
</defs>
</svg>
