<svg width="40" height="40" viewBox="0 0 40 40" fill="none" xmlns="http://www.w3.org/2000/svg">
<path d="M18.8 26.3C18.8 25.9022 18.9581 25.5206 19.2394 25.2393C19.5207 24.958 19.9022 24.8 20.3 24.8C20.6979 24.8 21.0794 24.958 21.3607 25.2393C21.642 25.5206 21.8 25.9022 21.8 26.3C21.8 26.6978 21.642 27.0793 21.3607 27.3607C21.0794 27.642 20.6979 27.8 20.3 27.8C19.9022 27.8 19.5207 27.642 19.2394 27.3607C18.9581 27.0793 18.8 26.6978 18.8 26.3ZM18.8 20.3C18.8 19.9022 18.9581 19.5206 19.2394 19.2393C19.5207 18.958 19.9022 18.8 20.3 18.8C20.6979 18.8 21.0794 18.958 21.3607 19.2393C21.642 19.5206 21.8 19.9022 21.8 20.3C21.8 20.6978 21.642 21.0793 21.3607 21.3606C21.0794 21.642 20.6979 21.8 20.3 21.8C19.9022 21.8 19.5207 21.642 19.2394 21.3606C18.9581 21.0793 18.8 20.6978 18.8 20.3ZM18.8 14.3C18.8 13.9022 18.9581 13.5206 19.2394 13.2393C19.5207 12.958 19.9022 12.8 20.3 12.8C20.6979 12.8 21.0794 12.958 21.3607 13.2393C21.642 13.5206 21.8 13.9022 21.8 14.3C21.8 14.6978 21.642 15.0793 21.3607 15.3606C21.0794 15.642 20.6979 15.8 20.3 15.8C19.9022 15.8 19.5207 15.642 19.2394 15.3606C18.9581 15.0793 18.8 14.6978 18.8 14.3Z" fill="#363946" fill-opacity="0.4"/>
</svg>
