<svg width="18" height="18" viewBox="0 0 18 18" fill="none" xmlns="http://www.w3.org/2000/svg">
<path fill-rule="evenodd" clip-rule="evenodd" d="M12.4929 3.935C12.6427 4.06578 12.7344 4.25069 12.7479 4.4491C12.7614 4.6475 12.6956 4.84314 12.5649 4.993L4.70788 13.993C4.63749 14.0736 4.55064 14.1383 4.45319 14.1826C4.35573 14.2269 4.24993 14.2498 4.14288 14.2498C4.03584 14.2498 3.93003 14.2269 3.83258 14.1826C3.73512 14.1383 3.64828 14.0736 3.57788 13.993L0.434883 10.393C0.308808 10.2425 0.246755 10.0486 0.262046 9.85291C0.277337 9.6572 0.368753 9.47528 0.516668 9.34622C0.664584 9.21715 0.857208 9.15122 1.05319 9.16259C1.24917 9.17395 1.43288 9.2617 1.56488 9.407L4.14288 12.36L11.4349 4.007C11.5657 3.85719 11.7506 3.76545 11.949 3.75195C12.1474 3.73844 12.343 3.80429 12.4929 3.935ZM17.5179 4.02C17.8179 4.305 17.8289 4.78 17.5429 5.08L8.97188 14.08C8.89702 14.1586 8.80599 14.2201 8.70506 14.2601C8.60414 14.3001 8.49574 14.3177 8.38734 14.3117C8.27894 14.3057 8.17314 14.2762 8.07724 14.2254C7.98134 14.1745 7.89763 14.1034 7.83188 14.017L7.40288 13.454C7.29051 13.3075 7.23612 13.1247 7.25013 12.9406C7.26414 12.7565 7.34556 12.584 7.47882 12.4562C7.61207 12.3284 7.78778 12.2543 7.97231 12.248C8.15683 12.2416 8.3372 12.3036 8.47888 12.422L16.4569 4.045C16.594 3.90105 16.7827 3.81744 16.9815 3.81257C17.1803 3.80769 17.3728 3.88195 17.5169 4.019" fill="#FAC52B"/>
</svg>
