<svg width="28" height="28" viewBox="0 0 28 28" fill="none" xmlns="http://www.w3.org/2000/svg">
<path d="M14.0002 24.7916C19.9602 24.7916 24.7918 19.9601 24.7918 14C24.7918 8.03991 19.9602 3.20831 14.0002 3.20831C8.04009 3.20831 3.2085 8.03991 3.2085 14C3.2085 19.9601 8.04009 24.7916 14.0002 24.7916Z" stroke="#363946" stroke-opacity="0.64" stroke-width="1.5" stroke-linecap="round" stroke-linejoin="round"/>
<path d="M10.5003 12.5417C11.3057 12.5417 11.9587 11.8887 11.9587 11.0833C11.9587 10.2779 11.3057 9.625 10.5003 9.625C9.69491 9.625 9.04199 10.2779 9.04199 11.0833C9.04199 11.8887 9.69491 12.5417 10.5003 12.5417Z" fill="#363946" fill-opacity="0.64"/>
<path d="M17.5003 12.5417C18.3057 12.5417 18.9587 11.8887 18.9587 11.0833C18.9587 10.2779 18.3057 9.625 17.5003 9.625C16.6949 9.625 16.042 10.2779 16.042 11.0833C16.042 11.8887 16.6949 12.5417 17.5003 12.5417Z" fill="#363946" fill-opacity="0.64"/>
<path d="M18.0417 16.625C17.632 17.3344 17.0429 17.9234 16.3335 18.333C15.6242 18.7425 14.8194 18.9581 14.0003 18.9581C13.1812 18.9581 12.3765 18.7425 11.6671 18.333C10.9577 17.9234 10.3686 17.3344 9.95898 16.625" stroke="#363946" stroke-opacity="0.64" stroke-width="1.5" stroke-linecap="round" stroke-linejoin="round"/>
</svg>
