<svg width="20" height="20" viewBox="0 0 20 20" fill="none" xmlns="http://www.w3.org/2000/svg">
<path d="M3.5584 17.9311H16.4405C17.8638 17.9311 18.7509 16.9096 18.7509 15.6207C18.7509 15.2357 18.6505 14.8421 18.4413 14.4825L11.9877 3.24072C11.552 2.47893 10.7905 2.06893 10.0038 2.06893C9.22519 2.06893 8.45519 2.47893 8.01126 3.24072L1.55769 14.4907C1.3557 14.8331 1.2488 15.2232 1.24805 15.6207C1.24805 16.91 2.14376 17.9311 3.5584 17.9311ZM3.57519 16.6168C2.98912 16.6168 2.60376 16.1396 2.60376 15.6207C2.60376 15.47 2.62912 15.2943 2.71305 15.1186L9.15805 3.87679C9.34233 3.55893 9.67733 3.40822 10.0038 3.40822C10.3302 3.40822 10.648 3.55036 10.8323 3.87679L17.2777 15.1268C17.3613 15.2946 17.403 15.47 17.403 15.6207C17.403 16.1396 17.0013 16.6171 16.4238 16.6171L3.57519 16.6168ZM10.0038 12.2893C10.4055 12.2893 10.6395 12.055 10.648 11.6196L10.7652 7.20857C10.7738 6.78143 10.4388 6.46357 9.99519 6.46357C9.5434 6.46357 9.22519 6.77322 9.2334 7.2L9.34233 11.6196C9.35055 12.0468 9.58519 12.2893 10.0038 12.2893ZM10.0038 15.0096C10.4891 15.0096 10.9073 14.6246 10.9073 14.1393C10.9073 13.6454 10.4973 13.2686 10.0038 13.2686C9.50983 13.2686 9.09948 13.6536 9.09948 14.1393C9.09948 14.6164 9.51805 15.0096 10.0038 15.0096Z" fill="#030303"/>
</svg>
