<svg width="64" height="64" viewBox="0 0 64 64" fill="none" xmlns="http://www.w3.org/2000/svg">
<path d="M56 16C60.4184 16 64 19.5816 64 24V56C64 60.4184 60.4184 64 56 64H24C19.5816 64 16 60.4184 16 56V24C16 19.5816 19.5816 16 24 16H56ZM22.4004 32.7998V47.2002H24.7275V41.2002H28.7998V38.7998H24.7275V35.2002H28.7998V32.7998H22.4004ZM31.2002 32.7998V47.2002H33.4863V41.2002H34.3867L36.3633 47.2002H38.7803L36.7031 40.8916C38.1655 40.2668 39.2002 38.7576 39.2002 37C39.2002 34.6841 37.4065 32.7999 35.2002 32.7998H31.2002ZM41.5996 32.7998V47.2002H48V44.7998H43.9277V41.2002H48V38.7998H43.9277V35.2002H48V32.7998H41.5996ZM51.2002 32.7998V47.2002H57.5996V44.7998H53.5283V41.2002H57.5996V38.7998H53.5283V35.2002H57.5996V32.7998H51.2002ZM35.2002 35.1992C36.1455 35.1995 36.914 36.0073 36.9141 36.999C36.9141 37.9909 36.1456 38.7986 35.2002 38.7988H33.4854V35.1992H35.2002Z" fill="#363946" fill-opacity="0.4"/>
</svg>
