<svg width="231" height="204" viewBox="0 0 231 204" fill="none" xmlns="http://www.w3.org/2000/svg">
<path d="M122.583 200C177.701 200 222.386 155.315 222.386 100C222.386 44.685 177.701 0 122.583 0C67.4645 0 22.7793 44.685 22.7793 100C22.7793 155.315 67.4645 200 122.583 200Z" fill="#F8F7F4"/>
<g filter="url(#filter0_d_14390_4714)">
<path d="M215.103 60.0392H44.4332C40.693 60.0392 37.7402 57.0865 37.7402 53.3463V14.9605C37.7402 11.2203 40.693 8.26758 44.4332 8.26758H214.906C218.646 8.26758 221.599 11.2203 221.599 14.9605V53.3463C221.796 57.0865 218.646 60.0392 215.103 60.0392Z" fill="white"/>
</g>
<path d="M79.0765 34.055C79.0765 38.3857 77.108 42.3228 74.1552 45.0787C71.5962 47.4409 68.0528 48.8188 64.3127 48.8188C60.5725 48.8188 57.0292 47.4409 54.4701 45.0787C51.3205 42.3228 49.5488 38.3857 49.5488 34.055C49.5488 25.9842 56.2418 19.2913 64.3127 19.2913C72.3836 19.2913 79.0765 25.9842 79.0765 34.055Z" fill="url(#paint0_radial_14390_4714)"/>
<path d="M74.1558 45.0786C71.5968 47.4408 68.0534 48.8188 64.3133 48.8188C60.5731 48.8188 57.0298 47.4408 54.4707 45.0786C55.6518 44.6849 57.0298 44.0944 58.8014 43.307C59.1951 43.1101 59.5888 42.7164 59.7857 42.3227C59.9825 42.1259 59.9825 41.7322 59.9825 41.5353V37.7952L59.7857 37.5983C59.392 37.2046 59.1951 36.614 59.1951 36.0235L58.8014 35.8266C57.8172 36.0235 58.014 35.0392 57.6203 33.0707C57.6203 32.2833 57.6203 32.0865 58.014 31.8896L58.4077 31.4959C56.6361 27.3621 57.4235 24.803 59.392 23.8188C58.8014 22.4408 58.8014 22.0471 58.8014 22.0471C58.8014 22.0471 62.7385 22.6377 63.9196 22.4408C65.6912 22.0471 68.2503 22.4408 69.2345 24.803C70.8094 25.3936 71.3999 26.3778 71.5968 27.5589C71.7936 29.3306 70.8093 31.2991 70.6125 31.8896C70.8093 32.0865 71.0062 32.2833 70.8094 32.8739C70.6125 34.6455 70.6125 35.8266 69.6282 35.6298L68.8408 37.4015C68.8408 37.5983 68.8408 37.5983 68.8408 37.7952C68.8408 37.992 68.8408 38.5826 68.8408 41.7322C68.8408 42.1259 69.0377 42.5196 69.0377 42.7164C69.2345 43.1101 69.6282 43.307 69.8251 43.5038C71.5968 44.0944 72.9747 44.6849 74.1558 45.0786Z" fill="white"/>
<path d="M70.6658 32.0865C70.6658 31.6767 70.4609 31.0621 70.256 30.6523V30.4474C69.4364 28.8083 67.7973 28.1937 66.1583 28.1937C62.0605 27.9888 61.6508 28.8083 60.2165 27.579C60.6263 28.1937 60.6263 29.2181 60.0117 30.4474C59.6019 31.267 58.7823 31.6767 57.9628 31.8816C56.1188 27.579 56.9384 24.9155 58.9872 23.8911C58.3726 22.4569 58.3726 22.0471 58.3726 22.0471C58.3726 22.0471 62.4703 22.6618 63.6996 22.4569C65.5436 22.0471 68.2071 22.4569 69.2315 24.9155C70.8706 25.5302 71.4853 26.5546 71.6902 27.7839C71.8951 29.2181 70.8706 31.267 70.6658 32.0865Z" fill="#7E8089"/>
<path d="M69.0352 42.716V43.5034H59.7832V42.5192C59.9801 42.3223 59.9801 41.9286 59.9801 41.7318V37.9916L59.7832 37.7948V37.5979C59.9801 37.9916 60.1769 38.1885 60.5706 38.5822L63.5234 40.5507C64.1139 41.1412 65.0982 41.1412 65.8856 40.5507L68.6415 38.1885L68.8384 37.9916C68.8384 38.1884 68.8384 38.779 68.8384 41.9286C68.6415 42.1255 68.8384 42.3223 69.0352 42.716Z" fill="url(#paint1_linear_14390_4714)"/>
<path d="M127.503 29.7244H89.7076C88.7234 29.7244 88.1328 28.937 88.1328 28.1496V23.2284C88.1328 22.2441 88.9202 21.6536 89.7076 21.6536H127.503C128.487 21.6536 129.078 22.441 129.078 23.2284V28.1496C129.078 29.1339 128.487 29.7244 127.503 29.7244Z" fill="#D9D9C9"/>
<path d="M172.385 46.4566H89.7076C88.7234 46.4566 88.1328 45.6692 88.1328 44.8818V39.9605C88.1328 38.9763 88.9202 38.3857 89.7076 38.3857H172.385C173.369 38.3857 173.96 39.1731 173.96 39.9605V44.8818C173.96 45.8661 173.173 46.4566 172.385 46.4566Z" fill="#D9D9C9"/>
<g filter="url(#filter1_d_14390_4714)">
<path d="M215.103 189.173H44.4332C40.693 189.173 37.7402 186.221 37.7402 182.48V144.095C37.7402 140.354 40.693 137.402 44.4332 137.402H214.906C218.646 137.402 221.599 140.354 221.599 144.095V182.48C221.796 186.221 218.646 189.173 215.103 189.173Z" fill="white"/>
</g>
<path d="M79.0765 163.189C79.0765 167.52 77.108 171.457 74.1552 174.213C71.5962 176.575 68.0528 177.953 64.3127 177.953C60.5725 177.953 57.0292 176.575 54.4701 174.213C51.3205 171.457 49.5488 167.52 49.5488 163.189C49.5488 155.118 56.2418 148.426 64.3127 148.426C72.3836 148.426 79.0765 155.118 79.0765 163.189Z" fill="url(#paint2_radial_14390_4714)"/>
<path d="M74.1558 174.213C71.5968 176.575 68.0534 177.953 64.3133 177.953C60.5731 177.953 57.0298 176.575 54.4707 174.213C55.6518 173.819 57.0298 173.229 58.8014 172.441C59.1951 172.244 59.5888 171.851 59.7857 171.457C59.9825 171.26 59.9825 170.866 59.9825 170.67V166.929L59.7857 166.733C59.392 166.339 59.1951 165.748 59.1951 165.158L58.8014 164.961C57.8172 165.158 58.014 164.174 57.6203 162.205C57.6203 161.418 57.6203 161.221 58.014 161.024L58.4077 160.63C56.6361 156.496 57.4235 153.937 59.392 152.953C58.8014 151.575 58.8014 151.181 58.8014 151.181C58.8014 151.181 62.7385 151.772 63.9196 151.575C65.6912 151.181 68.2503 151.575 69.2345 153.937C70.8094 154.528 71.3999 155.512 71.5968 156.693C71.7936 158.465 70.8093 160.433 70.6125 161.024C70.8093 161.221 71.0062 161.418 70.8094 162.008C70.6125 163.78 70.6125 164.961 69.6282 164.764L68.8408 166.339C68.8408 166.536 68.8408 166.536 68.8408 166.733C68.8408 166.929 68.8408 167.52 68.8408 170.67C68.8408 171.063 69.0377 171.457 69.0377 171.654C69.2345 172.048 69.6282 172.244 69.8251 172.441C71.5968 173.425 72.9747 173.819 74.1558 174.213Z" fill="white"/>
<path d="M70.6658 161.221C70.6658 160.811 70.4609 160.196 70.256 159.787V159.582C69.4364 157.943 67.7973 157.328 66.1583 157.328C62.0605 157.123 61.6508 157.943 60.2165 156.713C60.6263 157.328 60.6263 158.352 60.0117 159.582C59.6019 160.401 58.7823 160.811 57.9628 161.016C56.1188 156.713 56.9384 154.05 58.9872 153.025C58.3726 151.591 58.3726 151.181 58.3726 151.181C58.3726 151.181 62.4703 151.796 63.6996 151.591C65.5436 151.181 68.2071 151.591 69.2315 154.05C70.8706 154.664 71.4853 155.689 71.6902 156.918C71.8951 158.557 70.8706 160.401 70.6658 161.221Z" fill="#7E8089"/>
<path d="M69.0352 171.85V172.638H59.7832V171.653C59.9801 171.457 59.9801 171.063 59.9801 170.866V167.126L59.7832 166.929V166.732C59.9801 167.126 60.1769 167.323 60.5706 167.716L63.5234 169.685C64.1139 170.275 65.0982 170.275 65.8856 169.685L68.6415 167.323L68.8384 167.126C68.8384 167.323 68.8384 167.913 68.8384 171.063C68.6415 171.26 68.8384 171.653 69.0352 171.85Z" fill="url(#paint3_linear_14390_4714)"/>
<path d="M127.503 159.055H89.7076C88.7234 159.055 88.1328 158.268 88.1328 157.48V152.559C88.1328 151.575 88.9202 150.984 89.7076 150.984H127.503C128.487 150.984 129.078 151.772 129.078 152.559V157.48C129.078 158.268 128.487 159.055 127.503 159.055Z" fill="#D9D9C9"/>
<path d="M172.385 175.787H89.7076C88.7234 175.787 88.1328 175 88.1328 174.213V169.291C88.1328 168.307 88.9202 167.717 89.7076 167.717H172.385C173.369 167.717 173.96 168.504 173.96 169.291V174.213C173.96 175 173.173 175.787 172.385 175.787Z" fill="#D9D9C9"/>
<g filter="url(#filter2_d_14390_4714)">
<path d="M186.166 124.606H15.6929C11.9528 124.606 9 121.654 9 117.913V79.5276C9 75.7875 11.9528 72.8347 15.6929 72.8347H186.166C189.906 72.8347 192.859 75.7875 192.859 79.5276V117.913C193.056 121.654 189.906 124.606 186.166 124.606Z" fill="white"/>
</g>
<path d="M98.7628 94.2916H60.9674C59.9831 94.2916 59.3926 93.5042 59.3926 92.7168V87.7955C59.3926 86.8113 60.18 86.2207 60.9674 86.2207H98.7628C99.7471 86.2207 100.338 87.0081 100.338 87.7955V92.7168C100.338 93.701 99.7471 94.2916 98.7628 94.2916Z" fill="#D9D9C9"/>
<path d="M143.645 111.221H60.9674C59.9831 111.221 59.3926 110.433 59.3926 109.646V104.724C59.3926 103.74 60.18 103.15 60.9674 103.15H143.448C144.432 103.15 145.023 103.937 145.023 104.724V109.646C145.22 110.433 144.432 111.221 143.645 111.221Z" fill="#D9D9C9"/>
<path d="M50.5351 98.6222C50.5351 102.756 48.7634 106.496 46.0075 109.252C45.8106 109.449 45.8106 109.449 45.6138 109.646C43.0547 112.008 39.5114 113.386 35.7712 113.386C32.0311 113.386 28.6846 112.008 26.1255 109.843C26.1255 109.843 26.1255 109.843 25.9287 109.843C22.7791 107.087 20.8105 103.15 20.8105 98.6222C20.8105 90.5513 27.5035 83.8584 35.5744 83.8584C43.8421 83.8584 50.5351 90.5513 50.5351 98.6222Z" fill="url(#paint4_radial_14390_4714)"/>
<path d="M45.9494 109.552C45.3505 108.155 44.3524 106.957 42.7554 106.158C41.9568 105.759 41.358 105.559 40.3598 105.559H39.761C38.3636 105.559 38.1639 105.36 38.1639 105.36V102.964C39.761 101.767 40.9587 100.17 41.358 98.373C42.3561 98.1733 42.955 97.3748 42.7554 96.3767C42.7554 95.9775 42.3561 95.5782 42.3561 95.1789C42.3561 94.9793 42.3561 94.7797 42.3561 94.5801C42.3561 94.3804 42.3561 94.3804 42.3561 94.1808C42.3561 93.9812 42.3561 93.9812 42.3561 93.7816C42.3561 92.9831 42.1565 92.3842 41.5576 91.5857C40.3598 89.3898 37.9643 87.9924 35.3692 87.9924C34.7703 87.9924 34.371 87.9924 33.7722 88.1921C32.774 88.3917 31.9755 88.7909 31.177 89.3898C30.9774 89.5894 30.9774 89.5894 30.7778 89.7891C30.7778 89.7891 30.7778 89.7891 30.5781 89.9887C29.7796 90.7872 29.1808 91.7853 28.7815 92.7834C28.3823 93.7816 28.3823 94.9793 28.3823 96.1771C28.3823 96.1771 28.3823 96.1771 28.3823 96.3767C28.3823 96.5763 28.3823 96.5763 28.3823 96.776C28.3823 96.776 28.3823 96.9756 28.1826 96.9756C28.5819 96.5763 28.3823 97.1752 28.5819 97.5745C28.9811 98.5726 29.58 98.373 30.3785 98.9718C30.3785 98.9718 30.3785 98.9718 30.1789 98.9718L29.3804 99.1715C24.9886 100.569 24.5893 105.16 28.9811 106.158C28.5819 106.358 28.3823 106.558 28.1826 106.558C26.9849 107.556 26.1864 108.753 25.7871 109.951C28.3823 112.147 31.7759 113.545 35.5688 113.545C39.3617 113.545 42.955 112.147 45.5501 109.752C45.7497 109.951 45.9494 109.752 45.9494 109.552C46.149 109.552 46.149 109.552 45.9494 109.552ZM33.5725 104.761C33.3729 104.561 33.1733 104.362 33.1733 104.362C32.9737 104.162 32.774 104.162 32.5744 103.962C32.5744 103.962 32.3748 103.962 32.3748 103.763C31.7759 103.364 31.177 102.964 30.9774 102.365C30.9774 102.166 31.177 101.767 31.5763 101.367C31.7759 101.567 31.9755 101.767 32.1752 102.166C32.3748 102.365 32.5744 102.565 32.774 102.765C32.9737 102.765 33.1733 102.964 33.1733 103.164C33.1733 103.164 33.1733 103.164 33.3729 103.164C33.3729 103.164 33.3729 103.164 33.5725 103.164V104.761Z" fill="white"/>
<path d="M40.0006 105.446C39.8037 106.233 39.41 106.823 39.41 106.823L31.9297 105.642L32.3234 103.674C32.3234 103.674 32.5202 103.674 32.5202 103.871C32.7171 104.068 32.9139 104.068 33.1108 104.264C33.3076 104.264 33.3076 104.461 33.5045 104.658V103.28C33.5045 103.28 33.5045 103.28 33.3076 103.28C34.4888 103.871 36.0636 104.264 38.2289 102.886V105.249C38.4258 105.249 38.6226 105.446 40.0006 105.446Z" fill="url(#paint5_linear_14390_4714)"/>
<path d="M38.4502 94.4656C39.8546 94.4656 41.2589 94.265 42.4627 93.8638C42.4627 93.8638 42.4627 93.6631 42.6633 93.4625C42.4627 92.8607 42.262 92.0582 41.8608 91.2557C40.6571 89.0489 38.2496 87.6445 35.6415 87.6445C35.0397 87.6445 34.4624 87.6874 33.6574 87.8881C32.5861 88.2155 32.0887 88.5032 31.835 88.657C31.835 88.657 31.2486 89.0513 30.8266 89.4501C30.4047 89.8489 29.4223 91.2557 29.021 92.2588C28.6198 93.4625 28.2961 94.4856 28.4967 95.6894C28.6973 95.6894 29.021 95.4687 29.2217 95.4687C30.8266 94.6662 32.0304 93.6631 32.6322 92.0582C34.2372 93.4625 36.2434 94.265 38.4502 94.4656Z" fill="#7E8089"/>
<path d="M34.3936 108.858C33.803 109.646 32.8188 109.646 31.8345 109.646C32.8188 108.662 32.2282 105.709 29.0786 106.102C24.551 105.315 25.1416 100.591 29.4723 99.2127L30.2597 99.0159C30.2597 99.0159 30.2597 99.0159 30.4566 99.2127C30.8503 100.197 31.244 100.788 31.8345 101.575C30.0629 103.15 32.6219 103.543 33.803 104.725C34.5904 105.118 35.3778 107.677 34.3936 108.858Z" fill="#7E8089"/>
<defs>
<filter id="filter0_d_14390_4714" x="28.7402" y="4.26758" width="201.867" height="69.7717" filterUnits="userSpaceOnUse" color-interpolation-filters="sRGB">
<feFlood flood-opacity="0" result="BackgroundImageFix"/>
<feColorMatrix in="SourceAlpha" type="matrix" values="0 0 0 0 0 0 0 0 0 0 0 0 0 0 0 0 0 0 127 0" result="hardAlpha"/>
<feOffset dy="5"/>
<feGaussianBlur stdDeviation="4.5"/>
<feColorMatrix type="matrix" values="0 0 0 0 0.397708 0 0 0 0 0.47749 0 0 0 0 0.575 0 0 0 0.17 0"/>
<feBlend mode="normal" in2="BackgroundImageFix" result="effect1_dropShadow_14390_4714"/>
<feBlend mode="normal" in="SourceGraphic" in2="effect1_dropShadow_14390_4714" result="shape"/>
</filter>
<filter id="filter1_d_14390_4714" x="28.7402" y="133.402" width="201.867" height="69.7717" filterUnits="userSpaceOnUse" color-interpolation-filters="sRGB">
<feFlood flood-opacity="0" result="BackgroundImageFix"/>
<feColorMatrix in="SourceAlpha" type="matrix" values="0 0 0 0 0 0 0 0 0 0 0 0 0 0 0 0 0 0 127 0" result="hardAlpha"/>
<feOffset dy="5"/>
<feGaussianBlur stdDeviation="4.5"/>
<feColorMatrix type="matrix" values="0 0 0 0 0.397708 0 0 0 0 0.47749 0 0 0 0 0.575 0 0 0 0.17 0"/>
<feBlend mode="normal" in2="BackgroundImageFix" result="effect1_dropShadow_14390_4714"/>
<feBlend mode="normal" in="SourceGraphic" in2="effect1_dropShadow_14390_4714" result="shape"/>
</filter>
<filter id="filter2_d_14390_4714" x="0" y="68.8347" width="201.867" height="69.7717" filterUnits="userSpaceOnUse" color-interpolation-filters="sRGB">
<feFlood flood-opacity="0" result="BackgroundImageFix"/>
<feColorMatrix in="SourceAlpha" type="matrix" values="0 0 0 0 0 0 0 0 0 0 0 0 0 0 0 0 0 0 127 0" result="hardAlpha"/>
<feOffset dy="5"/>
<feGaussianBlur stdDeviation="4.5"/>
<feColorMatrix type="matrix" values="0 0 0 0 0.397708 0 0 0 0 0.47749 0 0 0 0 0.575 0 0 0 0.17 0"/>
<feBlend mode="normal" in2="BackgroundImageFix" result="effect1_dropShadow_14390_4714"/>
<feBlend mode="normal" in="SourceGraphic" in2="effect1_dropShadow_14390_4714" result="shape"/>
</filter>
<radialGradient id="paint0_radial_14390_4714" cx="0" cy="0" r="1" gradientUnits="userSpaceOnUse" gradientTransform="translate(64.3151 18.9127) rotate(90) scale(36.3416 31.4324)">
<stop stop-color="#F6E07D"/>
<stop offset="1" stop-color="#B2802C"/>
</radialGradient>
<linearGradient id="paint1_linear_14390_4714" x1="64.412" y1="43.5394" x2="64.412" y2="40.286" gradientUnits="userSpaceOnUse">
<stop stop-color="white"/>
<stop offset="1" stop-color="#E2E5EC"/>
</linearGradient>
<radialGradient id="paint2_radial_14390_4714" cx="0" cy="0" r="1" gradientUnits="userSpaceOnUse" gradientTransform="translate(64.3151 148.047) rotate(90) scale(36.3416 31.4324)">
<stop stop-color="#F6E07D"/>
<stop offset="1" stop-color="#B2802C"/>
</radialGradient>
<linearGradient id="paint3_linear_14390_4714" x1="64.412" y1="172.674" x2="64.412" y2="169.42" gradientUnits="userSpaceOnUse">
<stop stop-color="white"/>
<stop offset="1" stop-color="#E2E5EC"/>
</linearGradient>
<radialGradient id="paint4_radial_14390_4714" cx="0" cy="0" r="1" gradientUnits="userSpaceOnUse" gradientTransform="translate(35.6753 83.4798) rotate(90) scale(36.3416 31.6419)">
<stop stop-color="#F6E07D"/>
<stop offset="1" stop-color="#B2802C"/>
</radialGradient>
<linearGradient id="paint5_linear_14390_4714" x1="35.9676" y1="106.847" x2="35.9676" y2="104.679" gradientUnits="userSpaceOnUse">
<stop stop-color="white"/>
<stop offset="1" stop-color="#E2E5EC"/>
</linearGradient>
</defs>
</svg>
