<svg width="254" height="200" viewBox="0 0 254 200" fill="none" xmlns="http://www.w3.org/2000/svg">
<path d="M121.727 200C176.669 200 221.211 155.315 221.211 100C221.211 44.685 176.472 0 121.727 0C66.7845 0 22.2422 44.685 22.2422 100C22.2422 155.315 66.7845 200 121.727 200Z" fill="#F8F7F4"/>
<g filter="url(#filter0_d_14555_2728)">
<path d="M227.601 144.545H197.42C195.992 144.545 194.769 143.624 194.361 142.397C191.404 133.6 184.878 131.452 169.074 125.212C168.156 124.803 168.054 123.575 168.972 123.064C173.56 120.813 172.744 118.87 172.744 105.368C172.541 105.163 172.337 104.856 172.235 104.652C171.215 103.117 170.501 101.276 170.297 99.4348L169.278 98.9234C166.219 99.6394 166.423 96.3661 165.607 90.0241C165.301 87.3646 165.709 86.8531 166.831 86.444L167.85 85.1142C161.834 71.6119 164.893 63.1219 170.807 60.0532C168.87 55.757 168.768 54.2227 168.768 54.2227C168.768 54.2227 181.309 56.3707 185.592 55.4501C191.098 54.3249 199.459 55.6547 202.62 62.9173C207.82 64.9631 209.859 68.3387 210.369 71.8165C211.083 77.5448 207.922 83.7844 207.31 86.2394C207.412 86.3417 207.412 86.444 207.514 86.5463C208.33 86.9554 208.636 87.6715 208.33 89.9218C207.616 95.9569 207.718 99.7417 204.659 98.8211L201.906 103.629C201.804 104.242 201.702 104.447 201.702 104.754C201.6 105.674 201.6 107.413 201.6 117.438C201.6 118.665 201.906 119.79 202.518 120.711C203.13 121.836 204.149 122.655 205.373 123.166H205.475C212.612 126.132 217.71 128.076 221.483 129.61C229.844 132.986 231.271 133.907 231.985 139.532C232.189 142.294 230.252 144.545 227.601 144.545Z" fill="white"/>
</g>
<path d="M207.105 86.1359C207.411 84.6015 206.697 82.7603 206.086 81.4305C205.984 81.226 205.882 81.0214 205.78 80.7145C203.435 75.9069 198.03 73.8611 192.932 73.6565C179.881 72.9405 178.657 75.4977 174.579 71.713C175.802 73.6565 176.006 76.6229 173.967 80.4076C172.642 83.0672 169.991 84.1924 167.645 85.0107C161.732 71.5084 164.689 63.0184 170.602 59.9497C168.665 55.6535 168.563 54.1191 168.563 54.1191C168.563 54.1191 181.105 56.2672 185.387 55.3466C190.893 54.2214 199.254 55.5512 202.415 62.8138C207.615 64.8596 209.654 68.2351 210.164 71.713C210.98 77.4412 207.717 83.6809 207.105 86.1359Z" fill="#484848"/>
<path opacity="0.1" d="M224.438 144.544C227.599 139.634 226.376 135.031 221.277 129.609C229.638 132.985 231.066 133.906 231.78 139.531C232.187 142.089 230.148 144.441 227.497 144.441H224.438V144.544Z" fill="#AAB2C5"/>
<path d="M202.31 120.812V123.165H172.027V120.096C172.741 118.46 172.537 118.562 172.537 105.367C172.333 105.162 172.129 104.855 172.027 104.651V103.935C172.639 105.06 173.557 106.083 174.474 106.901L183.957 113.55C186.2 115.391 189.361 115.493 191.604 113.652L200.475 105.673C200.781 105.367 201.087 105.162 201.393 104.855C201.291 105.776 201.291 107.515 201.291 117.539C201.393 118.664 201.699 119.79 202.31 120.812Z" fill="url(#paint0_linear_14555_2728)"/>
<g filter="url(#filter1_d_14555_2728)">
<path d="M71.5956 121.733C66.7013 121.631 66.1915 120.71 66.1915 120.71V112.527C71.3916 108.231 75.7761 103.219 76.9996 96.6723C80.2624 95.9562 82.3017 92.9898 81.9958 89.7165C81.8939 88.2845 80.9762 86.9547 80.8742 85.4204C80.8742 84.7043 80.8742 83.9883 80.8742 83.2723C80.8742 82.7608 80.8742 82.3517 80.7723 81.8402C80.7723 81.3288 80.6703 80.8173 80.6703 80.3059C80.3644 77.8509 79.7526 75.2937 78.1212 72.3273C74.0427 64.6555 65.9876 59.541 56.9129 59.541C55.0775 59.541 53.2422 59.7456 51.5088 60.1548C48.246 60.8708 45.2891 62.3028 42.638 64.3486C42.1282 64.7578 41.6184 65.167 41.1086 65.5761C41.0066 65.6784 40.9046 65.7807 40.7007 65.883C37.8457 68.5425 35.6026 71.9181 34.379 75.7028C33.1554 79.4875 32.8495 83.3746 33.3594 87.2616C33.3594 87.3639 33.3594 87.4662 33.3594 87.5685C33.3594 87.6707 33.3594 87.773 33.3594 87.8753C33.4613 88.5914 33.6653 88.4891 33.1554 89.1028C33.0535 89.3074 32.8495 89.512 32.7476 89.8188C32.1358 90.944 31.626 92.4784 32.3397 94.3196C33.5633 97.7974 36.0104 97.286 38.2536 99.2295C38.1516 99.3318 37.9477 99.4341 37.8457 99.4341H37.7438L35.1947 100.252C19.9002 105.06 18.1668 121.324 33.8692 124.291C32.7476 124.393 31.728 125.007 31.0142 125.518C26.018 129.405 22.8572 135.338 22.0414 141.168C21.7356 142.907 23.163 144.544 24.9984 144.544H49.2656C49.7754 144.544 50.2853 144.135 50.4892 143.623C52.7324 135.44 57.8305 132.576 68.4347 128.28L74.5525 125.825C75.5721 125.416 76.6937 125.007 77.9173 124.495C79.0389 124.086 78.9369 122.449 77.7134 122.142C76.4898 121.836 75.2662 121.733 74.0427 121.631C73.0231 121.733 72.2074 121.733 71.5956 121.733ZM40.4968 111.3C40.4968 110.277 41.2105 109.152 42.74 107.924C43.3518 108.742 44.1675 109.663 45.0851 110.481C45.7989 111.095 46.5126 111.709 47.3283 112.323C47.8381 112.629 48.348 113.039 48.8578 113.448C48.9597 113.55 49.0617 113.652 49.1637 113.652C49.2656 113.755 49.4696 113.857 49.5715 113.959V118.971C49.4696 118.869 49.3676 118.767 49.2656 118.767C48.7558 118.358 48.348 117.949 47.9401 117.642C47.2264 117.13 46.5126 116.721 45.7989 116.312C45.493 116.107 45.2891 116.005 45.0851 115.8C42.74 114.266 40.5988 112.834 40.4968 111.3Z" fill="white"/>
</g>
<path d="M71.5985 121.733C70.7828 124.7 69.8651 126.541 69.8651 126.541L43.5586 122.347L45.088 115.8C45.292 116.005 45.5979 116.107 45.8018 116.21C46.5155 116.619 47.3312 117.13 47.943 117.642C48.3509 117.948 48.8607 118.255 49.2685 118.767C49.3705 118.869 49.4725 118.971 49.4725 118.971V113.959C49.2685 113.857 49.1666 113.755 49.0646 113.652C53.3471 115.8 58.6491 116.926 66.2964 112.425C66.1944 112.425 66.1944 112.527 66.0925 112.527V120.71C66.0925 120.71 66.7042 121.631 71.5985 121.733Z" fill="url(#paint1_linear_14555_2728)"/>
<path d="M80.6688 81.8405C76.2844 83.3748 71.5941 83.9886 66.9037 83.5794C59.5624 82.9657 52.425 79.9993 46.919 75.0893C45.0836 80.4084 40.4953 84.3977 35.2951 86.7504C34.5814 87.0573 33.8677 87.3641 33.1539 87.5687C33.1539 87.4664 33.1539 87.3641 33.1539 87.3641C32.6441 83.4771 32.95 79.5901 34.1736 75.8054C35.3971 72.0206 37.6403 68.6451 40.4953 65.9855C40.5972 65.8832 40.6992 65.781 40.9031 65.6787C41.4129 65.2695 41.9228 64.8603 42.4326 64.4512C45.0836 62.5077 48.1425 61.0756 51.3034 60.2573C53.1387 59.8481 54.8721 59.6436 56.7074 59.6436C65.7822 59.6436 73.8372 64.7581 77.9158 72.4298C79.4452 75.3962 80.159 77.9535 80.4649 80.3061C80.6688 80.8176 80.6688 81.329 80.6688 81.8405Z" fill="#484848"/>
<path d="M52.6326 134.11C50.6953 136.565 47.0246 136.668 43.9657 136.565C47.2285 133.394 45.3932 123.063 33.9733 124.291H33.8714C18.169 121.324 19.9024 105.06 35.0949 100.252L37.644 99.4341C37.8479 99.5364 37.9499 99.6387 38.0519 99.8432C39.2754 103.014 40.9068 105.674 42.6402 107.822C36.4204 113.039 45.0873 114.675 49.2678 118.665C52.9385 120.813 55.9974 129.814 52.6326 134.11Z" fill="#484848"/>
<g filter="url(#filter2_d_14555_2728)">
<path d="M188.549 149.249C189.059 153.034 186.102 156.512 182.228 156.512H62.7267C58.8521 156.512 55.8951 153.034 56.4049 149.249C57.5265 141.373 59.2599 139.736 70.8837 135.031L73.7387 133.906C79.1427 131.758 86.1782 129.098 95.6608 125.109C97.802 124.188 99.5354 122.552 100.453 120.403C100.963 119.278 101.269 117.948 101.269 116.619V98.718C100.963 98.3088 100.657 98.002 100.453 97.5928C98.9236 95.3424 97.904 92.6829 97.5981 89.8188L96.0686 89.1027C91.4803 90.2279 91.8881 85.318 90.6646 75.9073C90.1548 72.0203 90.7665 71.202 92.4999 70.5883L93.9274 68.6448C85.1586 48.6982 89.543 36.2188 98.2099 31.8204C95.5588 25.4784 95.3549 23.228 95.3549 23.228C95.3549 23.228 113.81 26.2967 120.132 25.0692C128.187 23.4326 140.627 25.3761 145.215 36.1166C152.862 39.1853 155.819 43.9929 156.533 49.312C157.654 57.6997 152.862 66.9058 151.944 70.486C152.046 70.6905 152.046 70.7928 152.148 70.8951C153.372 71.5089 153.78 72.5318 153.372 75.9073C152.25 84.8066 152.556 90.3302 147.968 89.1027L143.889 96.263C143.685 97.0813 143.685 97.3882 143.584 98.002C143.38 99.3317 143.482 101.991 143.482 116.619C143.482 118.358 143.991 120.097 144.909 121.426C145.929 122.961 147.356 124.29 149.09 125.006C149.191 125.006 149.191 125.006 149.293 125.109C159.796 129.507 167.341 132.371 172.847 134.519C185.388 139.429 187.326 140.964 188.549 149.249Z" fill="white"/>
</g>
<path d="M152.044 70.486C152.452 68.2356 151.433 65.4738 150.617 63.5303C150.515 63.2234 150.311 62.9165 150.209 62.5074C146.64 55.3471 138.789 52.4829 131.244 52.0738C111.973 51.0509 110.239 54.7333 104.224 49.2097C106.059 52.0738 106.263 56.4723 103.408 61.9959C101.369 65.8829 97.494 67.6218 94.1292 68.747C85.3604 48.8005 89.7448 36.3211 98.4117 31.9227C95.5567 25.4784 95.3528 23.228 95.3528 23.228C95.3528 23.228 113.808 26.2967 120.13 25.0692C128.185 23.4326 140.624 25.3761 145.213 36.1166C152.86 39.1853 155.817 43.9929 156.531 49.312C157.754 57.5974 152.962 66.8035 152.044 70.486Z" fill="#484848"/>
<path opacity="0.1" d="M177.741 156.41C182.431 149.249 180.596 142.498 173.051 134.52C185.388 139.429 187.428 140.964 188.549 149.147C189.059 152.932 186.102 156.41 182.227 156.41H177.741Z" fill="#AAB2C5"/>
<path d="M145.011 121.426V124.904H100.555V120.403C101.065 119.278 101.37 117.948 101.37 116.618V98.7174C101.065 98.3083 100.759 98.0014 100.555 97.5922V96.5693C101.472 98.206 102.696 99.7403 104.225 100.968L118.194 110.788C121.457 113.549 126.147 113.652 129.512 110.992L142.564 99.2289C142.971 98.8197 143.481 98.4106 143.889 98.0014C143.685 99.3312 143.787 101.991 143.787 116.618C143.685 118.357 144.195 119.994 145.011 121.426Z" fill="url(#paint2_linear_14555_2728)"/>
<path d="M157.038 175.187C156.405 177.886 155.455 180.743 154.348 183.123C151.342 188.996 146.596 193.599 140.742 196.614C134.73 199.63 127.61 200.9 120.491 199.312C103.721 195.821 92.9624 179.314 96.4431 162.49C99.9237 145.666 116.219 134.715 132.99 138.365C139.002 139.635 144.223 142.651 148.652 146.777C156.088 154.237 159.252 165.03 157.038 175.187Z" fill="url(#paint3_radial_14555_2728)"/>
<path d="M136.628 166.14H129.508V158.998C129.508 157.57 128.401 156.3 126.819 156.3C125.395 156.3 124.129 157.411 124.129 158.998V166.14H117.01C115.586 166.14 114.32 167.251 114.32 168.838C114.32 170.426 115.428 171.537 117.01 171.537H124.129V178.679C124.129 180.107 125.237 181.377 126.819 181.377C128.243 181.377 129.508 180.266 129.508 178.679V171.537H136.628C138.052 171.537 139.318 170.426 139.318 168.838C139.318 167.251 138.052 166.14 136.628 166.14Z" fill="white"/>
<defs>
<filter id="filter0_d_14555_2728" x="142.582" y="43.2227" width="111.418" height="134.322" filterUnits="userSpaceOnUse" color-interpolation-filters="sRGB">
<feFlood flood-opacity="0" result="BackgroundImageFix"/>
<feColorMatrix in="SourceAlpha" type="matrix" values="0 0 0 0 0 0 0 0 0 0 0 0 0 0 0 0 0 0 127 0" result="hardAlpha"/>
<feOffset dy="11"/>
<feGaussianBlur stdDeviation="11"/>
<feColorMatrix type="matrix" values="0 0 0 0 0.397708 0 0 0 0 0.47749 0 0 0 0 0.575 0 0 0 0.27 0"/>
<feBlend mode="normal" in2="BackgroundImageFix" result="effect1_dropShadow_14555_2728"/>
<feBlend mode="normal" in="SourceGraphic" in2="effect1_dropShadow_14555_2728" result="shape"/>
</filter>
<filter id="filter1_d_14555_2728" x="0" y="48.541" width="104.027" height="129.003" filterUnits="userSpaceOnUse" color-interpolation-filters="sRGB">
<feFlood flood-opacity="0" result="BackgroundImageFix"/>
<feColorMatrix in="SourceAlpha" type="matrix" values="0 0 0 0 0 0 0 0 0 0 0 0 0 0 0 0 0 0 127 0" result="hardAlpha"/>
<feOffset dy="11"/>
<feGaussianBlur stdDeviation="11"/>
<feColorMatrix type="matrix" values="0 0 0 0 0.397708 0 0 0 0 0.47749 0 0 0 0 0.575 0 0 0 0.27 0"/>
<feBlend mode="normal" in2="BackgroundImageFix" result="effect1_dropShadow_14555_2728"/>
<feBlend mode="normal" in="SourceGraphic" in2="effect1_dropShadow_14555_2728" result="shape"/>
</filter>
<filter id="filter2_d_14555_2728" x="34.3477" y="12.228" width="176.258" height="177.284" filterUnits="userSpaceOnUse" color-interpolation-filters="sRGB">
<feFlood flood-opacity="0" result="BackgroundImageFix"/>
<feColorMatrix in="SourceAlpha" type="matrix" values="0 0 0 0 0 0 0 0 0 0 0 0 0 0 0 0 0 0 127 0" result="hardAlpha"/>
<feOffset dy="11"/>
<feGaussianBlur stdDeviation="11"/>
<feColorMatrix type="matrix" values="0 0 0 0 0.397708 0 0 0 0 0.47749 0 0 0 0 0.575 0 0 0 0.27 0"/>
<feBlend mode="normal" in2="BackgroundImageFix" result="effect1_dropShadow_14555_2728"/>
<feBlend mode="normal" in="SourceGraphic" in2="effect1_dropShadow_14555_2728" result="shape"/>
</filter>
<linearGradient id="paint0_linear_14555_2728" x1="187.178" y1="123.282" x2="187.178" y2="112.688" gradientUnits="userSpaceOnUse">
<stop stop-color="white"/>
<stop offset="1" stop-color="#E2E5EC"/>
</linearGradient>
<linearGradient id="paint1_linear_14555_2728" x1="57.587" y1="126.627" x2="57.587" y2="118.85" gradientUnits="userSpaceOnUse">
<stop stop-color="white"/>
<stop offset="1" stop-color="#E2E5EC"/>
</linearGradient>
<linearGradient id="paint2_linear_14555_2728" x1="122.796" y1="125.076" x2="122.796" y2="109.467" gradientUnits="userSpaceOnUse">
<stop stop-color="white"/>
<stop offset="1" stop-color="#E2E5EC"/>
</linearGradient>
<radialGradient id="paint3_radial_14555_2728" cx="0" cy="0" r="1" gradientUnits="userSpaceOnUse" gradientTransform="translate(126.765 136.863) rotate(90) scale(76.7227 65.9381)">
<stop stop-color="#F6E07D"/>
<stop offset="1" stop-color="#B2802C"/>
</radialGradient>
</defs>
</svg>
