<svg width="32" height="32" viewBox="0 0 32 32" fill="none" xmlns="http://www.w3.org/2000/svg">
<g clip-path="url(#clip0_14188_2600)">
<path fill-rule="evenodd" clip-rule="evenodd" d="M2.3424 2.3424C0 4.688 0 8.4576 0 16C0 23.5424 0 27.3136 2.3424 29.656C4.688 32 8.4576 32 16 32C23.5424 32 27.3136 32 29.656 29.656C32 27.3152 32 23.5424 32 16C32 8.4576 32 4.6864 29.656 2.3424C27.3152 0 23.5424 0 16 0C8.4576 0 4.6864 0 2.3424 2.3424ZM13.8672 6.8H22.4C22.7183 6.8 23.0235 6.92643 23.2485 7.15147C23.4736 7.37652 23.6 7.68174 23.6 8C23.6 8.31826 23.4736 8.62348 23.2485 8.84853C23.0235 9.07357 22.7183 9.2 22.4 9.2H19.056L15.4288 22.8H18.1328C18.4511 22.8 18.7563 22.9264 18.9813 23.1515C19.2064 23.3765 19.3328 23.6817 19.3328 24C19.3328 24.3183 19.2064 24.6235 18.9813 24.8485C18.7563 25.0736 18.4511 25.2 18.1328 25.2H9.6C9.28174 25.2 8.97652 25.0736 8.75147 24.8485C8.52643 24.6235 8.4 24.3183 8.4 24C8.4 23.6817 8.52643 23.3765 8.75147 23.1515C8.97652 22.9264 9.28174 22.8 9.6 22.8H12.944L16.5712 9.2H13.8672C13.5489 9.2 13.2437 9.07357 13.0187 8.84853C12.7936 8.62348 12.6672 8.31826 12.6672 8C12.6672 7.68174 12.7936 7.37652 13.0187 7.15147C13.2437 6.92643 13.5489 6.8 13.8672 6.8Z" fill="#B7B9BD"/>
</g>
<defs>
<clipPath id="clip0_14188_2600">
<rect width="32" height="32" fill="white"/>
</clipPath>
</defs>
</svg>
