<svg width="38" height="47" viewBox="0 0 38 47" fill="none" xmlns="http://www.w3.org/2000/svg">
<path d="M18.6667 0C12.2337 0 7 5.23367 7 11.6667V18.6667H4.66667C3.42899 18.6667 2.242 19.1583 1.36683 20.0335C0.491665 20.9087 0 22.0957 0 23.3333V42C0 43.2377 0.491665 44.4247 1.36683 45.2998C2.242 46.175 3.42899 46.6667 4.66667 46.6667H32.6667C33.9043 46.6667 35.0913 46.175 35.9665 45.2998C36.8417 44.4247 37.3333 43.2377 37.3333 42V23.3333C37.3333 22.0957 36.8417 20.9087 35.9665 20.0335C35.0913 19.1583 33.9043 18.6667 32.6667 18.6667H30.3333V11.6667C30.3333 5.23367 25.0997 0 18.6667 0ZM11.6667 11.6667C11.6667 7.80733 14.8073 4.66667 18.6667 4.66667C22.526 4.66667 25.6667 7.80733 25.6667 11.6667V18.6667H11.6667V11.6667ZM21 36.687V42H16.3333V36.687C15.5176 36.2198 14.8625 35.5164 14.4546 34.6695C14.0467 33.8226 13.905 32.8719 14.0483 31.9428C14.1915 31.0137 14.613 30.1499 15.2571 29.4652C15.9012 28.7805 16.7377 28.307 17.6563 28.1073C18.3387 27.956 19.0463 27.9599 19.727 28.1187C20.4076 28.2775 21.0439 28.5872 21.5888 29.0248C22.1338 29.4625 22.5735 30.0169 22.8754 30.6473C23.1773 31.2776 23.3338 31.9677 23.3333 32.6667C23.332 33.4827 23.1156 34.284 22.706 34.9898C22.2963 35.6956 21.7079 36.281 21 36.687Z" fill="#7E8089"/>
</svg>
