<svg width="20" height="20" viewBox="0 0 20 20" fill="none" xmlns="http://www.w3.org/2000/svg">
<path d="M3.33268 15H4.99935V18.4008L9.25018 15H13.3327C14.2518 15 14.9993 14.2525 14.9993 13.3333V6.66667C14.9993 5.7475 14.2518 5 13.3327 5H3.33268C2.41352 5 1.66602 5.7475 1.66602 6.66667V13.3333C1.66602 14.2525 2.41352 15 3.33268 15Z" fill="black"/>
<path d="M16.6667 1.66667H6.66667C5.7475 1.66667 5 2.41417 5 3.33333H15C15.9192 3.33333 16.6667 4.08083 16.6667 5V11.6667C17.5858 11.6667 18.3333 10.9192 18.3333 10V3.33333C18.3333 2.41417 17.5858 1.66667 16.6667 1.66667Z" fill="black"/>
</svg>
