<svg width="151" height="163" viewBox="0 0 151 163" fill="none" xmlns="http://www.w3.org/2000/svg">
<path d="M75.3848 150C114.038 150 145.385 118.278 145.385 79.1071C145.385 39.9358 114.038 8.21436 75.3848 8.21436C36.7316 8.21436 5.38477 39.9358 5.38477 79.1071C5.38477 118.278 36.7316 150 75.3848 150Z" fill="#F8F7F4"/>
<path d="M129.003 69.855V113.232C129.003 122.244 121.815 129.573 112.859 129.573H38.1448C29.3064 129.573 22.1178 122.364 22 113.352C22 113.232 22 113.232 22 113.112V69.855C22 69.7348 22 69.7348 22 69.6147C22 69.3744 22 69.134 22.1178 68.8937C22.2357 68.5333 22.3535 68.2929 22.4714 67.9325L42.5051 28.8814C43.2121 27.3194 44.7441 26.4783 46.3939 26.4783H104.492C106.141 26.4783 107.556 27.3194 108.38 28.8814L128.414 67.9325C128.532 68.1728 128.65 68.5333 128.768 68.8937C129.003 69.134 129.003 69.4945 129.003 69.855Z" fill="url(#paint0_radial_14390_5030)"/>
<g filter="url(#filter0_d_14390_5030)">
<path d="M129.003 69.8551V117.678C129.003 124.286 123.818 129.573 117.219 129.573H33.7845C27.303 129.573 22 124.286 22 117.678V69.6147C22 69.3744 22 69.1341 22.1178 68.8938H48.9865C52.9933 68.8938 56.2929 72.138 56.2929 76.3435C56.2929 78.3862 57.1178 80.3087 58.4141 81.6305C59.8283 83.0723 61.4781 83.7933 63.5993 83.7933H87.5219C91.5286 83.7933 94.8283 80.549 94.8283 76.3435C94.8283 74.3009 95.6532 72.3784 96.9495 71.0566C98.3636 69.6147 100.013 68.8938 102.017 68.8938H128.768C129.003 69.1341 129.003 69.4946 129.003 69.8551Z" fill="url(#paint1_linear_14390_5030)"/>
</g>
<path d="M104.986 12.0225C106.524 29.1414 107.293 33.0618 103.811 48.5654C102.679 52.0121 101.547 55.7872 99.12 58.4133C95.7228 62.5166 89.5755 64.322 84.5607 63.009C79.384 61.6959 75.178 57.1002 74.2074 51.5197C73.3985 48.073 74.5309 43.9697 77.4428 41.836C80.5164 39.8664 84.8842 40.3588 87.4725 42.8208C90.3844 45.2828 91.5168 49.0578 91.355 52.6687C91.1932 56.2796 89.8991 59.8905 88.1196 63.009C84.097 70.6769 82.4409 70.6488 74.2074 83.2425" stroke="#ACAEB3" stroke-width="2" stroke-miterlimit="10" stroke-dasharray="4 4"/>
<path d="M114.007 5.64661C113.392 7.93416 110.932 8.766 108.473 7.31029C105.808 6.06253 103.963 5.02274 104.373 2.94315C104.988 0.863555 107.448 0.655595 110.317 0.447636C113.802 0.0317183 114.417 3.35906 114.007 5.64661Z" fill="url(#paint2_radial_14390_5030)"/>
<path d="M94.1253 7.72619C95.1501 9.59782 98.0196 10.8456 100.069 8.97395C102.324 6.89436 104.169 5.43864 103.144 3.35905C102.119 1.48742 100.479 2.1113 96.9948 2.52721C94.1252 3.15109 92.8955 5.6466 94.1253 7.72619Z" fill="url(#paint3_radial_14390_5030)"/>
<path d="M103.145 0.0318476C104.58 -0.176111 106.015 0.655725 106.425 1.90348C106.63 2.3194 106.835 2.94327 106.835 3.35919C107.244 6.27062 106.22 8.76613 104.58 8.97409C102.735 9.39001 100.891 7.31041 100.686 4.60695C100.686 3.77511 100.686 3.35919 100.686 2.73532C100.891 1.2796 101.71 0.239807 103.145 0.0318476C103.35 0.0318476 103.145 0.0318476 103.145 0.0318476Z" fill="url(#paint4_radial_14390_5030)"/>
<path d="M62.0572 101.047C63.5505 101.047 64.7609 99.8132 64.7609 98.2907C64.7609 96.7682 63.5505 95.5339 62.0572 95.5339C60.564 95.5339 59.3535 96.7682 59.3535 98.2907C59.3535 99.8132 60.564 101.047 62.0572 101.047Z" fill="#7E8089"/>
<path d="M88.9479 101.047C90.4411 101.047 91.6516 99.8132 91.6516 98.2907C91.6516 96.7682 90.4411 95.5339 88.9479 95.5339C87.4546 95.5339 86.2441 96.7682 86.2441 98.2907C86.2441 99.8132 87.4546 101.047 88.9479 101.047Z" fill="#7E8089"/>
<path d="M79.8879 119.153H71.4114C70.0961 119.153 69 118.035 69 116.694C69 115.353 70.0961 114.236 71.4114 114.236H79.8149C81.1302 114.236 82.2263 115.353 82.2263 116.694C82.2994 118.035 81.2033 119.153 79.8879 119.153Z" fill="#7E8089"/>
<defs>
<filter id="filter0_d_14390_5030" x="0" y="57.8938" width="151.004" height="104.679" filterUnits="userSpaceOnUse" color-interpolation-filters="sRGB">
<feFlood flood-opacity="0" result="BackgroundImageFix"/>
<feColorMatrix in="SourceAlpha" type="matrix" values="0 0 0 0 0 0 0 0 0 0 0 0 0 0 0 0 0 0 127 0" result="hardAlpha"/>
<feOffset dy="11"/>
<feGaussianBlur stdDeviation="11"/>
<feColorMatrix type="matrix" values="0 0 0 0 0.397708 0 0 0 0 0.47749 0 0 0 0 0.575 0 0 0 0.27 0"/>
<feBlend mode="normal" in2="BackgroundImageFix" result="effect1_dropShadow_14390_5030"/>
<feBlend mode="normal" in="SourceGraphic" in2="effect1_dropShadow_14390_5030" result="shape"/>
</filter>
<radialGradient id="paint0_radial_14390_5030" cx="0" cy="0" r="1" gradientUnits="userSpaceOnUse" gradientTransform="translate(75.5107 25.1565) rotate(90) scale(126.886 113.906)">
<stop stop-color="#F6E07D"/>
<stop offset="1" stop-color="#B2802C"/>
</radialGradient>
<linearGradient id="paint1_linear_14390_5030" x1="75.4668" y1="67.4902" x2="75.4668" y2="130.227" gradientUnits="userSpaceOnUse">
<stop stop-color="#FEFFFD"/>
<stop offset="0.9964" stop-color="#F5F4EC"/>
</linearGradient>
<radialGradient id="paint2_radial_14390_5030" cx="0" cy="0" r="1" gradientUnits="userSpaceOnUse" gradientTransform="translate(109.218 0.314384) rotate(90) scale(9.38139 10.4339)">
<stop stop-color="#F6E07D"/>
<stop offset="1" stop-color="#B2802C"/>
</radialGradient>
<radialGradient id="paint3_radial_14390_5030" cx="0" cy="0" r="1" gradientUnits="userSpaceOnUse" gradientTransform="translate(98.5431 1.98328) rotate(90) scale(9.62006 10.4149)">
<stop stop-color="#F6E07D"/>
<stop offset="1" stop-color="#B2802C"/>
</radialGradient>
<radialGradient id="paint4_radial_14390_5030" cx="0" cy="0" r="1" gradientUnits="userSpaceOnUse" gradientTransform="translate(103.806 -0.115737) rotate(90) scale(11.1104 6.64187)">
<stop stop-color="#F6E07D"/>
<stop offset="1" stop-color="#B2802C"/>
</radialGradient>
</defs>
</svg>
