<svg width="233" height="200" viewBox="0 0 233 200" fill="none" xmlns="http://www.w3.org/2000/svg">
<path d="M101.692 200C156.365 200 200.689 155.315 200.689 100C200.689 44.685 156.365 0 101.692 0C47.0194 0 2.69531 44.685 2.69531 100C2.69531 155.315 47.0194 200 101.692 200Z" fill="#F8F7F4"/>
<path d="M159.184 15.0308C162.129 15.0308 164.621 17.3031 164.621 20.4843V181.363C164.621 184.317 162.355 186.817 159.184 186.817H41.1726C38.2279 186.817 35.7363 184.544 35.7363 181.363V20.4843C35.7363 17.5303 38.0014 15.0308 41.1726 15.0308H159.184Z" fill="url(#paint0_radial_14390_4512)"/>
<path d="M164.62 31.8461V181.136C164.62 184.09 162.355 186.59 159.184 186.59H51.365L41.8516 177.046L148.991 29.1194L158.278 25.7109L164.62 31.8461Z" fill="url(#paint1_radial_14390_4512)"/>
<path d="M158.731 27.5288C158.731 26.6199 158.051 25.7109 156.919 25.7109H43.6636C42.7576 25.7109 41.8516 26.3926 41.8516 27.5288V175.228C41.8516 176.137 42.5311 177.046 43.6636 177.046H156.692C157.598 177.046 158.504 176.364 158.504 175.228L158.731 27.5288Z" fill="#F1EFE9"/>
<path d="M158.734 27.5288C158.734 26.6199 158.054 25.7109 156.922 25.7109H43.6665C42.7605 25.7109 41.8544 26.3926 41.8544 27.5288C43.2135 86.3814 43.6665 152.96 37.3242 170.229L145.823 168.639C152.391 138.644 157.375 84.7908 158.734 27.5288Z" fill="#E7E4DA"/>
<g filter="url(#filter0_d_14390_4512)">
<path d="M158.503 25.9375C158.503 25.9375 158.277 34.7995 155.559 91.3798C155.559 91.8342 155.559 92.0614 155.559 92.5159C152.161 147.96 103.235 159.549 97.3456 160.23C94.6274 160.458 89.4177 160.912 80.1308 160.912C68.5788 161.367 50.911 161.594 23.2767 161.821C22.3707 161.821 21.6912 160.912 22.1442 160.003C41.171 121.601 41.3976 26.1647 41.3976 26.1647L158.503 25.9375Z" fill="white"/>
</g>
<path d="M155.334 92.2891C152.163 147.733 103.01 159.322 97.121 160.004C94.4029 160.231 89.1932 160.685 79.9062 160.685C104.369 149.324 117.507 128.873 117.28 112.967C129.059 113.876 149.445 112.967 155.334 92.2891Z" fill="#D9D9C9"/>
<path d="M127.019 15.4852V21.3932C127.019 21.8477 127.019 22.0749 127.019 22.5294C126.339 26.3923 123.168 29.5735 119.091 29.5735H81.2638C77.1866 29.5735 74.0155 26.3923 73.3359 22.5294C73.3359 22.0749 73.3359 21.8477 73.3359 21.3932V15.4852C73.3359 14.5763 74.0155 13.4402 75.148 13.4402H93.7218C93.7218 12.9857 93.7218 12.7585 93.7218 12.5313C93.7218 8.89558 96.893 5.71436 100.517 5.71436C104.141 5.71436 107.312 8.89558 107.312 12.5313C107.312 12.9857 107.312 13.2129 107.312 13.4402H125.886C126.339 13.6674 127.019 14.3491 127.019 15.4852Z" fill="#7E8089"/>
<path d="M100.064 15.7121C101.876 15.7121 103.235 14.3487 103.235 12.5308C103.235 10.713 101.876 9.34961 100.064 9.34961C98.2516 9.34961 96.8926 10.713 96.8926 12.5308C96.8926 14.3487 98.4782 15.7121 100.064 15.7121Z" fill="#F1F3FA"/>
<path d="M126.792 22.5293C126.113 26.3922 122.942 29.5734 118.864 29.5734H81.2638C77.1866 29.5734 74.0155 26.3922 73.3359 22.5293H126.792Z" fill="#7E8089"/>
<path d="M69.7139 91.6072C73.3381 91.6072 76.0562 88.6532 76.0562 85.2448C76.0562 81.6091 73.1116 78.8823 69.7139 78.8823C66.0897 78.8823 63.3716 81.8363 63.3716 85.2448C63.1451 88.6532 66.0897 91.6072 69.7139 91.6072Z" fill="#7E8089"/>
<path d="M119.997 91.3797C123.621 91.3797 126.339 88.4257 126.339 85.0172C126.339 81.3816 123.394 78.6548 119.997 78.6548C116.599 78.6548 113.654 81.6088 113.654 85.0172C113.654 88.4257 116.372 91.3797 119.997 91.3797Z" fill="#7E8089"/>
<path d="M100.97 98.4243H88.7383V101.378H100.97V98.4243Z" fill="#7E8089"/>
<path d="M223.058 26.6191C228.041 50.2511 227.361 75.2464 220.566 98.4238C218.981 103.196 217.395 108.422 213.997 112.058C209.241 117.738 200.633 120.238 193.611 118.42C186.363 116.602 180.474 110.24 179.115 102.514C177.982 97.7422 179.568 92.0614 183.645 89.1074C187.949 86.3807 194.064 87.0623 197.689 90.4708C201.766 93.8792 203.351 99.1055 203.125 104.105C202.898 109.104 201.086 114.103 198.595 118.42C191.12 132.508 177.529 143.643 161.9 148.642C150.348 152.277 137.89 152.277 126.338 149.096" stroke="#7E8089" stroke-opacity="0.64" stroke-width="2" stroke-miterlimit="10" stroke-dasharray="4 4"/>
<path d="M232.572 19.8031C231.893 22.3026 229.175 23.2115 226.457 21.6209C223.512 20.2575 221.473 19.1214 221.926 16.8491C222.606 14.5768 225.324 14.3495 228.495 14.1223C232.346 13.6679 233.025 17.3035 232.572 19.8031Z" fill="url(#paint2_radial_14390_4512)"/>
<path d="M210.603 22.0753C211.735 24.1203 214.907 25.4837 217.172 23.4386C219.663 21.1663 221.702 19.5757 220.569 17.3034C219.437 15.2584 217.625 15.94 213.774 16.3945C210.603 17.0762 209.244 19.803 210.603 22.0753Z" fill="url(#paint3_radial_14390_4512)"/>
<path d="M220.57 13.6671C222.155 13.4399 223.741 14.3488 224.194 15.7122C224.42 16.1667 224.647 16.8483 224.647 17.3028C225.1 20.484 223.967 23.2108 222.155 23.438C220.117 23.8925 218.078 21.6202 217.852 18.6662C217.852 17.7573 217.852 17.3028 217.852 16.6211C218.078 15.0305 218.984 13.8944 220.57 13.6671C220.796 13.6671 220.57 13.6671 220.57 13.6671Z" fill="url(#paint4_radial_14390_4512)"/>
<defs>
<filter id="filter0_d_14390_4512" x="0" y="14.9375" width="180.504" height="179.884" filterUnits="userSpaceOnUse" color-interpolation-filters="sRGB">
<feFlood flood-opacity="0" result="BackgroundImageFix"/>
<feColorMatrix in="SourceAlpha" type="matrix" values="0 0 0 0 0 0 0 0 0 0 0 0 0 0 0 0 0 0 127 0" result="hardAlpha"/>
<feOffset dy="11"/>
<feGaussianBlur stdDeviation="11"/>
<feColorMatrix type="matrix" values="0 0 0 0 0.397708 0 0 0 0 0.47749 0 0 0 0 0.575 0 0 0 0.27 0"/>
<feBlend mode="normal" in2="BackgroundImageFix" result="effect1_dropShadow_14390_4512"/>
<feBlend mode="normal" in="SourceGraphic" in2="effect1_dropShadow_14390_4512" result="shape"/>
</filter>
<radialGradient id="paint0_radial_14390_4512" cx="0" cy="0" r="1" gradientUnits="userSpaceOnUse" gradientTransform="translate(100.189 12.8283) rotate(90) scale(211.429 137.198)">
<stop stop-color="#F6E07D"/>
<stop offset="1" stop-color="#B2802C"/>
</radialGradient>
<radialGradient id="paint1_radial_14390_4512" cx="0" cy="0" r="1" gradientUnits="userSpaceOnUse" gradientTransform="translate(103.246 23.6483) rotate(90) scale(198.005 130.688)">
<stop stop-color="#F6E07D"/>
<stop offset="1" stop-color="#B2802C"/>
</radialGradient>
<radialGradient id="paint2_radial_14390_4512" cx="0" cy="0" r="1" gradientUnits="userSpaceOnUse" gradientTransform="translate(227.28 13.9767) rotate(90) scale(10.2507 11.5306)">
<stop stop-color="#F6E07D"/>
<stop offset="1" stop-color="#B2802C"/>
</radialGradient>
<radialGradient id="paint3_radial_14390_4512" cx="0" cy="0" r="1" gradientUnits="userSpaceOnUse" gradientTransform="translate(215.485 15.8002) rotate(90) scale(10.5115 11.5096)">
<stop stop-color="#F6E07D"/>
<stop offset="1" stop-color="#B2802C"/>
</radialGradient>
<radialGradient id="paint4_radial_14390_4512" cx="0" cy="0" r="1" gradientUnits="userSpaceOnUse" gradientTransform="translate(221.3 13.5059) rotate(90) scale(12.14 7.33996)">
<stop stop-color="#F6E07D"/>
<stop offset="1" stop-color="#B2802C"/>
</radialGradient>
</defs>
</svg>
