<svg width="21" height="21" viewBox="0 0 21 21" fill="none" xmlns="http://www.w3.org/2000/svg">
<path d="M3.33203 18.3333H16.6654" stroke="#030303" stroke-width="1.25" stroke-linecap="round"/>
<path d="M11.5721 3.05246L12.19 2.43454C13.2138 1.41074 14.8737 1.41074 15.8975 2.43454C16.9213 3.45834 16.9213 5.11825 15.8975 6.14206L15.2796 6.75998M11.5721 3.05246C11.5721 3.05246 11.6493 4.36554 12.8079 5.52414C13.9665 6.68274 15.2796 6.75998 15.2796 6.75998M11.5721 3.05246L5.89125 8.73329C5.50647 9.11806 5.31409 9.31045 5.14863 9.52258C4.95345 9.77281 4.78612 10.0436 4.64959 10.33C4.53385 10.5729 4.44782 10.831 4.27574 11.3472L3.54657 13.5347M15.2796 6.75998L9.59877 12.4408C9.21399 12.8256 9.0216 13.018 8.80947 13.1834C8.55924 13.3786 8.28849 13.5459 8.00202 13.6825C7.75916 13.7982 7.50105 13.8842 6.98482 14.0563L4.79731 14.7855M4.79731 14.7855L4.26259 14.9637C4.00855 15.0484 3.72847 14.9823 3.53912 14.7929C3.34977 14.6036 3.28365 14.3235 3.36833 14.0695L3.54657 13.5347M4.79731 14.7855L3.54657 13.5347" stroke="#030303" stroke-width="1.25"/>
</svg>
