<svg width="32" height="32" viewBox="0 0 32 32" fill="none" xmlns="http://www.w3.org/2000/svg">
<path d="M16 5C17.2067 5 18.364 5.4959 19.2173 6.37862C20.0706 7.26133 20.55 8.45855 20.55 9.7069C20.55 10.9552 20.0706 12.1525 19.2173 13.0352C18.364 13.9179 17.2067 14.4138 16 14.4138C14.7933 14.4138 13.636 13.9179 12.7827 13.0352C11.9294 12.1525 11.45 10.9552 11.45 9.7069C11.45 8.45855 11.9294 7.26133 12.7827 6.37862C13.636 5.4959 14.7933 5 16 5ZM6.2 8.25862C6.61366 8.25862 7.02328 8.34291 7.40545 8.50667C7.78763 8.67043 8.13488 8.91046 8.42739 9.21305C8.71989 9.51564 8.95192 9.87487 9.11022 10.2702C9.26852 10.6656 9.35 11.0893 9.35 11.5172C9.35 11.9452 9.26852 12.3689 9.11022 12.7643C8.95192 13.1596 8.71989 13.5188 8.42739 13.8214C8.13488 14.124 7.78763 14.3641 7.40545 14.5278C7.02328 14.6916 6.61366 14.7759 6.2 14.7759C5.78634 14.7759 5.37672 14.6916 4.99455 14.5278C4.61237 14.3641 4.26512 14.124 3.97261 13.8214C3.68011 13.5188 3.44808 13.1596 3.28978 12.7643C3.13148 12.3689 3.05 11.9452 3.05 11.5172C3.05 11.0893 3.13148 10.6656 3.28978 10.2702C3.44808 9.87487 3.68011 9.51564 3.97261 9.21305C4.26512 8.91046 4.61237 8.67043 4.99455 8.50667C5.37672 8.34291 5.78634 8.25862 6.2 8.25862ZM2 23.1034C2 19.9037 4.50688 17.3103 7.6 17.3103C8.16 17.3103 8.7025 17.3963 9.21437 17.5547C7.775 19.2203 6.9 21.4198 6.9 23.8276V24.5517C6.9 25.0677 7.005 25.5565 7.19312 26H3.4C2.62562 26 2 25.3528 2 24.5517V23.1034ZM24.8069 26C24.995 25.5565 25.1 25.0677 25.1 24.5517V23.8276C25.1 21.4198 24.225 19.2203 22.7856 17.5547C23.2975 17.3963 23.84 17.3103 24.4 17.3103C27.4931 17.3103 30 19.9037 30 23.1034V24.5517C30 25.3528 29.3744 26 28.6 26H24.8069ZM22.65 11.5172C22.65 10.653 22.9819 9.82416 23.5726 9.21305C24.1634 8.60194 24.9646 8.25862 25.8 8.25862C26.6354 8.25862 27.4366 8.60194 28.0274 9.21305C28.6181 9.82416 28.95 10.653 28.95 11.5172C28.95 12.3815 28.6181 13.2103 28.0274 13.8214C27.4366 14.4325 26.6354 14.7759 25.8 14.7759C24.9646 14.7759 24.1634 14.4325 23.5726 13.8214C22.9819 13.2103 22.65 12.3815 22.65 11.5172ZM9 23.8276C9 19.8267 12.1325 16.5862 16 16.5862C19.8675 16.5862 23 19.8267 23 23.8276V24.5517C23 25.3528 22.3744 26 21.6 26H10.4C9.62562 26 9 25.3528 9 24.5517V23.8276Z" fill="#363946" fill-opacity="0.4"/>
</svg>
