<svg width="72" height="72" viewBox="0 0 72 72" fill="none" xmlns="http://www.w3.org/2000/svg">
<path d="M8 72C5.8 72 3.91733 71.2173 2.352 69.652C0.786667 68.0867 0.00266667 66.2027 0 64V8C0 5.8 0.784 3.91733 2.352 2.352C3.92 0.786667 5.80267 0.00266667 8 0H64C66.2 0 68.084 0.784 69.652 2.352C71.22 3.92 72.0027 5.80267 72 8V64C72 66.2 71.2173 68.084 69.652 69.652C68.0867 71.22 66.2027 72.0027 64 72H8ZM16 56H56C56.8 56 57.4 55.6333 57.8 54.9C58.2 54.1667 58.1333 53.4667 57.6 52.8L46.6 38.1C46.2 37.5667 45.6667 37.3 45 37.3C44.3333 37.3 43.8 37.5667 43.4 38.1L33 52L25.6 42.1C25.2 41.5667 24.6667 41.3 24 41.3C23.3333 41.3 22.8 41.5667 22.4 42.1L14.4 52.8C13.8667 53.4667 13.8 54.1667 14.2 54.9C14.6 55.6333 15.2 56 16 56Z" fill="#E3DECE"/>
</svg>
