<svg width="15" height="15" viewBox="0 0 15 15" fill="none" xmlns="http://www.w3.org/2000/svg">
<path d="M14.0267 8.28634C13.8694 9.4863 13.3883 10.6208 12.6352 11.5681C11.8821 12.5155 10.8853 13.24 9.75171 13.6639C8.61813 14.0878 7.39055 14.1951 6.20062 13.9743C5.01068 13.7536 3.90329 13.2131 2.9972 12.4108C2.0911 11.6085 1.4205 10.5747 1.0573 9.42022C0.694096 8.26576 0.652003 7.03422 0.935532 5.85766C1.21906 4.68111 1.81752 3.60392 2.66672 2.74164C3.51591 1.87935 4.58382 1.26449 5.7559 0.963007C9.00507 0.129674 12.3684 1.80217 13.6101 4.91884" stroke="#7E8089" stroke-width="1.5" stroke-linecap="round" stroke-linejoin="round"/>
<path d="M14.0807 0.752197V4.91886H9.91406" stroke="#7E8089" stroke-width="1.5" stroke-linecap="round" stroke-linejoin="round"/>
</svg>
