<svg width="40" height="40" viewBox="0 0 40 40" fill="none" xmlns="http://www.w3.org/2000/svg">
<rect x="0.5" y="0.5" width="39" height="39" rx="19.5" stroke="black" stroke-opacity="0.08"/>
<path d="M13.3848 16.3695C13.6315 16.1329 13.9659 16 14.3145 16C14.6632 16 14.9976 16.1329 15.2443 16.3695L20.0158 20.9518L24.7874 16.3695C25.0368 16.1463 25.3667 16.0248 25.7075 16.0306C26.0484 16.0364 26.3736 16.169 26.6146 16.4005C26.8557 16.632 26.9938 16.9443 26.9998 17.2716C27.0058 17.599 26.8793 17.9158 26.6469 18.1553L20.9456 23.6305C20.6989 23.8671 20.3645 24 20.0158 24C19.6672 24 19.3328 23.8671 19.0861 23.6305L13.3848 18.1553C13.1384 17.9184 13 17.5972 13 17.2624C13 16.9276 13.1384 16.6064 13.3848 16.3695Z" fill="#363946" fill-opacity="0.64"/>
</svg>
