<svg width="24" height="24" viewBox="0 0 24 24" fill="none" xmlns="http://www.w3.org/2000/svg">
<mask id="mask0_14374_1053" style="mask-type:luminance" maskUnits="userSpaceOnUse" x="2" y="4" width="20" height="16">
<path d="M14.0002 4H10.0002C6.22925 4 4.34325 4 3.17225 5.172C2.32825 6.015 2.09225 7.229 2.02625 9.25H21.9743C21.9083 7.229 21.6722 6.015 20.8282 5.172C19.6572 4 17.7712 4 14.0002 4ZM10.0002 20H14.0002C17.7712 20 19.6572 20 20.8282 18.828C21.9992 17.656 22.0002 15.771 22.0002 12C22.0002 11.5587 21.9996 11.142 21.9982 10.75H2.00225C2.00025 11.142 1.99958 11.5587 2.00025 12C2.00025 15.771 2.00025 17.657 3.17225 18.828C4.34425 19.999 6.22925 20 10.0002 20Z" fill="white"/>
<path fill-rule="evenodd" clip-rule="evenodd" d="M5.25 16C5.25 15.8011 5.32902 15.6103 5.46967 15.4697C5.61032 15.329 5.80109 15.25 6 15.25H10C10.1989 15.25 10.3897 15.329 10.5303 15.4697C10.671 15.6103 10.75 15.8011 10.75 16C10.75 16.1989 10.671 16.3897 10.5303 16.5303C10.3897 16.671 10.1989 16.75 10 16.75H6C5.80109 16.75 5.61032 16.671 5.46967 16.5303C5.32902 16.3897 5.25 16.1989 5.25 16ZM11.75 16C11.75 15.8011 11.829 15.6103 11.9697 15.4697C12.1103 15.329 12.3011 15.25 12.5 15.25H14C14.1989 15.25 14.3897 15.329 14.5303 15.4697C14.671 15.6103 14.75 15.8011 14.75 16C14.75 16.1989 14.671 16.3897 14.5303 16.5303C14.3897 16.671 14.1989 16.75 14 16.75H12.5C12.3011 16.75 12.1103 16.671 11.9697 16.5303C11.829 16.3897 11.75 16.1989 11.75 16Z" fill="black"/>
</mask>
<g mask="url(#mask0_14374_1053)">
<path d="M0 0H24V24H0V0Z" fill="url(#paint0_radial_14374_1053)"/>
</g>
<defs>
<radialGradient id="paint0_radial_14374_1053" cx="0" cy="0" r="1" gradientUnits="userSpaceOnUse" gradientTransform="translate(12.002 -0.307701) rotate(90) scale(29.5385 25.5481)">
<stop stop-color="#F6E07D"/>
<stop offset="1" stop-color="#B2802C"/>
</radialGradient>
</defs>
</svg>
