<svg width="32" height="32" viewBox="0 0 32 32" fill="none" xmlns="http://www.w3.org/2000/svg">
<g clip-path="url(#clip0_14188_2609)">
<path d="M16 0.5C19.7853 0.5 22.5744 0.500818 24.7119 0.788086C26.8352 1.07345 28.2408 1.63363 29.3027 2.69629C30.3661 3.75985 30.9264 5.16534 31.2119 7.28809C31.4994 9.42561 31.5 12.2147 31.5 16C31.5 19.7853 31.4994 22.5744 31.2119 24.7119C30.9264 26.8349 30.366 28.2398 29.3027 29.3018V29.3027C28.2399 30.3663 26.8339 30.9264 24.7109 31.2119C22.5737 31.4993 19.7851 31.5 16 31.5C12.2147 31.5 9.42638 31.4994 7.28906 31.2119C5.16648 30.9264 3.76074 30.3662 2.69629 29.3027C1.6335 28.2399 1.07344 26.8339 0.788086 24.7109C0.500868 22.5737 0.5 19.785 0.5 16C0.5 12.2147 0.500815 9.4264 0.788086 7.28906C1.07341 5.1663 1.63341 3.76075 2.69629 2.69629C3.75986 1.63351 5.16514 1.07344 7.28809 0.788086C9.42564 0.500802 12.2147 0.5 16 0.5Z" stroke="black" stroke-opacity="0.08"/>
<path d="M7 10H25M7 16H17M7 22H22" stroke="#B7B9BD" stroke-width="2" stroke-linecap="round"/>
</g>
<defs>
<clipPath id="clip0_14188_2609">
<rect width="32" height="32" fill="white"/>
</clipPath>
</defs>
</svg>
