<svg width="20" height="20" viewBox="0 0 20 20" fill="none" xmlns="http://www.w3.org/2000/svg">
<path d="M16.152 9.4937H6.8437L10.9104 5.42704C11.2354 5.10204 11.2354 4.5687 10.9104 4.2437C10.8333 4.16645 10.7417 4.10516 10.6409 4.06334C10.5401 4.02152 10.432 4 10.3229 4C10.2137 4 10.1057 4.02152 10.0049 4.06334C9.90404 4.10516 9.81247 4.16645 9.73537 4.2437L4.2437 9.73537C4.16645 9.81247 4.10516 9.90404 4.06334 10.0049C4.02153 10.1057 4 10.2137 4 10.3229C4 10.432 4.02153 10.5401 4.06334 10.6409C4.10516 10.7417 4.16645 10.8333 4.2437 10.9104L9.73537 16.402C9.81252 16.4792 9.90411 16.5404 10.0049 16.5821C10.1057 16.6239 10.2138 16.6454 10.3229 16.6454C10.432 16.6454 10.54 16.6239 10.6408 16.5821C10.7416 16.5404 10.8332 16.4792 10.9104 16.402C10.9875 16.3249 11.0487 16.2333 11.0905 16.1325C11.1322 16.0317 11.1537 15.9236 11.1537 15.8145C11.1537 15.7054 11.1322 15.5974 11.0905 15.4966C11.0487 15.3958 10.9875 15.3042 10.9104 15.227L6.8437 11.1604H16.152C16.6104 11.1604 16.9854 10.7854 16.9854 10.327C16.9854 9.8687 16.6104 9.4937 16.152 9.4937Z" fill="black"/>
</svg>
