<svg width="20" height="20" viewBox="0 0 20 20" fill="none" xmlns="http://www.w3.org/2000/svg">
<path d="M3.84796 9.4937H13.1563L9.08963 5.42704C8.76463 5.10204 8.76463 4.5687 9.08963 4.2437C9.16672 4.16645 9.2583 4.10516 9.35911 4.06334C9.45992 4.02152 9.56799 4 9.67713 4C9.78627 4 9.89434 4.02152 9.99515 4.06334C10.096 4.10516 10.1875 4.16645 10.2646 4.2437L15.7563 9.73537C15.8335 9.81247 15.8948 9.90404 15.9367 10.0049C15.9785 10.1057 16 10.2137 16 10.3229C16 10.432 15.9785 10.5401 15.9367 10.6409C15.8948 10.7417 15.8335 10.8333 15.7563 10.9104L10.2646 16.402C10.1875 16.4792 10.0959 16.5404 9.99508 16.5821C9.89428 16.6239 9.78624 16.6454 9.67713 16.6454C9.56802 16.6454 9.45998 16.6239 9.35918 16.5821C9.25837 16.5404 9.16678 16.4792 9.08963 16.402C9.01248 16.3249 8.95128 16.2333 8.90952 16.1325C8.86777 16.0317 8.84628 15.9236 8.84628 15.8145C8.84628 15.7054 8.86777 15.5974 8.90952 15.4966C8.95128 15.3958 9.01248 15.3042 9.08963 15.227L13.1563 11.1604H3.84796C3.38963 11.1604 3.01463 10.7854 3.01463 10.327C3.01463 9.8687 3.38963 9.4937 3.84796 9.4937Z" fill="#030303"/>
</svg>
