<svg width="20" height="20" viewBox="0 0 20 20" fill="none" xmlns="http://www.w3.org/2000/svg">
<path d="M5.95996 3.45923C6.35045 3.06915 6.98361 3.06904 7.37402 3.45923C7.76426 3.84964 7.76412 4.48279 7.37402 4.87329L4.91309 7.33325H9.16699C14.3215 7.33343 18.4998 11.5118 18.5 16.6663V17.5002C18.4998 18.0524 18.0522 18.5002 17.5 18.5002C16.9478 18.5002 16.5002 18.0524 16.5 17.5002V16.6663C16.4998 12.6163 13.2169 9.33343 9.16699 9.33325H4.91504L7.37402 11.7922C7.76437 12.1826 7.76401 12.8157 7.37402 13.2063C6.9835 13.5968 6.35049 13.5968 5.95996 13.2063L1.79297 9.04028C1.75523 9.00252 1.72185 8.96203 1.69141 8.92017C1.6836 8.90942 1.67535 8.899 1.66797 8.88794C1.6389 8.8444 1.61428 8.79883 1.59277 8.7522C1.57379 8.71114 1.55632 8.66908 1.54297 8.62524C1.52656 8.5712 1.51585 8.51584 1.50879 8.46021C1.50352 8.41863 1.5 8.37626 1.5 8.33325C1.50001 8.24082 1.51363 8.15161 1.53711 8.06665C1.53942 8.0583 1.54044 8.04956 1.54297 8.04126C1.55792 7.9922 1.57763 7.9452 1.59961 7.89966C1.61959 7.8582 1.64194 7.8175 1.66797 7.77856C1.70461 7.72372 1.7465 7.67269 1.79297 7.62622L5.95996 3.45923Z" fill="#030303"/>
</svg>
