<svg width="56" height="56" viewBox="0 0 56 56" fill="none" xmlns="http://www.w3.org/2000/svg">
<rect width="56" height="56" rx="28" fill="#363946" fill-opacity="0.64"/>
<path d="M19.7247 36.24C18.8607 36.24 18.0367 36.136 17.2527 35.928C16.4847 35.704 15.7967 35.368 15.1887 34.92C14.5807 34.472 14.0927 33.92 13.7247 33.264C13.3727 32.608 13.1887 31.832 13.1727 30.936C13.1727 30.792 13.2207 30.672 13.3167 30.576C13.4127 30.464 13.5327 30.408 13.6767 30.408H15.9567C16.1647 30.408 16.3167 30.464 16.4127 30.576C16.5247 30.688 16.6127 30.84 16.6767 31.032C16.7567 31.608 16.9407 32.08 17.2287 32.448C17.5167 32.8 17.8767 33.064 18.3087 33.24C18.7567 33.4 19.2527 33.48 19.7967 33.48C20.8047 33.48 21.5727 33.152 22.1007 32.496C22.6447 31.84 22.9167 30.928 22.9167 29.76V22.032H14.7807C14.6047 22.032 14.4607 21.976 14.3487 21.864C14.2527 21.752 14.2047 21.616 14.2047 21.456V19.776C14.2047 19.616 14.2527 19.48 14.3487 19.368C14.4607 19.256 14.6047 19.2 14.7807 19.2H25.7487C25.9247 19.2 26.0687 19.256 26.1807 19.368C26.2927 19.48 26.3488 19.624 26.3488 19.8V29.856C26.3488 31.184 26.0687 32.328 25.5087 33.288C24.9647 34.248 24.1967 34.984 23.2047 35.496C22.2287 35.992 21.0687 36.24 19.7247 36.24ZM29.573 36C29.413 36 29.277 35.944 29.165 35.832C29.053 35.72 28.997 35.584 28.997 35.424V19.8C28.997 19.624 29.053 19.48 29.165 19.368C29.277 19.256 29.413 19.2 29.573 19.2H35.429C37.045 19.2 38.373 19.448 39.413 19.944C40.469 20.44 41.261 21.176 41.789 22.152C42.333 23.128 42.613 24.32 42.629 25.728C42.661 26.432 42.677 27.056 42.677 27.6C42.677 28.144 42.661 28.76 42.629 29.448C42.597 30.936 42.325 32.168 41.813 33.144C41.301 34.104 40.525 34.824 39.485 35.304C38.461 35.768 37.149 36 35.549 36H29.573ZM32.333 33.24H35.429C36.325 33.24 37.053 33.112 37.613 32.856C38.173 32.6 38.581 32.192 38.837 31.632C39.109 31.056 39.253 30.304 39.269 29.376C39.285 28.896 39.293 28.48 39.293 28.128C39.309 27.76 39.309 27.4 39.293 27.048C39.293 26.68 39.285 26.264 39.269 25.8C39.237 24.488 38.909 23.52 38.285 22.896C37.661 22.272 36.669 21.96 35.309 21.96H32.333V33.24Z" fill="white"/>
</svg>
