<svg width="24" height="24" viewBox="0 0 24 24" fill="none" xmlns="http://www.w3.org/2000/svg">
<path d="M5.85729 8.36952C6.08636 8.1329 6.39688 8 6.72063 8C7.04439 8 7.3549 8.1329 7.58397 8.36952L12.0147 12.9518L16.4454 8.36952C16.677 8.14633 16.9833 8.02483 17.2998 8.0306C17.6163 8.03638 17.9183 8.16898 18.1422 8.40048C18.366 8.63198 18.4942 8.94429 18.4998 9.27162C18.5054 9.59896 18.3879 9.91576 18.1721 10.1553L12.878 15.6305C12.649 15.8671 12.3385 16 12.0147 16C11.6909 16 11.3804 15.8671 11.1514 15.6305L5.85729 10.1553C5.62851 9.91837 5.5 9.59723 5.5 9.2624C5.5 8.92757 5.62851 8.60643 5.85729 8.36952Z" fill="#363946" fill-opacity="0.64"/>
</svg>
