<svg width="53" height="43" viewBox="0 0 53 43" fill="none" xmlns="http://www.w3.org/2000/svg">
<path d="M37.2764 13.3662C46.251 13.9164 53.3259 20.2582 53.3262 27.9912C53.3262 31.2161 52.1013 34.1918 50.0264 36.6084C50.318 37.3833 50.7507 38.0837 51.209 38.667C51.6089 39.1836 52.0174 39.5834 52.3174 39.8584C52.4674 40.0001 52.5924 40.1003 52.6758 40.167C52.7174 40.2003 52.7509 40.2167 52.7676 40.2334L52.7842 40.25C53.2507 40.5916 53.4424 41.1913 53.2676 41.7412C53.0926 42.2912 52.576 42.667 52.001 42.667C50.1844 42.667 48.3511 42.2 46.8262 41.625C46.0595 41.3333 45.3506 41.0081 44.7256 40.6748C42.159 41.9414 39.1842 42.667 36.001 42.667C28.0345 42.667 21.3181 38.1168 19.293 31.917C24.42 31.4758 29.127 29.328 32.4473 26.0381L34.4102 28L30.4316 31.9775C30.3243 32.0813 30.2386 32.2056 30.1797 32.3428C30.1208 32.4801 30.0901 32.628 30.0889 32.7773C30.0876 32.9267 30.1162 33.0747 30.1729 33.2129C30.2295 33.3511 30.3133 33.4765 30.4189 33.582C30.5246 33.6876 30.6498 33.7716 30.7881 33.8281C30.9263 33.8846 31.0744 33.9125 31.2236 33.9111C31.373 33.9098 31.521 33.8793 31.6582 33.8203C31.7954 33.7613 31.9197 33.6749 32.0234 33.5674L36 29.5908L39.9766 33.5684C40.1875 33.7793 40.4741 33.8984 40.7725 33.8984C41.0709 33.8984 41.3573 33.7794 41.5684 33.5684C41.7794 33.3573 41.8984 33.0709 41.8984 32.7725C41.8984 32.4741 41.7793 32.1875 41.5684 31.9766L37.5898 28L41.5674 24.0225C41.6718 23.918 41.755 23.7937 41.8115 23.6572C41.868 23.5208 41.8975 23.3743 41.8975 23.2266C41.8974 23.0789 41.8681 22.9323 41.8115 22.7959C41.755 22.6596 41.6717 22.536 41.5674 22.4316C41.4629 22.3272 41.3387 22.244 41.2021 22.1875C41.0657 22.131 40.9192 22.1015 40.7715 22.1016C40.6238 22.1016 40.4772 22.131 40.3408 22.1875C40.2045 22.244 40.0809 22.3273 39.9766 22.4316L36 26.4092L33.9463 24.3555C36.0704 21.6347 37.3339 18.3275 37.334 14.667L37.3262 14.6582C37.3262 14.2249 37.3097 13.7912 37.2764 13.3662ZM17.334 0C26.909 0 34.668 6.56699 34.668 14.667C34.6678 22.7668 26.9089 29.333 17.334 29.333C14.1508 29.333 11.1759 28.6084 8.60938 27.3418C7.99279 27.6751 7.27632 28.0004 6.50977 28.292C4.98477 28.867 3.15065 29.333 1.33398 29.333C0.759114 29.3329 0.250683 28.9498 0.0673828 28.4082C-0.115838 27.8666 0.0846899 27.2664 0.542969 26.9248L0.55957 26.9082C0.576325 26.8997 0.609923 26.875 0.651367 26.8418C0.7347 26.7751 0.859874 26.6664 1.00977 26.5332C1.30968 26.2583 1.7174 25.8581 2.11719 25.3418C2.57552 24.7585 3.00911 24.0665 3.30078 23.2832C1.22594 20.8583 0.00105909 17.8835 0.000976562 14.667C0.000976562 6.56708 7.75913 0.000144329 17.334 0ZM12.2236 9.08789C12.0743 9.08652 11.9254 9.11537 11.7871 9.17188C11.649 9.22835 11.5235 9.31156 11.418 9.41699C11.3123 9.52251 11.2285 9.64799 11.1719 9.78613C11.1153 9.92422 11.0867 10.0725 11.0879 10.2217C11.0891 10.371 11.1199 10.519 11.1787 10.6562C11.2376 10.7934 11.3234 10.9177 11.4307 11.0215L15.4102 15L11.4316 18.9775C11.3243 19.0813 11.2386 19.2056 11.1797 19.3428C11.1208 19.4801 11.0901 19.628 11.0889 19.7773C11.0876 19.9267 11.1162 20.0747 11.1729 20.2129C11.2295 20.3511 11.3133 20.4765 11.4189 20.582C11.5246 20.6876 11.6498 20.7716 11.7881 20.8281C11.9263 20.8846 12.0744 20.9125 12.2236 20.9111C12.373 20.9098 12.521 20.8793 12.6582 20.8203C12.7954 20.7613 12.9197 20.6749 13.0234 20.5674L17 16.5908L20.9766 20.5684C21.1876 20.7793 21.4741 20.8984 21.7725 20.8984C22.0709 20.8984 22.3573 20.7794 22.5684 20.5684C22.7794 20.3573 22.8984 20.0709 22.8984 19.7725C22.8984 19.4741 22.7793 19.1875 22.5684 18.9766L18.5898 15L22.5674 11.0225C22.6718 10.918 22.755 10.7937 22.8115 10.6572C22.868 10.5208 22.8975 10.3743 22.8975 10.2266C22.8974 10.0789 22.8681 9.93231 22.8115 9.7959C22.755 9.65959 22.6717 9.53599 22.5674 9.43164C22.4629 9.32719 22.3387 9.24401 22.2021 9.1875C22.0657 9.13102 21.9192 9.10153 21.7715 9.10156C21.6238 9.10162 21.4772 9.13095 21.3408 9.1875C21.2045 9.24403 21.0809 9.32729 20.9766 9.43164L17 13.4092L13.0225 9.43164C12.9187 9.32416 12.7944 9.2387 12.6572 9.17969C12.5202 9.12074 12.3728 9.08932 12.2236 9.08789Z" fill="#363946" fill-opacity="0.4"/>
</svg>
