<svg width="17" height="19" viewBox="0 0 17 19" fill="none" xmlns="http://www.w3.org/2000/svg">
<path d="M3.25 8.25C3.25 5.89333 3.25 4.71417 3.9825 3.9825C4.71417 3.25 5.89333 3.25 8.25 3.25H10.75C13.1067 3.25 14.2858 3.25 15.0175 3.9825C15.75 4.71417 15.75 5.89333 15.75 8.25V12.4167C15.75 14.7733 15.75 15.9525 15.0175 16.6842C14.2858 17.4167 13.1067 17.4167 10.75 17.4167H8.25C5.89333 17.4167 4.71417 17.4167 3.9825 16.6842C3.25 15.9525 3.25 14.7733 3.25 12.4167V8.25Z" stroke="#262626" stroke-width="1.5"/>
<path d="M3.25 14.9167C2.58696 14.9167 1.95107 14.6533 1.48223 14.1844C1.01339 13.7156 0.75 13.0797 0.75 12.4167V7.41667C0.75 4.27417 0.75 2.7025 1.72667 1.72667C2.70333 0.750833 4.27417 0.75 7.41667 0.75H10.75C11.413 0.75 12.0489 1.01339 12.5178 1.48223C12.9866 1.95107 13.25 2.58696 13.25 3.25" stroke="#262626" stroke-width="1.5"/>
</svg>
