<svg width="20" height="20" viewBox="0 0 20 20" fill="none" xmlns="http://www.w3.org/2000/svg">
<path d="M17.0828 5H2.91602" stroke="#030303" stroke-width="1.5" stroke-linecap="round"/>
<path d="M15.6955 7.08334L15.3122 12.8326C15.1647 15.045 15.091 16.1512 14.3702 16.8256C13.6493 17.5 12.5407 17.5 10.3233 17.5H9.67885C7.46152 17.5 6.35285 17.5 5.63201 16.8256C4.91117 16.1512 4.83742 15.045 4.68992 12.8326L4.30664 7.08334" stroke="#030303" stroke-width="1.5" stroke-linecap="round"/>
<path d="M7.91602 9.16666L8.33268 13.3333" stroke="#030303" stroke-width="1.5" stroke-linecap="round"/>
<path d="M12.0827 9.16666L11.666 13.3333" stroke="#030303" stroke-width="1.5" stroke-linecap="round"/>
<path d="M5.41602 5C5.46258 5 5.48587 5 5.50697 4.99947C6.19318 4.98208 6.79854 4.54576 7.03203 3.90027C7.03921 3.88041 7.04657 3.85832 7.0613 3.81415L7.14221 3.57143C7.21127 3.36423 7.24581 3.26063 7.29161 3.17267C7.47436 2.82173 7.81247 2.57803 8.20319 2.51564C8.30112 2.5 8.41033 2.5 8.62873 2.5H11.37C11.5884 2.5 11.6976 2.5 11.7955 2.51564C12.1862 2.57803 12.5243 2.82173 12.7071 3.17267C12.7529 3.26063 12.7874 3.36423 12.8565 3.57143L12.9374 3.81415C12.9521 3.85826 12.9595 3.88042 12.9667 3.90027C13.2002 4.54576 13.8055 4.98208 14.4917 4.99947C14.5128 5 14.5361 5 14.5827 5" stroke="#030303" stroke-width="1.5"/>
</svg>
