<svg width="28" height="28" viewBox="0 0 28 28" fill="none" xmlns="http://www.w3.org/2000/svg">
<path d="M14.0002 0.333313C11.2972 0.333313 8.65485 1.13485 6.40738 2.63656C4.1599 4.13827 2.40821 6.27272 1.37382 8.76997C0.339418 11.2672 0.0687721 14.0151 0.596103 16.6662C1.12343 19.3173 2.42506 21.7525 4.33638 23.6638C6.24769 25.5751 8.68286 26.8767 11.3339 27.404C13.985 27.9314 16.7329 27.6607 19.2302 26.6263C21.7274 25.5919 23.8619 23.8402 25.3636 21.5928C26.8653 19.3453 27.6668 16.703 27.6668 14C27.6633 10.3764 26.2223 6.90232 23.6601 4.34009C21.0978 1.77785 17.6237 0.336843 14.0002 0.333313ZM15.0002 21.6666V22.72C15.0002 22.9852 14.8948 23.2395 14.7073 23.4271C14.5197 23.6146 14.2654 23.72 14.0002 23.72C13.735 23.72 13.4806 23.6146 13.2931 23.4271C13.1055 23.2395 13.0002 22.9852 13.0002 22.72V21.6666C12.1313 21.5367 11.3173 21.1621 10.6535 20.5866C10.1797 20.1894 9.78949 19.7019 9.50566 19.1526C9.22184 18.6032 9.05001 18.003 9.00017 17.3866C8.98329 17.1896 9.0252 16.9921 9.12058 16.8189C9.21597 16.6457 9.36056 16.5047 9.53608 16.4136C9.71159 16.3226 9.91016 16.2856 10.1067 16.3074C10.3032 16.3292 10.4888 16.4087 10.6402 16.536C10.8443 16.7059 10.9736 16.9491 11.0002 17.2133C11.0257 17.5699 11.1226 17.9178 11.2852 18.2361C11.4479 18.5545 11.6729 18.837 11.9468 19.0666C12.4978 19.5376 13.21 19.7766 13.9335 19.7333C16.0135 19.7333 17.0002 18.9333 17.0002 17.3066C17.0002 16.2266 16.0535 15.0666 14.0002 15.0666C9.6535 15.0666 9.00017 12.4 9.00017 10.8666C9.03571 9.91045 9.36432 8.98829 9.94148 8.22509C10.5186 7.4619 11.3165 6.89458 12.2268 6.59998C12.4802 6.52176 12.7379 6.46398 13.0002 6.42665V5.38665C13.0002 5.12143 13.1055 4.86708 13.2931 4.67954C13.4806 4.492 13.735 4.38665 14.0002 4.38665C14.2654 4.38665 14.5197 4.492 14.7073 4.67954C14.8948 4.86708 15.0002 5.12143 15.0002 5.38665V6.46665C16.0469 6.64123 17.0067 7.15684 17.7301 7.93329C18.4535 8.70975 18.9 9.7035 19.0002 10.76C19.0111 11.015 18.9241 11.2646 18.757 11.4576C18.5899 11.6506 18.3553 11.7723 18.1013 11.7979C17.8472 11.8235 17.5931 11.7509 17.3908 11.5951C17.1886 11.4393 17.0536 11.2121 17.0135 10.96C16.9394 10.2364 16.5917 9.56839 16.0415 9.09257C15.4914 8.61674 14.7802 8.369 14.0535 8.39998H13.8135C13.4887 8.39742 13.1653 8.44234 12.8535 8.53331C12.5123 8.64459 12.1971 8.82358 11.9268 9.05955C11.6565 9.29553 11.4365 9.58365 11.2802 9.90665C11.1198 10.2262 11.0289 10.5761 11.0135 10.9333C11.0135 12.0266 11.3735 13.0933 14.0135 13.0933C17.2935 13.0933 19.0135 15.2266 19.0135 17.3333C19.0313 17.8823 18.9398 18.4294 18.7443 18.9427C18.5489 19.456 18.2534 19.9254 17.8751 20.3236C17.4967 20.7218 17.0431 21.0409 16.5404 21.2623C16.0377 21.4837 15.496 21.603 14.9468 21.6133L15.0002 21.6666Z" fill="#B7B9BD"/>
</svg>
