<svg width="28" height="22" viewBox="0 0 28 22" fill="none" xmlns="http://www.w3.org/2000/svg">
<path d="M23.3337 0.333496H4.66699C3.60613 0.333496 2.58871 0.754924 1.83857 1.50507C1.08842 2.25521 0.666992 3.27263 0.666992 4.3335V17.6668C0.666992 18.7277 1.08842 19.7451 1.83857 20.4953C2.58871 21.2454 3.60613 21.6668 4.66699 21.6668H23.3337C24.3945 21.6668 25.4119 21.2454 26.1621 20.4953C26.9122 19.7451 27.3337 18.7277 27.3337 17.6668V4.3335C27.3337 3.27263 26.9122 2.25521 26.1621 1.50507C25.4119 0.754924 24.3945 0.333496 23.3337 0.333496ZM23.3337 3.00016L14.667 8.96016C14.4643 9.07719 14.2344 9.1388 14.0003 9.1388C13.7663 9.1388 13.5364 9.07719 13.3337 8.96016L4.66699 3.00016H23.3337Z" fill="#363946" fill-opacity="0.64"/>
</svg>
