<svg width="22" height="16" viewBox="0 0 22 16" fill="none" xmlns="http://www.w3.org/2000/svg">
<path d="M11.0002 0C15.2902 0 18.8632 2.429 21.6652 7.154L21.8852 7.533L21.9302 7.633L21.9602 7.716L21.9742 7.771L21.9882 7.853L21.9992 7.953V8.063L21.9852 8.174C21.9786 8.21113 21.9699 8.24785 21.9592 8.284L21.9202 8.392L21.8842 8.467L21.8682 8.497C19.1042 13.333 15.5682 15.877 11.3132 15.996L11.0002 16C6.60417 16 2.96317 13.451 0.132166 8.496C0.0458753 8.34494 0.000488281 8.17397 0.000488281 8C0.000488281 7.82603 0.0458753 7.65506 0.132166 7.504C2.96317 2.549 6.60417 0 11.0002 0ZM11.0002 5C10.2045 5 9.44145 5.31607 8.87885 5.87868C8.31624 6.44129 8.00017 7.20435 8.00017 8C8.00017 8.79565 8.31624 9.55871 8.87885 10.1213C9.44145 10.6839 10.2045 11 11.0002 11C11.7958 11 12.5589 10.6839 13.1215 10.1213C13.6841 9.55871 14.0002 8.79565 14.0002 8C14.0002 7.20435 13.6841 6.44129 13.1215 5.87868C12.5589 5.31607 11.7958 5 11.0002 5Z" fill="#363946" fill-opacity="0.64"/>
</svg>
