<svg width="20" height="20" viewBox="0 0 20 20" fill="none" xmlns="http://www.w3.org/2000/svg">
<path d="M1.66602 6.66667V5.20833C1.66602 4.49004 1.95136 3.80116 2.45927 3.29325C2.96718 2.78534 3.65605 2.5 4.37435 2.5H6.77351C7.27051 2.50022 7.74708 2.69774 8.09851 3.04917L9.37435 4.32417L7.21518 6.48333C7.09808 6.60058 6.93922 6.66652 6.77351 6.66667H1.66602ZM1.66602 7.91667V14.7917C1.66602 15.51 1.95136 16.1988 2.45927 16.7067C2.96718 17.2147 3.65605 17.5 4.37435 17.5H15.6243C15.98 17.5 16.3322 17.4299 16.6608 17.2938C16.9894 17.1577 17.2879 16.9582 17.5394 16.7067C17.7909 16.4553 17.9904 16.1567 18.1265 15.8281C18.2626 15.4995 18.3327 15.1473 18.3327 14.7917V7.29167C18.3327 6.936 18.2626 6.58382 18.1265 6.25523C17.9904 5.92664 17.7909 5.62808 17.5394 5.37659C17.2879 5.12509 16.9894 4.9256 16.6608 4.78949C16.3322 4.65339 15.98 4.58333 15.6243 4.58333H10.8827L8.09935 7.3675C7.92524 7.54161 7.71854 7.67972 7.49105 7.77395C7.26356 7.86817 7.01974 7.91667 6.77351 7.91667H1.66602Z" fill="black"/>
</svg>
