<svg width="395" height="359" viewBox="0 0 395 359" fill="none" xmlns="http://www.w3.org/2000/svg">
<g filter="url(#filter0_d_14661_7270)">
<rect x="18" y="11" width="365" height="329" rx="20" fill="white" shape-rendering="crispEdges"/>
<rect x="18.5" y="11.5" width="364" height="328" rx="19.5" stroke="black" stroke-opacity="0.08" shape-rendering="crispEdges"/>
<path d="M46.1268 57.18C45.3228 57.18 44.5788 57.024 43.8948 56.712C43.2228 56.4 42.6708 55.95 42.2388 55.362L43.5708 53.76C43.9188 54.24 44.2968 54.6 44.7048 54.84C45.1248 55.08 45.5808 55.2 46.0728 55.2C47.3808 55.2 48.0348 54.426 48.0348 52.878V46.362H43.5528V44.4H50.3748V52.752C50.3748 54.24 50.0088 55.35 49.2768 56.082C48.5568 56.814 47.5068 57.18 46.1268 57.18ZM56.789 57.126C55.973 57.126 55.253 56.976 54.629 56.676C54.005 56.364 53.519 55.896 53.171 55.272C52.823 54.636 52.649 53.838 52.649 52.878V47.388H54.899V52.572C54.899 53.436 55.091 54.084 55.475 54.516C55.871 54.936 56.429 55.146 57.149 55.146C57.677 55.146 58.133 55.038 58.517 54.822C58.913 54.606 59.219 54.282 59.435 53.85C59.663 53.418 59.777 52.884 59.777 52.248V47.388H62.027V57H59.885V54.408L60.263 55.2C59.939 55.824 59.465 56.304 58.841 56.64C58.217 56.964 57.533 57.126 56.789 57.126ZM69.7069 47.28C70.4749 47.28 71.1589 47.43 71.7589 47.73C72.3709 48.03 72.8509 48.492 73.1989 49.116C73.5469 49.728 73.7209 50.52 73.7209 51.492V57H71.4709V51.78C71.4709 50.928 71.2669 50.292 70.8589 49.872C70.4629 49.452 69.9049 49.242 69.1849 49.242C68.6569 49.242 68.1889 49.35 67.7809 49.566C67.3729 49.782 67.0549 50.106 66.8269 50.538C66.6109 50.958 66.5029 51.492 66.5029 52.14V57H64.2529V47.388H66.3949V49.98L66.0169 49.188C66.3529 48.576 66.8389 48.108 67.4749 47.784C68.1229 47.448 68.8669 47.28 69.7069 47.28ZM80.3908 57.126C79.3228 57.126 78.3868 56.916 77.5828 56.496C76.7908 56.064 76.1728 55.476 75.7288 54.732C75.2968 53.988 75.0808 53.142 75.0808 52.194C75.0808 51.234 75.2908 50.388 75.7108 49.656C76.1428 48.912 76.7308 48.33 77.4748 47.91C78.2308 47.49 79.0888 47.28 80.0488 47.28C80.9848 47.28 81.8188 47.484 82.5508 47.892C83.2828 48.3 83.8588 48.876 84.2788 49.62C84.6988 50.364 84.9088 51.24 84.9088 52.248C84.9088 52.344 84.9028 52.452 84.8908 52.572C84.8908 52.692 84.8848 52.806 84.8728 52.914H76.8628V51.42H83.6848L82.8028 51.888C82.8148 51.336 82.7008 50.85 82.4608 50.43C82.2208 50.01 81.8908 49.68 81.4708 49.44C81.0628 49.2 80.5888 49.08 80.0488 49.08C79.4968 49.08 79.0108 49.2 78.5908 49.44C78.1828 49.68 77.8588 50.016 77.6188 50.448C77.3908 50.868 77.2768 51.366 77.2768 51.942V52.302C77.2768 52.878 77.4088 53.388 77.6728 53.832C77.9368 54.276 78.3088 54.618 78.7888 54.858C79.2688 55.098 79.8208 55.218 80.4448 55.218C80.9848 55.218 81.4708 55.134 81.9028 54.966C82.3348 54.798 82.7188 54.534 83.0548 54.174L84.2608 55.56C83.8288 56.064 83.2828 56.454 82.6228 56.73C81.9748 56.994 81.2308 57.126 80.3908 57.126ZM89.7586 57V55.434L94.7626 50.682C95.1826 50.286 95.4946 49.938 95.6986 49.638C95.9026 49.338 96.0346 49.062 96.0946 48.81C96.1666 48.546 96.2026 48.3 96.2026 48.072C96.2026 47.496 96.0046 47.052 95.6086 46.74C95.2126 46.416 94.6306 46.254 93.8626 46.254C93.2506 46.254 92.6926 46.362 92.1886 46.578C91.6966 46.794 91.2706 47.124 90.9106 47.568L89.2726 46.308C89.7646 45.648 90.4246 45.138 91.2526 44.778C92.0926 44.406 93.0286 44.22 94.0606 44.22C94.9726 44.22 95.7646 44.37 96.4366 44.67C97.1206 44.958 97.6426 45.372 98.0026 45.912C98.3746 46.452 98.5606 47.094 98.5606 47.838C98.5606 48.246 98.5066 48.654 98.3986 49.062C98.2906 49.458 98.0866 49.878 97.7866 50.322C97.4866 50.766 97.0486 51.264 96.4726 51.816L92.1706 55.902L91.6846 55.02H99.0466V57H89.7586ZM104.933 57.18C103.937 57.18 103.037 56.928 102.233 56.424C101.441 55.92 100.817 55.188 100.361 54.228C99.9052 53.256 99.6772 52.08 99.6772 50.7C99.6772 49.32 99.9052 48.15 100.361 47.19C100.817 46.218 101.441 45.48 102.233 44.976C103.037 44.472 103.937 44.22 104.933 44.22C105.941 44.22 106.841 44.472 107.633 44.976C108.425 45.48 109.049 46.218 109.505 47.19C109.973 48.15 110.207 49.32 110.207 50.7C110.207 52.08 109.973 53.256 109.505 54.228C109.049 55.188 108.425 55.92 107.633 56.424C106.841 56.928 105.941 57.18 104.933 57.18ZM104.933 55.146C105.521 55.146 106.031 54.99 106.463 54.678C106.895 54.354 107.231 53.862 107.471 53.202C107.723 52.542 107.849 51.708 107.849 50.7C107.849 49.68 107.723 48.846 107.471 48.198C107.231 47.538 106.895 47.052 106.463 46.74C106.031 46.416 105.521 46.254 104.933 46.254C104.369 46.254 103.865 46.416 103.421 46.74C102.989 47.052 102.647 47.538 102.395 48.198C102.155 48.846 102.035 49.68 102.035 50.7C102.035 51.708 102.155 52.542 102.395 53.202C102.647 53.862 102.989 54.354 103.421 54.678C103.865 54.99 104.369 55.146 104.933 55.146ZM110.889 57V55.434L115.893 50.682C116.313 50.286 116.625 49.938 116.829 49.638C117.033 49.338 117.165 49.062 117.225 48.81C117.297 48.546 117.333 48.3 117.333 48.072C117.333 47.496 117.135 47.052 116.739 46.74C116.343 46.416 115.761 46.254 114.993 46.254C114.381 46.254 113.823 46.362 113.319 46.578C112.827 46.794 112.401 47.124 112.041 47.568L110.403 46.308C110.895 45.648 111.555 45.138 112.383 44.778C113.223 44.406 114.159 44.22 115.191 44.22C116.103 44.22 116.895 44.37 117.567 44.67C118.251 44.958 118.773 45.372 119.133 45.912C119.505 46.452 119.691 47.094 119.691 47.838C119.691 48.246 119.637 48.654 119.529 49.062C119.421 49.458 119.217 49.878 118.917 50.322C118.617 50.766 118.179 51.264 117.603 51.816L113.301 55.902L112.815 55.02H120.177V57H110.889ZM124.984 57.18C124.096 57.18 123.226 57.054 122.374 56.802C121.534 56.538 120.826 56.178 120.25 55.722L121.24 53.904C121.696 54.276 122.248 54.576 122.896 54.804C123.556 55.032 124.24 55.146 124.948 55.146C125.776 55.146 126.424 54.972 126.892 54.624C127.372 54.276 127.612 53.808 127.612 53.22C127.612 52.824 127.51 52.476 127.306 52.176C127.114 51.876 126.766 51.648 126.262 51.492C125.77 51.336 125.092 51.258 124.228 51.258H121.186L121.834 44.4H129.232V46.362H122.698L123.922 45.246L123.436 50.376L122.212 49.278H124.75C125.998 49.278 127 49.446 127.756 49.782C128.524 50.106 129.082 50.562 129.43 51.15C129.79 51.726 129.97 52.386 129.97 53.13C129.97 53.862 129.79 54.534 129.43 55.146C129.07 55.758 128.518 56.25 127.774 56.622C127.042 56.994 126.112 57.18 124.984 57.18Z" fill="#030303"/>
<rect x="279.5" y="35.5" width="31" height="31" rx="5.5" stroke="black" stroke-opacity="0.08"/>
<path d="M299.921 50.5949H292.474L295.728 47.3416C295.988 47.0816 295.988 46.6549 295.728 46.3949C295.666 46.3331 295.593 46.2841 295.512 46.2506C295.431 46.2172 295.345 46.2 295.258 46.2C295.17 46.2 295.084 46.2172 295.003 46.2506C294.922 46.2841 294.849 46.3331 294.788 46.3949L290.394 50.7882C290.332 50.8499 290.283 50.9232 290.25 51.0038C290.216 51.0845 290.199 51.1709 290.199 51.2582C290.199 51.3456 290.216 51.432 290.25 51.5127C290.283 51.5933 290.332 51.6666 290.394 51.7282L294.788 56.1216C294.849 56.1833 294.923 56.2323 295.003 56.2657C295.084 56.2991 295.17 56.3163 295.258 56.3163C295.345 56.3163 295.431 56.2991 295.512 56.2657C295.593 56.2323 295.666 56.1833 295.728 56.1216C295.789 56.0599 295.838 55.9866 295.872 55.9059C295.905 55.8253 295.922 55.7389 295.922 55.6516C295.922 55.5643 295.905 55.4779 295.872 55.3972C295.838 55.3166 295.789 55.2433 295.728 55.1816L292.474 51.9282H299.921C300.288 51.9282 300.588 51.6282 300.588 51.2616C300.588 50.8949 300.288 50.5949 299.921 50.5949Z" fill="#030303"/>
<rect width="32" height="32" rx="6" transform="matrix(-1 0 0 1 359 35)" fill="white"/>
<rect x="-0.5" y="0.5" width="31" height="31" rx="5.5" transform="matrix(-1 0 0 1 358 35)" stroke="black" stroke-opacity="0.08"/>
<path d="M338.079 50.5949H345.526L342.272 47.3416C342.012 47.0816 342.012 46.6549 342.272 46.3949C342.334 46.3331 342.407 46.2841 342.488 46.2506C342.569 46.2172 342.655 46.2 342.742 46.2C342.83 46.2 342.916 46.2172 342.997 46.2506C343.078 46.2841 343.151 46.3331 343.212 46.3949L347.606 50.7882C347.668 50.8499 347.717 50.9232 347.75 51.0038C347.784 51.0845 347.801 51.1709 347.801 51.2582C347.801 51.3456 347.784 51.432 347.75 51.5127C347.717 51.5933 347.668 51.6666 347.606 51.7282L343.212 56.1216C343.151 56.1833 343.077 56.2323 342.997 56.2657C342.916 56.2991 342.83 56.3163 342.742 56.3163C342.655 56.3163 342.569 56.2991 342.488 56.2657C342.407 56.2323 342.334 56.1833 342.272 56.1216C342.211 56.0599 342.162 55.9866 342.128 55.9059C342.095 55.8253 342.078 55.7389 342.078 55.6516C342.078 55.5643 342.095 55.4779 342.128 55.3972C342.162 55.3166 342.211 55.2433 342.272 55.1816L345.526 51.9282H338.079C337.712 51.9282 337.412 51.6282 337.412 51.2616C337.412 50.8949 337.712 50.5949 338.079 50.5949Z" fill="#030303"/>
<line x1="42" y1="74.6" x2="359" y2="74.6" stroke="#E4E5E7" stroke-width="0.8"/>
<path d="M46.949 94.7273H48.0002L50.4718 100.764H50.557L53.0286 94.7273H54.0797V102H53.2559V96.4744H53.1848L50.9121 102H50.1167L47.8439 96.4744H47.7729V102H46.949V94.7273ZM57.9478 102.114C57.4554 102.114 57.0233 101.996 56.6516 101.762C56.2823 101.528 55.9935 101.2 55.7852 100.778C55.5792 100.357 55.4762 99.8646 55.4762 99.3011C55.4762 98.733 55.5792 98.237 55.7852 97.8132C55.9935 97.3894 56.2823 97.0604 56.6516 96.826C57.0233 96.5916 57.4554 96.4744 57.9478 96.4744C58.4402 96.4744 58.8711 96.5916 59.2404 96.826C59.6121 97.0604 59.9009 97.3894 60.1069 97.8132C60.3152 98.237 60.4194 98.733 60.4194 99.3011C60.4194 99.8646 60.3152 100.357 60.1069 100.778C59.9009 101.2 59.6121 101.528 59.2404 101.762C58.8711 101.996 58.4402 102.114 57.9478 102.114ZM57.9478 101.361C58.3219 101.361 58.6296 101.265 58.8711 101.073C59.1126 100.881 59.2913 100.629 59.4073 100.317C59.5233 100.004 59.5813 99.6657 59.5813 99.3011C59.5813 98.9366 59.5233 98.5968 59.4073 98.282C59.2913 97.9671 59.1126 97.7126 58.8711 97.5185C58.6296 97.3243 58.3219 97.2273 57.9478 97.2273C57.5737 97.2273 57.266 97.3243 57.0245 97.5185C56.783 97.7126 56.6043 97.9671 56.4883 98.282C56.3723 98.5968 56.3143 98.9366 56.3143 99.3011C56.3143 99.6657 56.3723 100.004 56.4883 100.317C56.6043 100.629 56.783 100.881 57.0245 101.073C57.266 101.265 57.5737 101.361 57.9478 101.361Z" fill="#737373"/>
<path d="M99.0689 95.5085V94.7273H104.523V95.5085H102.237V102H101.356V95.5085H99.0689ZM110.655 94.7273H111.536V99.5426C111.536 100.04 111.419 100.484 111.184 100.874C110.952 101.263 110.625 101.569 110.201 101.794C109.777 102.017 109.28 102.128 108.709 102.128C108.139 102.128 107.642 102.017 107.218 101.794C106.794 101.569 106.465 101.263 106.231 100.874C105.999 100.484 105.883 100.04 105.883 99.5426V94.7273H106.763V99.4716C106.763 99.8267 106.841 100.143 106.998 100.42C107.154 100.694 107.376 100.911 107.665 101.07C107.956 101.226 108.305 101.304 108.709 101.304C109.114 101.304 109.462 101.226 109.753 101.07C110.045 100.911 110.267 100.694 110.421 100.42C110.577 100.143 110.655 99.8267 110.655 99.4716V94.7273Z" fill="#737373"/>
<path d="M147.467 102L145.479 94.7273H146.374L147.893 100.651H147.964L149.513 94.7273H150.507L152.055 100.651H152.126L153.646 94.7273H154.541L152.553 102H151.643L150.038 96.2045H149.982L148.376 102H147.467ZM155.638 102V94.7273H160.028V95.5085H156.519V97.9659H159.8V98.7472H156.519V101.219H160.085V102H155.638Z" fill="#737373"/>
<path d="M194.074 95.5085V94.7273H199.528V95.5085H197.241V102H196.361V95.5085H194.074ZM200.888 102V94.7273H201.768V97.9659H205.646V94.7273H206.527V102H205.646V98.7472H201.768V102H200.888Z" fill="#737373"/>
<path d="M242.748 102V94.7273H247.109V95.5085H243.629V97.9659H246.782V98.7472H243.629V102H242.748ZM248.617 102V94.7273H251.074C251.643 94.7273 252.109 94.8243 252.474 95.0185C252.838 95.2102 253.108 95.4742 253.283 95.8104C253.458 96.1465 253.546 96.5289 253.546 96.9574C253.546 97.3859 253.458 97.7659 253.283 98.0973C253.108 98.4287 252.839 98.6892 252.477 98.8786C252.115 99.0656 251.652 99.1591 251.089 99.1591H249.1V98.3636H251.06C251.448 98.3636 251.761 98.3068 251.998 98.1932C252.237 98.0795 252.41 97.9186 252.516 97.7102C252.625 97.4995 252.68 97.2486 252.68 96.9574C252.68 96.6662 252.625 96.4117 252.516 96.1939C252.407 95.9761 252.233 95.808 251.994 95.6896C251.755 95.5689 251.439 95.5085 251.046 95.5085H249.498V102H248.617ZM252.04 98.733L253.83 102H252.807L251.046 98.733H252.04Z" fill="#737373"/>
<path d="M293.791 96.5455C293.748 96.1856 293.575 95.9062 293.272 95.7074C292.969 95.5085 292.597 95.4091 292.157 95.4091C291.835 95.4091 291.553 95.4612 291.312 95.5653C291.073 95.6695 290.886 95.8127 290.751 95.995C290.618 96.1773 290.552 96.3845 290.552 96.6165C290.552 96.8106 290.598 96.9775 290.69 97.1172C290.785 97.2545 290.906 97.3693 291.053 97.4616C291.199 97.5516 291.353 97.6262 291.514 97.6854C291.675 97.7422 291.823 97.7884 291.958 97.8239L292.697 98.0227C292.886 98.0724 293.097 98.1411 293.329 98.2287C293.563 98.3163 293.787 98.4358 294 98.5874C294.216 98.7365 294.393 98.9283 294.533 99.1626C294.672 99.397 294.742 99.6847 294.742 100.026C294.742 100.419 294.639 100.774 294.433 101.091C294.23 101.408 293.931 101.66 293.538 101.847C293.148 102.034 292.673 102.128 292.114 102.128C291.594 102.128 291.143 102.044 290.761 101.876C290.383 101.708 290.084 101.473 289.867 101.173C289.651 100.872 289.529 100.523 289.501 100.125H290.41C290.434 100.4 290.526 100.627 290.687 100.807C290.85 100.984 291.056 101.117 291.305 101.205C291.556 101.29 291.826 101.332 292.114 101.332C292.451 101.332 292.752 101.278 293.02 101.169C293.287 101.058 293.499 100.904 293.656 100.707C293.812 100.509 293.89 100.277 293.89 100.011C293.89 99.7699 293.823 99.5734 293.688 99.4219C293.553 99.2704 293.375 99.1473 293.155 99.0526C292.935 98.9579 292.697 98.875 292.441 98.804L291.546 98.5483C290.978 98.3849 290.528 98.1518 290.197 97.8487C289.865 97.5457 289.7 97.1491 289.7 96.6591C289.7 96.2519 289.81 95.8968 290.03 95.5938C290.252 95.2884 290.551 95.0516 290.925 94.8835C291.301 94.7131 291.721 94.6278 292.185 94.6278C292.654 94.6278 293.071 94.7119 293.435 94.88C293.8 95.0457 294.089 95.273 294.302 95.5618C294.517 95.8506 294.631 96.1785 294.643 96.5455H293.791ZM296.489 102H295.565L298.236 94.7273H299.145L301.815 102H300.892L298.719 95.8778H298.662L296.489 102ZM296.829 99.1591H300.551V99.9403H296.829V99.1591Z" fill="#737373"/>
<path d="M340.963 96.5455C340.921 96.1856 340.748 95.9062 340.445 95.7074C340.142 95.5085 339.77 95.4091 339.33 95.4091C339.008 95.4091 338.726 95.4612 338.485 95.5653C338.246 95.6695 338.059 95.8127 337.924 95.995C337.791 96.1773 337.725 96.3845 337.725 96.6165C337.725 96.8106 337.771 96.9775 337.863 97.1172C337.958 97.2545 338.079 97.3693 338.225 97.4616C338.372 97.5516 338.526 97.6262 338.687 97.6854C338.848 97.7422 338.996 97.7884 339.131 97.8239L339.87 98.0227C340.059 98.0724 340.27 98.1411 340.502 98.2287C340.736 98.3163 340.96 98.4358 341.173 98.5874C341.388 98.7365 341.566 98.9283 341.706 99.1626C341.845 99.397 341.915 99.6847 341.915 100.026C341.915 100.419 341.812 100.774 341.606 101.091C341.403 101.408 341.104 101.66 340.711 101.847C340.321 102.034 339.846 102.128 339.287 102.128C338.766 102.128 338.315 102.044 337.934 101.876C337.556 101.708 337.257 101.473 337.039 101.173C336.824 100.872 336.702 100.523 336.674 100.125H337.583C337.606 100.4 337.699 100.627 337.86 100.807C338.023 100.984 338.229 101.117 338.478 101.205C338.729 101.29 338.998 101.332 339.287 101.332C339.623 101.332 339.925 101.278 340.193 101.169C340.46 101.058 340.672 100.904 340.828 100.707C340.985 100.509 341.063 100.277 341.063 100.011C341.063 99.7699 340.995 99.5734 340.86 99.4219C340.725 99.2704 340.548 99.1473 340.328 99.0526C340.108 98.9579 339.87 98.875 339.614 98.804L338.719 98.5483C338.151 98.3849 337.701 98.1518 337.37 97.8487C337.038 97.5457 336.873 97.1491 336.873 96.6591C336.873 96.2519 336.983 95.8968 337.203 95.5938C337.425 95.2884 337.724 95.0516 338.098 94.8835C338.474 94.7131 338.894 94.6278 339.358 94.6278C339.827 94.6278 340.244 94.7119 340.608 94.88C340.973 95.0457 341.262 95.273 341.475 95.5618C341.69 95.8506 341.804 96.1785 341.816 96.5455H340.963ZM348.136 94.7273H349.017V99.5426C349.017 100.04 348.899 100.484 348.665 100.874C348.433 101.263 348.105 101.569 347.681 101.794C347.258 102.017 346.76 102.128 346.19 102.128C345.619 102.128 345.122 102.017 344.698 101.794C344.275 101.569 343.945 101.263 343.711 100.874C343.479 100.484 343.363 100.04 343.363 99.5426V94.7273H344.244V99.4716C344.244 99.8267 344.322 100.143 344.478 100.42C344.634 100.694 344.857 100.911 345.146 101.07C345.437 101.226 345.785 101.304 346.19 101.304C346.595 101.304 346.943 101.226 347.234 101.07C347.525 100.911 347.748 100.694 347.901 100.42C348.058 100.143 348.136 99.8267 348.136 99.4716V94.7273Z" fill="#737373"/>
<path d="M53.2332 145V135.76L53.8352 136.418H51.0212V135.2H54.6192V145H53.2332Z" fill="#030303"/>
<path d="M99.3305 145V144.048L103.321 140.198C103.675 139.862 103.937 139.568 104.105 139.316C104.282 139.055 104.399 138.817 104.455 138.602C104.52 138.378 104.553 138.163 104.553 137.958C104.553 137.454 104.375 137.057 104.021 136.768C103.666 136.479 103.148 136.334 102.467 136.334C101.944 136.334 101.473 136.423 101.053 136.6C100.633 136.768 100.269 137.034 99.9605 137.398L99.0085 136.572C99.3818 136.096 99.8812 135.732 100.507 135.48C101.141 135.219 101.837 135.088 102.593 135.088C103.274 135.088 103.867 135.2 104.371 135.424C104.875 135.639 105.262 135.951 105.533 136.362C105.813 136.773 105.953 137.258 105.953 137.818C105.953 138.135 105.911 138.448 105.827 138.756C105.743 139.064 105.584 139.391 105.351 139.736C105.117 140.081 104.781 140.469 104.343 140.898L100.787 144.328L100.451 143.782H106.373V145H99.3305Z" fill="#030303"/>
<path d="M151.33 145.112C150.639 145.112 149.967 145.005 149.314 144.79C148.67 144.575 148.143 144.286 147.732 143.922L148.376 142.816C148.703 143.124 149.127 143.376 149.65 143.572C150.173 143.768 150.733 143.866 151.33 143.866C152.058 143.866 152.623 143.712 153.024 143.404C153.435 143.087 153.64 142.662 153.64 142.13C153.64 141.617 153.444 141.206 153.052 140.898C152.669 140.581 152.058 140.422 151.218 140.422H150.434V139.442L153.346 135.858L153.542 136.418H148.18V135.2H154.648V136.152L151.75 139.722L151.022 139.288H151.484C152.669 139.288 153.556 139.554 154.144 140.086C154.741 140.618 155.04 141.295 155.04 142.116C155.04 142.667 154.905 143.171 154.634 143.628C154.363 144.085 153.953 144.449 153.402 144.72C152.861 144.981 152.17 145.112 151.33 145.112Z" fill="#030303"/>
<path d="M195.849 142.592V141.612L200.861 135.2H202.373L197.403 141.612L196.689 141.388H204.515V142.592H195.849ZM201.295 145V142.592L201.337 141.388V139.26H202.653V145H201.295Z" fill="#030303"/>
<path d="M249.149 145.112C248.458 145.112 247.786 145.005 247.133 144.79C246.489 144.575 245.961 144.286 245.551 143.922L246.195 142.816C246.521 143.124 246.946 143.376 247.469 143.572C247.991 143.768 248.547 143.866 249.135 143.866C249.881 143.866 250.455 143.707 250.857 143.39C251.258 143.073 251.459 142.648 251.459 142.116C251.459 141.752 251.37 141.435 251.193 141.164C251.015 140.893 250.707 140.688 250.269 140.548C249.839 140.399 249.247 140.324 248.491 140.324H246.265L246.783 135.2H252.312V136.418H247.301L248.029 135.732L247.623 139.778L246.895 139.106H248.785C249.765 139.106 250.553 139.232 251.151 139.484C251.748 139.736 252.182 140.086 252.453 140.534C252.723 140.973 252.859 141.481 252.859 142.06C252.859 142.62 252.723 143.133 252.453 143.6C252.182 144.057 251.771 144.426 251.221 144.706C250.679 144.977 249.989 145.112 249.149 145.112Z" fill="#030303"/>
<path d="M298.636 145.112C297.768 145.112 297.026 144.921 296.41 144.538C295.794 144.155 295.322 143.605 294.996 142.886C294.678 142.158 294.52 141.271 294.52 140.226C294.52 139.115 294.716 138.177 295.108 137.412C295.5 136.647 296.046 136.068 296.746 135.676C297.446 135.284 298.248 135.088 299.154 135.088C299.62 135.088 300.064 135.135 300.484 135.228C300.913 135.321 301.282 135.466 301.59 135.662L301.058 136.754C300.806 136.577 300.516 136.455 300.19 136.39C299.872 136.325 299.536 136.292 299.182 136.292C298.183 136.292 297.39 136.605 296.802 137.23C296.214 137.846 295.92 138.765 295.92 139.988C295.92 140.184 295.929 140.417 295.948 140.688C295.966 140.959 296.013 141.225 296.088 141.486L295.612 141.01C295.752 140.581 295.971 140.221 296.27 139.932C296.578 139.633 296.942 139.414 297.362 139.274C297.791 139.125 298.253 139.05 298.748 139.05C299.401 139.05 299.98 139.171 300.484 139.414C300.988 139.657 301.384 140.002 301.674 140.45C301.963 140.889 302.108 141.411 302.108 142.018C302.108 142.643 301.954 143.189 301.646 143.656C301.338 144.123 300.922 144.482 300.4 144.734C299.877 144.986 299.289 145.112 298.636 145.112ZM298.58 143.978C299.009 143.978 299.382 143.899 299.7 143.74C300.026 143.581 300.283 143.362 300.47 143.082C300.656 142.793 300.75 142.457 300.75 142.074C300.75 141.495 300.549 141.038 300.148 140.702C299.746 140.357 299.2 140.184 298.51 140.184C298.062 140.184 297.67 140.268 297.334 140.436C296.998 140.604 296.732 140.833 296.536 141.122C296.349 141.402 296.256 141.724 296.256 142.088C296.256 142.424 296.344 142.737 296.522 143.026C296.699 143.306 296.96 143.535 297.306 143.712C297.651 143.889 298.076 143.978 298.58 143.978Z" fill="#030303"/>
<path d="M345.182 145L349.34 135.788L349.704 136.418H343.88L344.58 135.732V138.168H343.236V135.2H350.628V136.152L346.666 145H345.182Z" fill="#030303"/>
<path d="M53.4891 185.112C52.6958 185.112 52.0098 184.995 51.4311 184.762C50.8525 184.529 50.4045 184.197 50.0871 183.768C49.7698 183.329 49.6111 182.816 49.6111 182.228C49.6111 181.649 49.7605 181.159 50.0591 180.758C50.3671 180.347 50.8105 180.039 51.3891 179.834C51.9678 179.619 52.6678 179.512 53.4891 179.512C54.3105 179.512 55.0105 179.619 55.5891 179.834C56.1771 180.039 56.6251 180.347 56.9331 180.758C57.2411 181.169 57.3951 181.659 57.3951 182.228C57.3951 182.816 57.2365 183.329 56.9191 183.768C56.6018 184.197 56.1491 184.529 55.5611 184.762C54.9731 184.995 54.2825 185.112 53.4891 185.112ZM53.4891 183.978C54.2731 183.978 54.8845 183.819 55.3231 183.502C55.7711 183.175 55.9951 182.737 55.9951 182.186C55.9951 181.645 55.7711 181.22 55.3231 180.912C54.8845 180.595 54.2731 180.436 53.4891 180.436C52.7145 180.436 52.1078 180.595 51.6691 180.912C51.2305 181.22 51.0111 181.645 51.0111 182.186C51.0111 182.737 51.2305 183.175 51.6691 183.502C52.1078 183.819 52.7145 183.978 53.4891 183.978ZM53.4891 180.268C52.7425 180.268 52.1078 180.17 51.5851 179.974C51.0625 179.769 50.6611 179.479 50.3811 179.106C50.1011 178.723 49.9611 178.271 49.9611 177.748C49.9611 177.197 50.1058 176.726 50.3951 176.334C50.6938 175.933 51.1091 175.625 51.6411 175.41C52.1731 175.195 52.7891 175.088 53.4891 175.088C54.1985 175.088 54.8191 175.195 55.3511 175.41C55.8831 175.625 56.2985 175.933 56.5971 176.334C56.8958 176.726 57.0451 177.197 57.0451 177.748C57.0451 178.271 56.9051 178.723 56.6251 179.106C56.3451 179.479 55.9391 179.769 55.4071 179.974C54.8751 180.17 54.2358 180.268 53.4891 180.268ZM53.4891 179.372C54.1705 179.372 54.7025 179.232 55.0851 178.952C55.4771 178.672 55.6731 178.289 55.6731 177.804C55.6731 177.309 55.4725 176.922 55.0711 176.642C54.6698 176.362 54.1425 176.222 53.4891 176.222C52.8358 176.222 52.3131 176.362 51.9211 176.642C51.5385 176.922 51.3471 177.309 51.3471 177.804C51.3471 178.289 51.5338 178.672 51.9071 178.952C52.2898 179.232 52.8171 179.372 53.4891 179.372Z" fill="#030303"/>
<path d="M102.362 175.088C103.248 175.088 103.995 175.279 104.602 175.662C105.218 176.045 105.684 176.6 106.002 177.328C106.319 178.047 106.478 178.929 106.478 179.974C106.478 181.085 106.282 182.023 105.89 182.788C105.498 183.553 104.956 184.132 104.266 184.524C103.575 184.916 102.768 185.112 101.844 185.112C101.386 185.112 100.943 185.065 100.514 184.972C100.094 184.879 99.7251 184.734 99.4077 184.538L99.9397 183.446C100.201 183.614 100.49 183.735 100.808 183.81C101.134 183.875 101.475 183.908 101.83 183.908C102.819 183.908 103.608 183.6 104.196 182.984C104.784 182.359 105.078 181.435 105.078 180.212C105.078 180.016 105.068 179.783 105.05 179.512C105.031 179.241 104.989 178.975 104.924 178.714L105.386 179.19C105.255 179.619 105.036 179.983 104.728 180.282C104.429 180.571 104.065 180.791 103.636 180.94C103.216 181.08 102.754 181.15 102.25 181.15C101.606 181.15 101.032 181.029 100.528 180.786C100.024 180.543 99.6271 180.203 99.3377 179.764C99.0484 179.316 98.9037 178.789 98.9037 178.182C98.9037 177.547 99.0531 177.001 99.3517 176.544C99.6597 176.077 100.075 175.718 100.598 175.466C101.13 175.214 101.718 175.088 102.362 175.088ZM102.418 176.222C101.998 176.222 101.624 176.301 101.298 176.46C100.971 176.619 100.714 176.838 100.528 177.118C100.35 177.398 100.262 177.734 100.262 178.126C100.262 178.705 100.462 179.167 100.864 179.512C101.265 179.848 101.806 180.016 102.488 180.016C102.936 180.016 103.328 179.932 103.664 179.764C104.009 179.596 104.275 179.367 104.462 179.078C104.658 178.789 104.756 178.467 104.756 178.112C104.756 177.767 104.667 177.454 104.49 177.174C104.312 176.894 104.051 176.665 103.706 176.488C103.36 176.311 102.931 176.222 102.418 176.222Z" fill="#030303"/>
<path d="M147.012 185V175.76L147.614 176.418H144.8V175.2H148.398V185H147.012ZM153.986 185.112C153.221 185.112 152.535 184.916 151.928 184.524C151.331 184.132 150.855 183.563 150.5 182.816C150.155 182.069 149.982 181.164 149.982 180.1C149.982 179.036 150.155 178.131 150.5 177.384C150.855 176.637 151.331 176.068 151.928 175.676C152.535 175.284 153.221 175.088 153.986 175.088C154.742 175.088 155.423 175.284 156.03 175.676C156.637 176.068 157.113 176.637 157.458 177.384C157.803 178.131 157.976 179.036 157.976 180.1C157.976 181.164 157.803 182.069 157.458 182.816C157.113 183.563 156.637 184.132 156.03 184.524C155.423 184.916 154.742 185.112 153.986 185.112ZM153.986 183.866C154.499 183.866 154.947 183.726 155.33 183.446C155.722 183.166 156.025 182.746 156.24 182.186C156.464 181.626 156.576 180.931 156.576 180.1C156.576 179.269 156.464 178.574 156.24 178.014C156.025 177.454 155.722 177.034 155.33 176.754C154.947 176.474 154.499 176.334 153.986 176.334C153.473 176.334 153.02 176.474 152.628 176.754C152.236 177.034 151.928 177.454 151.704 178.014C151.489 178.574 151.382 179.269 151.382 180.1C151.382 180.931 151.489 181.626 151.704 182.186C151.928 182.746 152.236 183.166 152.628 183.446C153.02 183.726 153.473 183.866 153.986 183.866Z" fill="#030303"/>
<path d="M197.922 185V175.76L198.524 176.418H195.71V175.2H199.308V185H197.922ZM202.544 185V175.76L203.146 176.418H200.332V175.2H203.93V185H202.544Z" fill="#030303"/>
<rect x="237.332" y="168" width="24" height="24" rx="6" fill="url(#paint0_radial_14661_7270)"/>
<path d="M244.826 185V175.76L245.428 176.418H242.614V175.2H246.212V185H244.826ZM247.641 185V184.048L251.631 180.198C251.986 179.862 252.247 179.568 252.415 179.316C252.593 179.055 252.709 178.817 252.765 178.602C252.831 178.378 252.863 178.163 252.863 177.958C252.863 177.454 252.686 177.057 252.331 176.768C251.977 176.479 251.459 176.334 250.777 176.334C250.255 176.334 249.783 176.423 249.363 176.6C248.943 176.768 248.579 177.034 248.271 177.398L247.319 176.572C247.693 176.096 248.192 175.732 248.817 175.48C249.452 175.219 250.147 175.088 250.903 175.088C251.585 175.088 252.177 175.2 252.681 175.424C253.185 175.639 253.573 175.951 253.843 176.362C254.123 176.773 254.263 177.258 254.263 177.818C254.263 178.135 254.221 178.448 254.137 178.756C254.053 179.064 253.895 179.391 253.661 179.736C253.428 180.081 253.092 180.469 252.653 180.898L249.097 184.328L248.761 183.782H254.683V185H247.641Z" fill="white"/>
<path d="M294.175 183V173.76L294.777 174.418H291.963V173.2H295.561V183H294.175ZM300.141 183.112C299.45 183.112 298.778 183.005 298.125 182.79C297.481 182.575 296.954 182.286 296.543 181.922L297.187 180.816C297.514 181.124 297.938 181.376 298.461 181.572C298.984 181.768 299.544 181.866 300.141 181.866C300.869 181.866 301.434 181.712 301.835 181.404C302.246 181.087 302.451 180.662 302.451 180.13C302.451 179.617 302.255 179.206 301.863 178.898C301.48 178.581 300.869 178.422 300.029 178.422H299.245V177.442L302.157 173.858L302.353 174.418H296.991V173.2H303.459V174.152L300.561 177.722L299.833 177.288H300.295C301.48 177.288 302.367 177.554 302.955 178.086C303.552 178.618 303.851 179.295 303.851 180.116C303.851 180.667 303.716 181.171 303.445 181.628C303.174 182.085 302.764 182.449 302.213 182.72C301.672 182.981 300.981 183.112 300.141 183.112Z" fill="#030303"/>
<path d="M341.831 183V173.76L342.433 174.418H339.619V173.2H343.217V183H341.831ZM344.66 180.592V179.612L349.672 173.2H351.184L346.214 179.612L345.5 179.388H353.326V180.592H344.66ZM350.106 183V180.592L350.148 179.388V177.26H351.464V183H350.106Z" fill="#030303"/>
<path d="M49.9936 225V215.76L50.5956 216.418H47.7816V215.2H51.3796V225H49.9936ZM56.1273 225.112C55.4366 225.112 54.7646 225.005 54.1113 224.79C53.4673 224.575 52.94 224.286 52.5293 223.922L53.1733 222.816C53.5 223.124 53.9246 223.376 54.4473 223.572C54.97 223.768 55.5253 223.866 56.1133 223.866C56.86 223.866 57.434 223.707 57.8353 223.39C58.2366 223.073 58.4373 222.648 58.4373 222.116C58.4373 221.752 58.3486 221.435 58.1713 221.164C57.994 220.893 57.686 220.688 57.2473 220.548C56.818 220.399 56.2253 220.324 55.4693 220.324H53.2433L53.7613 215.2H59.2913V216.418H54.2793L55.0073 215.732L54.6013 219.778L53.8733 219.106H55.7633C56.7433 219.106 57.532 219.232 58.1293 219.484C58.7266 219.736 59.1606 220.086 59.4313 220.534C59.702 220.973 59.8373 221.481 59.8373 222.06C59.8373 222.62 59.702 223.133 59.4313 223.6C59.1606 224.057 58.75 224.426 58.1993 224.706C57.658 224.977 56.9673 225.112 56.1273 225.112Z" fill="#030303"/>
<path d="M98.0249 225V215.76L98.6269 216.418H95.8129V215.2H99.4109V225H98.0249ZM105.111 225.112C104.243 225.112 103.501 224.921 102.885 224.538C102.269 224.155 101.797 223.605 101.471 222.886C101.153 222.158 100.995 221.271 100.995 220.226C100.995 219.115 101.191 218.177 101.583 217.412C101.975 216.647 102.521 216.068 103.221 215.676C103.921 215.284 104.723 215.088 105.629 215.088C106.095 215.088 106.539 215.135 106.959 215.228C107.388 215.321 107.757 215.466 108.065 215.662L107.533 216.754C107.281 216.577 106.991 216.455 106.665 216.39C106.347 216.325 106.011 216.292 105.657 216.292C104.658 216.292 103.865 216.605 103.277 217.23C102.689 217.846 102.395 218.765 102.395 219.988C102.395 220.184 102.404 220.417 102.423 220.688C102.441 220.959 102.488 221.225 102.563 221.486L102.087 221.01C102.227 220.581 102.446 220.221 102.745 219.932C103.053 219.633 103.417 219.414 103.837 219.274C104.266 219.125 104.728 219.05 105.223 219.05C105.876 219.05 106.455 219.171 106.959 219.414C107.463 219.657 107.859 220.002 108.149 220.45C108.438 220.889 108.583 221.411 108.583 222.018C108.583 222.643 108.429 223.189 108.121 223.656C107.813 224.123 107.397 224.482 106.875 224.734C106.352 224.986 105.764 225.112 105.111 225.112ZM105.055 223.978C105.484 223.978 105.857 223.899 106.175 223.74C106.501 223.581 106.758 223.362 106.945 223.082C107.131 222.793 107.225 222.457 107.225 222.074C107.225 221.495 107.024 221.038 106.623 220.702C106.221 220.357 105.675 220.184 104.985 220.184C104.537 220.184 104.145 220.268 103.809 220.436C103.473 220.604 103.207 220.833 103.011 221.122C102.824 221.402 102.731 221.724 102.731 222.088C102.731 222.424 102.819 222.737 102.997 223.026C103.174 223.306 103.435 223.535 103.781 223.712C104.126 223.889 104.551 223.978 105.055 223.978Z" fill="#030303"/>
<path d="M147.998 225V215.76L148.6 216.418H145.786V215.2H149.384V225H147.998ZM152.661 225L156.819 215.788L157.183 216.418H151.359L152.059 215.732V218.168H150.715V215.2H158.107V216.152L154.145 225H152.661Z" fill="#030303"/>
<path d="M196.008 225V215.76L196.61 216.418H193.796V215.2H197.394V225H196.008ZM202.8 225.112C202.007 225.112 201.321 224.995 200.742 224.762C200.163 224.529 199.715 224.197 199.398 223.768C199.081 223.329 198.922 222.816 198.922 222.228C198.922 221.649 199.071 221.159 199.37 220.758C199.678 220.347 200.121 220.039 200.7 219.834C201.279 219.619 201.979 219.512 202.8 219.512C203.621 219.512 204.321 219.619 204.9 219.834C205.488 220.039 205.936 220.347 206.244 220.758C206.552 221.169 206.706 221.659 206.706 222.228C206.706 222.816 206.547 223.329 206.23 223.768C205.913 224.197 205.46 224.529 204.872 224.762C204.284 224.995 203.593 225.112 202.8 225.112ZM202.8 223.978C203.584 223.978 204.195 223.819 204.634 223.502C205.082 223.175 205.306 222.737 205.306 222.186C205.306 221.645 205.082 221.22 204.634 220.912C204.195 220.595 203.584 220.436 202.8 220.436C202.025 220.436 201.419 220.595 200.98 220.912C200.541 221.22 200.322 221.645 200.322 222.186C200.322 222.737 200.541 223.175 200.98 223.502C201.419 223.819 202.025 223.978 202.8 223.978ZM202.8 220.268C202.053 220.268 201.419 220.17 200.896 219.974C200.373 219.769 199.972 219.479 199.692 219.106C199.412 218.723 199.272 218.271 199.272 217.748C199.272 217.197 199.417 216.726 199.706 216.334C200.005 215.933 200.42 215.625 200.952 215.41C201.484 215.195 202.1 215.088 202.8 215.088C203.509 215.088 204.13 215.195 204.662 215.41C205.194 215.625 205.609 215.933 205.908 216.334C206.207 216.726 206.356 217.197 206.356 217.748C206.356 218.271 206.216 218.723 205.936 219.106C205.656 219.479 205.25 219.769 204.718 219.974C204.186 220.17 203.547 220.268 202.8 220.268ZM202.8 219.372C203.481 219.372 204.013 219.232 204.396 218.952C204.788 218.672 204.984 218.289 204.984 217.804C204.984 217.309 204.783 216.922 204.382 216.642C203.981 216.362 203.453 216.222 202.8 216.222C202.147 216.222 201.624 216.362 201.232 216.642C200.849 216.922 200.658 217.309 200.658 217.804C200.658 218.289 200.845 218.672 201.218 218.952C201.601 219.232 202.128 219.372 202.8 219.372Z" fill="#030303"/>
<path d="M244.025 225V215.76L244.627 216.418H241.813V215.2H245.411V225H244.025ZM250.173 215.088C251.059 215.088 251.806 215.279 252.413 215.662C253.029 216.045 253.495 216.6 253.813 217.328C254.13 218.047 254.289 218.929 254.289 219.974C254.289 221.085 254.093 222.023 253.701 222.788C253.309 223.553 252.767 224.132 252.077 224.524C251.386 224.916 250.579 225.112 249.655 225.112C249.197 225.112 248.754 225.065 248.325 224.972C247.905 224.879 247.536 224.734 247.219 224.538L247.751 223.446C248.012 223.614 248.301 223.735 248.619 223.81C248.945 223.875 249.286 223.908 249.641 223.908C250.63 223.908 251.419 223.6 252.007 222.984C252.595 222.359 252.889 221.435 252.889 220.212C252.889 220.016 252.879 219.783 252.861 219.512C252.842 219.241 252.8 218.975 252.735 218.714L253.197 219.19C253.066 219.619 252.847 219.983 252.539 220.282C252.24 220.571 251.876 220.791 251.447 220.94C251.027 221.08 250.565 221.15 250.061 221.15C249.417 221.15 248.843 221.029 248.339 220.786C247.835 220.543 247.438 220.203 247.149 219.764C246.859 219.316 246.715 218.789 246.715 218.182C246.715 217.547 246.864 217.001 247.163 216.544C247.471 216.077 247.886 215.718 248.409 215.466C248.941 215.214 249.529 215.088 250.173 215.088ZM250.229 216.222C249.809 216.222 249.435 216.301 249.109 216.46C248.782 216.619 248.525 216.838 248.339 217.118C248.161 217.398 248.073 217.734 248.073 218.126C248.073 218.705 248.273 219.167 248.675 219.512C249.076 219.848 249.617 220.016 250.299 220.016C250.747 220.016 251.139 219.932 251.475 219.764C251.82 219.596 252.086 219.367 252.273 219.078C252.469 218.789 252.567 218.467 252.567 218.112C252.567 217.767 252.478 217.454 252.301 217.174C252.123 216.894 251.862 216.665 251.517 216.488C251.171 216.311 250.742 216.222 250.229 216.222Z" fill="#030303"/>
<path d="M290.284 223V222.048L294.274 218.198C294.629 217.862 294.89 217.568 295.058 217.316C295.236 217.055 295.352 216.817 295.408 216.602C295.474 216.378 295.506 216.163 295.506 215.958C295.506 215.454 295.329 215.057 294.974 214.768C294.62 214.479 294.102 214.334 293.42 214.334C292.898 214.334 292.426 214.423 292.006 214.6C291.586 214.768 291.222 215.034 290.914 215.398L289.962 214.572C290.336 214.096 290.835 213.732 291.46 213.48C292.095 213.219 292.79 213.088 293.546 213.088C294.228 213.088 294.82 213.2 295.324 213.424C295.828 213.639 296.216 213.951 296.486 214.362C296.766 214.773 296.906 215.258 296.906 215.818C296.906 216.135 296.864 216.448 296.78 216.756C296.696 217.064 296.538 217.391 296.304 217.736C296.071 218.081 295.735 218.469 295.296 218.898L291.74 222.328L291.404 221.782H297.326V223H290.284ZM301.908 223.112C301.142 223.112 300.456 222.916 299.85 222.524C299.252 222.132 298.776 221.563 298.422 220.816C298.076 220.069 297.904 219.164 297.904 218.1C297.904 217.036 298.076 216.131 298.422 215.384C298.776 214.637 299.252 214.068 299.85 213.676C300.456 213.284 301.142 213.088 301.908 213.088C302.664 213.088 303.345 213.284 303.952 213.676C304.558 214.068 305.034 214.637 305.38 215.384C305.725 216.131 305.898 217.036 305.898 218.1C305.898 219.164 305.725 220.069 305.38 220.816C305.034 221.563 304.558 222.132 303.952 222.524C303.345 222.916 302.664 223.112 301.908 223.112ZM301.908 221.866C302.421 221.866 302.869 221.726 303.252 221.446C303.644 221.166 303.947 220.746 304.162 220.186C304.386 219.626 304.498 218.931 304.498 218.1C304.498 217.269 304.386 216.574 304.162 216.014C303.947 215.454 303.644 215.034 303.252 214.754C302.869 214.474 302.421 214.334 301.908 214.334C301.394 214.334 300.942 214.474 300.55 214.754C300.158 215.034 299.85 215.454 299.626 216.014C299.411 216.574 299.304 217.269 299.304 218.1C299.304 218.931 299.411 219.626 299.626 220.186C299.85 220.746 300.158 221.166 300.55 221.446C300.942 221.726 301.394 221.866 301.908 221.866Z" fill="#030303"/>
<path d="M341.188 223V222.048L345.178 218.198C345.532 217.862 345.794 217.568 345.962 217.316C346.139 217.055 346.256 216.817 346.312 216.602C346.377 216.378 346.41 216.163 346.41 215.958C346.41 215.454 346.232 215.057 345.878 214.768C345.523 214.479 345.005 214.334 344.324 214.334C343.801 214.334 343.33 214.423 342.91 214.6C342.49 214.768 342.126 215.034 341.818 215.398L340.866 214.572C341.239 214.096 341.738 213.732 342.364 213.48C342.998 213.219 343.694 213.088 344.45 213.088C345.131 213.088 345.724 213.2 346.228 213.424C346.732 213.639 347.119 213.951 347.39 214.362C347.67 214.773 347.81 215.258 347.81 215.818C347.81 216.135 347.768 216.448 347.684 216.756C347.6 217.064 347.441 217.391 347.208 217.736C346.974 218.081 346.638 218.469 346.2 218.898L342.644 222.328L342.308 221.782H348.23V223H341.188ZM350.473 223V213.76L351.075 214.418H348.261V213.2H351.859V223H350.473Z" fill="#030303"/>
<path d="M46.2589 265V264.048L50.2489 260.198C50.6036 259.862 50.8649 259.568 51.0329 259.316C51.2103 259.055 51.3269 258.817 51.3829 258.602C51.4483 258.378 51.4809 258.163 51.4809 257.958C51.4809 257.454 51.3036 257.057 50.9489 256.768C50.5943 256.479 50.0763 256.334 49.3949 256.334C48.8723 256.334 48.4009 256.423 47.9809 256.6C47.5609 256.768 47.1969 257.034 46.8889 257.398L45.9369 256.572C46.3103 256.096 46.8096 255.732 47.4349 255.48C48.0696 255.219 48.7649 255.088 49.5209 255.088C50.2023 255.088 50.7949 255.2 51.2989 255.424C51.8029 255.639 52.1903 255.951 52.4609 256.362C52.7409 256.773 52.8809 257.258 52.8809 257.818C52.8809 258.135 52.8389 258.448 52.7549 258.756C52.6709 259.064 52.5123 259.391 52.2789 259.736C52.0456 260.081 51.7096 260.469 51.2709 260.898L47.7149 264.328L47.3789 263.782H53.3009V265H46.2589ZM53.738 265V264.048L57.728 260.198C58.0827 259.862 58.344 259.568 58.512 259.316C58.6893 259.055 58.806 258.817 58.862 258.602C58.9273 258.378 58.96 258.163 58.96 257.958C58.96 257.454 58.7827 257.057 58.428 256.768C58.0733 256.479 57.5553 256.334 56.874 256.334C56.3513 256.334 55.88 256.423 55.46 256.6C55.04 256.768 54.676 257.034 54.368 257.398L53.416 256.572C53.7893 256.096 54.2887 255.732 54.914 255.48C55.5487 255.219 56.244 255.088 57 255.088C57.6813 255.088 58.274 255.2 58.778 255.424C59.282 255.639 59.6693 255.951 59.94 256.362C60.22 256.773 60.36 257.258 60.36 257.818C60.36 258.135 60.318 258.448 60.234 258.756C60.15 259.064 59.9913 259.391 59.758 259.736C59.5247 260.081 59.1887 260.469 58.75 260.898L55.194 264.328L54.858 263.782H60.78V265H53.738Z" fill="#030303"/>
<path d="M95.1046 265V264.048L99.0946 260.198C99.4493 259.862 99.7106 259.568 99.8786 259.316C100.056 259.055 100.173 258.817 100.229 258.602C100.294 258.378 100.327 258.163 100.327 257.958C100.327 257.454 100.149 257.057 99.7946 256.768C99.44 256.479 98.922 256.334 98.2406 256.334C97.718 256.334 97.2466 256.423 96.8266 256.6C96.4066 256.768 96.0426 257.034 95.7346 257.398L94.7826 256.572C95.156 256.096 95.6553 255.732 96.2806 255.48C96.9153 255.219 97.6106 255.088 98.3666 255.088C99.048 255.088 99.6406 255.2 100.145 255.424C100.649 255.639 101.036 255.951 101.307 256.362C101.587 256.773 101.727 257.258 101.727 257.818C101.727 258.135 101.685 258.448 101.601 258.756C101.517 259.064 101.358 259.391 101.125 259.736C100.891 260.081 100.555 260.469 100.117 260.898L96.5606 264.328L96.2246 263.782H102.147V265H95.1046ZM105.734 265.112C105.043 265.112 104.371 265.005 103.718 264.79C103.074 264.575 102.546 264.286 102.136 263.922L102.78 262.816C103.106 263.124 103.531 263.376 104.054 263.572C104.576 263.768 105.136 263.866 105.734 263.866C106.462 263.866 107.026 263.712 107.428 263.404C107.838 263.087 108.044 262.662 108.044 262.13C108.044 261.617 107.848 261.206 107.456 260.898C107.073 260.581 106.462 260.422 105.622 260.422H104.838V259.442L107.75 255.858L107.946 256.418H102.584V255.2H109.052V256.152L106.154 259.722L105.426 259.288H105.888C107.073 259.288 107.96 259.554 108.548 260.086C109.145 260.618 109.444 261.295 109.444 262.116C109.444 262.667 109.308 263.171 109.038 263.628C108.767 264.085 108.356 264.449 107.806 264.72C107.264 264.981 106.574 265.112 105.734 265.112Z" fill="#030303"/>
<path d="M144.401 265V264.048L148.391 260.198C148.745 259.862 149.007 259.568 149.175 259.316C149.352 259.055 149.469 258.817 149.525 258.602C149.59 258.378 149.623 258.163 149.623 257.958C149.623 257.454 149.445 257.057 149.091 256.768C148.736 256.479 148.218 256.334 147.537 256.334C147.014 256.334 146.543 256.423 146.123 256.6C145.703 256.768 145.339 257.034 145.031 257.398L144.079 256.572C144.452 256.096 144.951 255.732 145.577 255.48C146.211 255.219 146.907 255.088 147.663 255.088C148.344 255.088 148.937 255.2 149.441 255.424C149.945 255.639 150.332 255.951 150.603 256.362C150.883 256.773 151.023 257.258 151.023 257.818C151.023 258.135 150.981 258.448 150.897 258.756C150.813 259.064 150.654 259.391 150.421 259.736C150.187 260.081 149.851 260.469 149.413 260.898L145.857 264.328L145.521 263.782H151.443V265H144.401ZM151.62 262.592V261.612L156.632 255.2H158.144L153.174 261.612L152.46 261.388H160.286V262.592H151.62ZM157.066 265V262.592L157.108 261.388V259.26H158.424V265H157.066Z" fill="#030303"/>
<path d="M193.259 265V264.048L197.249 260.198C197.604 259.862 197.865 259.568 198.033 259.316C198.21 259.055 198.327 258.817 198.383 258.602C198.448 258.378 198.481 258.163 198.481 257.958C198.481 257.454 198.304 257.057 197.949 256.768C197.594 256.479 197.076 256.334 196.395 256.334C195.872 256.334 195.401 256.423 194.981 256.6C194.561 256.768 194.197 257.034 193.889 257.398L192.937 256.572C193.31 256.096 193.81 255.732 194.435 255.48C195.07 255.219 195.765 255.088 196.521 255.088C197.202 255.088 197.795 255.2 198.299 255.424C198.803 255.639 199.19 255.951 199.461 256.362C199.741 256.773 199.881 257.258 199.881 257.818C199.881 258.135 199.839 258.448 199.755 258.756C199.671 259.064 199.512 259.391 199.279 259.736C199.046 260.081 198.71 260.469 198.271 260.898L194.715 264.328L194.379 263.782H200.301V265H193.259ZM204.056 265.112C203.365 265.112 202.693 265.005 202.04 264.79C201.396 264.575 200.869 264.286 200.458 263.922L201.102 262.816C201.429 263.124 201.853 263.376 202.376 263.572C202.899 263.768 203.454 263.866 204.042 263.866C204.789 263.866 205.363 263.707 205.764 263.39C206.165 263.073 206.366 262.648 206.366 262.116C206.366 261.752 206.277 261.435 206.1 261.164C205.923 260.893 205.615 260.688 205.176 260.548C204.747 260.399 204.154 260.324 203.398 260.324H201.172L201.69 255.2H207.22V256.418H202.208L202.936 255.732L202.53 259.778L201.802 259.106H203.692C204.672 259.106 205.461 259.232 206.058 259.484C206.655 259.736 207.089 260.086 207.36 260.534C207.631 260.973 207.766 261.481 207.766 262.06C207.766 262.62 207.631 263.133 207.36 263.6C207.089 264.057 206.679 264.426 206.128 264.706C205.587 264.977 204.896 265.112 204.056 265.112Z" fill="#030303"/>
<path d="M241.297 265V264.048L245.287 260.198C245.642 259.862 245.903 259.568 246.071 259.316C246.248 259.055 246.365 258.817 246.421 258.602C246.486 258.378 246.519 258.163 246.519 257.958C246.519 257.454 246.342 257.057 245.987 256.768C245.632 256.479 245.114 256.334 244.433 256.334C243.91 256.334 243.439 256.423 243.019 256.6C242.599 256.768 242.235 257.034 241.927 257.398L240.975 256.572C241.348 256.096 241.848 255.732 242.473 255.48C243.108 255.219 243.803 255.088 244.559 255.088C245.24 255.088 245.833 255.2 246.337 255.424C246.841 255.639 247.228 255.951 247.499 256.362C247.779 256.773 247.919 257.258 247.919 257.818C247.919 258.135 247.877 258.448 247.793 258.756C247.709 259.064 247.55 259.391 247.317 259.736C247.084 260.081 246.748 260.469 246.309 260.898L242.753 264.328L242.417 263.782H248.339V265H241.297ZM253.032 265.112C252.164 265.112 251.422 264.921 250.806 264.538C250.19 264.155 249.719 263.605 249.392 262.886C249.075 262.158 248.916 261.271 248.916 260.226C248.916 259.115 249.112 258.177 249.504 257.412C249.896 256.647 250.442 256.068 251.142 255.676C251.842 255.284 252.645 255.088 253.55 255.088C254.017 255.088 254.46 255.135 254.88 255.228C255.31 255.321 255.678 255.466 255.986 255.662L255.454 256.754C255.202 256.577 254.913 256.455 254.586 256.39C254.269 256.325 253.933 256.292 253.578 256.292C252.58 256.292 251.786 256.605 251.198 257.23C250.61 257.846 250.316 258.765 250.316 259.988C250.316 260.184 250.326 260.417 250.344 260.688C250.363 260.959 250.41 261.225 250.484 261.486L250.008 261.01C250.148 260.581 250.368 260.221 250.666 259.932C250.974 259.633 251.338 259.414 251.758 259.274C252.188 259.125 252.65 259.05 253.144 259.05C253.798 259.05 254.376 259.171 254.88 259.414C255.384 259.657 255.781 260.002 256.07 260.45C256.36 260.889 256.504 261.411 256.504 262.018C256.504 262.643 256.35 263.189 256.042 263.656C255.734 264.123 255.319 264.482 254.796 264.734C254.274 264.986 253.686 265.112 253.032 265.112ZM252.976 263.978C253.406 263.978 253.779 263.899 254.096 263.74C254.423 263.581 254.68 263.362 254.866 263.082C255.053 262.793 255.146 262.457 255.146 262.074C255.146 261.495 254.946 261.038 254.544 260.702C254.143 260.357 253.597 260.184 252.906 260.184C252.458 260.184 252.066 260.268 251.73 260.436C251.394 260.604 251.128 260.833 250.932 261.122C250.746 261.402 250.652 261.724 250.652 262.088C250.652 262.424 250.741 262.737 250.918 263.026C251.096 263.306 251.357 263.535 251.702 263.712C252.048 263.889 252.472 263.978 252.976 263.978Z" fill="#030303"/>
<path d="M290.27 265V264.048L294.26 260.198C294.614 259.862 294.876 259.568 295.044 259.316C295.221 259.055 295.338 258.817 295.394 258.602C295.459 258.378 295.492 258.163 295.492 257.958C295.492 257.454 295.314 257.057 294.96 256.768C294.605 256.479 294.087 256.334 293.406 256.334C292.883 256.334 292.412 256.423 291.992 256.6C291.572 256.768 291.208 257.034 290.9 257.398L289.948 256.572C290.321 256.096 290.82 255.732 291.446 255.48C292.08 255.219 292.776 255.088 293.532 255.088C294.213 255.088 294.806 255.2 295.31 255.424C295.814 255.639 296.201 255.951 296.472 256.362C296.752 256.773 296.892 257.258 296.892 257.818C296.892 258.135 296.85 258.448 296.766 258.756C296.682 259.064 296.523 259.391 296.29 259.736C296.056 260.081 295.72 260.469 295.282 260.898L291.726 264.328L291.39 263.782H297.312V265H290.27ZM299.583 265L303.741 255.788L304.105 256.418H298.281L298.981 255.732V258.168H297.637V255.2H305.029V256.152L301.067 265H299.583Z" fill="#030303"/>
<path d="M339.274 265V264.048L343.264 260.198C343.618 259.862 343.88 259.568 344.048 259.316C344.225 259.055 344.342 258.817 344.398 258.602C344.463 258.378 344.496 258.163 344.496 257.958C344.496 257.454 344.318 257.057 343.964 256.768C343.609 256.479 343.091 256.334 342.41 256.334C341.887 256.334 341.416 256.423 340.996 256.6C340.576 256.768 340.212 257.034 339.904 257.398L338.952 256.572C339.325 256.096 339.824 255.732 340.45 255.48C341.084 255.219 341.78 255.088 342.536 255.088C343.217 255.088 343.81 255.2 344.314 255.424C344.818 255.639 345.205 255.951 345.476 256.362C345.756 256.773 345.896 257.258 345.896 257.818C345.896 258.135 345.854 258.448 345.77 258.756C345.686 259.064 345.527 259.391 345.294 259.736C345.06 260.081 344.724 260.469 344.286 260.898L340.73 264.328L340.394 263.782H346.316V265H339.274ZM350.729 265.112C349.935 265.112 349.249 264.995 348.671 264.762C348.092 264.529 347.644 264.197 347.327 263.768C347.009 263.329 346.851 262.816 346.851 262.228C346.851 261.649 347 261.159 347.299 260.758C347.607 260.347 348.05 260.039 348.629 259.834C349.207 259.619 349.907 259.512 350.729 259.512C351.55 259.512 352.25 259.619 352.829 259.834C353.417 260.039 353.865 260.347 354.173 260.758C354.481 261.169 354.635 261.659 354.635 262.228C354.635 262.816 354.476 263.329 354.159 263.768C353.841 264.197 353.389 264.529 352.801 264.762C352.213 264.995 351.522 265.112 350.729 265.112ZM350.729 263.978C351.513 263.978 352.124 263.819 352.563 263.502C353.011 263.175 353.235 262.737 353.235 262.186C353.235 261.645 353.011 261.22 352.563 260.912C352.124 260.595 351.513 260.436 350.729 260.436C349.954 260.436 349.347 260.595 348.909 260.912C348.47 261.22 348.251 261.645 348.251 262.186C348.251 262.737 348.47 263.175 348.909 263.502C349.347 263.819 349.954 263.978 350.729 263.978ZM350.729 260.268C349.982 260.268 349.347 260.17 348.825 259.974C348.302 259.769 347.901 259.479 347.621 259.106C347.341 258.723 347.201 258.271 347.201 257.748C347.201 257.197 347.345 256.726 347.635 256.334C347.933 255.933 348.349 255.625 348.881 255.41C349.413 255.195 350.029 255.088 350.729 255.088C351.438 255.088 352.059 255.195 352.591 255.41C353.123 255.625 353.538 255.933 353.837 256.334C354.135 256.726 354.285 257.197 354.285 257.748C354.285 258.271 354.145 258.723 353.865 259.106C353.585 259.479 353.179 259.769 352.647 259.974C352.115 260.17 351.475 260.268 350.729 260.268ZM350.729 259.372C351.41 259.372 351.942 259.232 352.325 258.952C352.717 258.672 352.913 258.289 352.913 257.804C352.913 257.309 352.712 256.922 352.311 256.642C351.909 256.362 351.382 256.222 350.729 256.222C350.075 256.222 349.553 256.362 349.161 256.642C348.778 256.922 348.587 257.309 348.587 257.804C348.587 258.289 348.773 258.672 349.147 258.952C349.529 259.232 350.057 259.372 350.729 259.372Z" fill="#030303"/>
<path d="M46.4582 305V304.048L50.4482 300.198C50.8028 299.862 51.0642 299.568 51.2322 299.316C51.4095 299.055 51.5262 298.817 51.5822 298.602C51.6475 298.378 51.6802 298.163 51.6802 297.958C51.6802 297.454 51.5028 297.057 51.1482 296.768C50.7935 296.479 50.2755 296.334 49.5942 296.334C49.0715 296.334 48.6002 296.423 48.1802 296.6C47.7602 296.768 47.3962 297.034 47.0882 297.398L46.1362 296.572C46.5095 296.096 47.0088 295.732 47.6342 295.48C48.2688 295.219 48.9642 295.088 49.7202 295.088C50.4015 295.088 50.9942 295.2 51.4982 295.424C52.0022 295.639 52.3895 295.951 52.6602 296.362C52.9402 296.773 53.0802 297.258 53.0802 297.818C53.0802 298.135 53.0382 298.448 52.9542 298.756C52.8702 299.064 52.7115 299.391 52.4782 299.736C52.2448 300.081 51.9088 300.469 51.4702 300.898L47.9142 304.328L47.5782 303.782H53.5002V305H46.4582ZM57.2692 295.088C58.1559 295.088 58.9026 295.279 59.5092 295.662C60.1252 296.045 60.5919 296.6 60.9092 297.328C61.2266 298.047 61.3852 298.929 61.3852 299.974C61.3852 301.085 61.1892 302.023 60.7972 302.788C60.4052 303.553 59.8639 304.132 59.1732 304.524C58.4826 304.916 57.6752 305.112 56.7512 305.112C56.2939 305.112 55.8506 305.065 55.4212 304.972C55.0012 304.879 54.6326 304.734 54.3152 304.538L54.8472 303.446C55.1086 303.614 55.3979 303.735 55.7152 303.81C56.0419 303.875 56.3826 303.908 56.7372 303.908C57.7266 303.908 58.5152 303.6 59.1032 302.984C59.6912 302.359 59.9852 301.435 59.9852 300.212C59.9852 300.016 59.9759 299.783 59.9572 299.512C59.9386 299.241 59.8966 298.975 59.8312 298.714L60.2932 299.19C60.1626 299.619 59.9432 299.983 59.6352 300.282C59.3366 300.571 58.9726 300.791 58.5432 300.94C58.1232 301.08 57.6612 301.15 57.1572 301.15C56.5132 301.15 55.9392 301.029 55.4352 300.786C54.9312 300.543 54.5346 300.203 54.2452 299.764C53.9559 299.316 53.8112 298.789 53.8112 298.182C53.8112 297.547 53.9606 297.001 54.2592 296.544C54.5672 296.077 54.9826 295.718 55.5052 295.466C56.0372 295.214 56.6252 295.088 57.2692 295.088ZM57.3252 296.222C56.9052 296.222 56.5319 296.301 56.2052 296.46C55.8786 296.619 55.6219 296.838 55.4352 297.118C55.2579 297.398 55.1692 297.734 55.1692 298.126C55.1692 298.705 55.3699 299.167 55.7712 299.512C56.1726 299.848 56.7139 300.016 57.3952 300.016C57.8432 300.016 58.2352 299.932 58.5712 299.764C58.9166 299.596 59.1826 299.367 59.3692 299.078C59.5652 298.789 59.6632 298.467 59.6632 298.112C59.6632 297.767 59.5746 297.454 59.3972 297.174C59.2199 296.894 58.9586 296.665 58.6132 296.488C58.2679 296.311 57.8386 296.222 57.3252 296.222Z" fill="#030303"/>
<path d="M98.1052 305.112C97.4146 305.112 96.7426 305.005 96.0892 304.79C95.4452 304.575 94.9179 304.286 94.5072 303.922L95.1512 302.816C95.4779 303.124 95.9026 303.376 96.4252 303.572C96.9479 303.768 97.5079 303.866 98.1052 303.866C98.8332 303.866 99.3979 303.712 99.7992 303.404C100.21 303.087 100.415 302.662 100.415 302.13C100.415 301.617 100.219 301.206 99.8272 300.898C99.4446 300.581 98.8332 300.422 97.9932 300.422H97.2092V299.442L100.121 295.858L100.317 296.418H94.9552V295.2H101.423V296.152L98.5252 299.722L97.7972 299.288H98.2592C99.4446 299.288 100.331 299.554 100.919 300.086C101.517 300.618 101.815 301.295 101.815 302.116C101.815 302.667 101.68 303.171 101.409 303.628C101.139 304.085 100.728 304.449 100.177 304.72C99.6359 304.981 98.9452 305.112 98.1052 305.112ZM106.565 305.112C105.8 305.112 105.114 304.916 104.507 304.524C103.91 304.132 103.434 303.563 103.079 302.816C102.734 302.069 102.561 301.164 102.561 300.1C102.561 299.036 102.734 298.131 103.079 297.384C103.434 296.637 103.91 296.068 104.507 295.676C105.114 295.284 105.8 295.088 106.565 295.088C107.321 295.088 108.002 295.284 108.609 295.676C109.216 296.068 109.692 296.637 110.037 297.384C110.382 298.131 110.555 299.036 110.555 300.1C110.555 301.164 110.382 302.069 110.037 302.816C109.692 303.563 109.216 304.132 108.609 304.524C108.002 304.916 107.321 305.112 106.565 305.112ZM106.565 303.866C107.078 303.866 107.526 303.726 107.909 303.446C108.301 303.166 108.604 302.746 108.819 302.186C109.043 301.626 109.155 300.931 109.155 300.1C109.155 299.269 109.043 298.574 108.819 298.014C108.604 297.454 108.301 297.034 107.909 296.754C107.526 296.474 107.078 296.334 106.565 296.334C106.052 296.334 105.599 296.474 105.207 296.754C104.815 297.034 104.507 297.454 104.283 298.014C104.068 298.574 103.961 299.269 103.961 300.1C103.961 300.931 104.068 301.626 104.283 302.186C104.507 302.746 104.815 303.166 105.207 303.446C105.599 303.726 106.052 303.866 106.565 303.866Z" fill="#030303"/>
<path d="M149.519 305.112C148.829 305.112 148.157 305.005 147.503 304.79C146.859 304.575 146.332 304.286 145.921 303.922L146.565 302.816C146.892 303.124 147.317 303.376 147.839 303.572C148.362 303.768 148.922 303.866 149.519 303.866C150.247 303.866 150.812 303.712 151.213 303.404C151.624 303.087 151.829 302.662 151.829 302.13C151.829 301.617 151.633 301.206 151.241 300.898C150.859 300.581 150.247 300.422 149.407 300.422H148.623V299.442L151.535 295.858L151.731 296.418H146.369V295.2H152.837V296.152L149.939 299.722L149.211 299.288H149.673C150.859 299.288 151.745 299.554 152.333 300.086C152.931 300.618 153.229 301.295 153.229 302.116C153.229 302.667 153.094 303.171 152.823 303.628C152.553 304.085 152.142 304.449 151.591 304.72C151.05 304.981 150.359 305.112 149.519 305.112ZM155.627 305V295.76L156.229 296.418H153.415V295.2H157.013V305H155.627Z" fill="#030303"/>
<path d="M200.233 305V295.76L200.835 296.418H198.021V295.2H201.619V305H200.233Z" fill="black" fill-opacity="0.3"/>
<path d="M245.331 305V304.048L249.321 300.198C249.675 299.862 249.937 299.568 250.105 299.316C250.282 299.055 250.399 298.817 250.455 298.602C250.52 298.378 250.553 298.163 250.553 297.958C250.553 297.454 250.375 297.057 250.021 296.768C249.666 296.479 249.148 296.334 248.467 296.334C247.944 296.334 247.473 296.423 247.053 296.6C246.633 296.768 246.269 297.034 245.961 297.398L245.009 296.572C245.382 296.096 245.881 295.732 246.507 295.48C247.141 295.219 247.837 295.088 248.593 295.088C249.274 295.088 249.867 295.2 250.371 295.424C250.875 295.639 251.262 295.951 251.533 296.362C251.813 296.773 251.953 297.258 251.953 297.818C251.953 298.135 251.911 298.448 251.827 298.756C251.743 299.064 251.584 299.391 251.351 299.736C251.117 300.081 250.781 300.469 250.343 300.898L246.787 304.328L246.451 303.782H252.373V305H245.331Z" fill="black" fill-opacity="0.3"/>
<path d="M297.83 305.112C297.139 305.112 296.467 305.005 295.814 304.79C295.17 304.575 294.643 304.286 294.232 303.922L294.876 302.816C295.203 303.124 295.627 303.376 296.15 303.572C296.673 303.768 297.233 303.866 297.83 303.866C298.558 303.866 299.123 303.712 299.524 303.404C299.935 303.087 300.14 302.662 300.14 302.13C300.14 301.617 299.944 301.206 299.552 300.898C299.169 300.581 298.558 300.422 297.718 300.422H296.934V299.442L299.846 295.858L300.042 296.418H294.68V295.2H301.148V296.152L298.25 299.722L297.522 299.288H297.984C299.169 299.288 300.056 299.554 300.644 300.086C301.241 300.618 301.54 301.295 301.54 302.116C301.54 302.667 301.405 303.171 301.134 303.628C300.863 304.085 300.453 304.449 299.902 304.72C299.361 304.981 298.67 305.112 297.83 305.112Z" fill="black" fill-opacity="0.3"/>
<path d="M342.349 302.592V301.612L347.361 295.2H348.873L343.903 301.612L343.189 301.388H351.015V302.592H342.349ZM347.795 305V302.592L347.837 301.388V299.26H349.153V305H347.795Z" fill="black" fill-opacity="0.3"/>
</g>
<defs>
<filter id="filter0_d_14661_7270" x="0" y="0" width="395" height="359" filterUnits="userSpaceOnUse" color-interpolation-filters="sRGB">
<feFlood flood-opacity="0" result="BackgroundImageFix"/>
<feColorMatrix in="SourceAlpha" type="matrix" values="0 0 0 0 0 0 0 0 0 0 0 0 0 0 0 0 0 0 127 0" result="hardAlpha"/>
<feOffset dx="-3" dy="4"/>
<feGaussianBlur stdDeviation="7.5"/>
<feComposite in2="hardAlpha" operator="out"/>
<feColorMatrix type="matrix" values="0 0 0 0 0.0470588 0 0 0 0 0.0470588 0 0 0 0 0.0509804 0 0 0 0.06 0"/>
<feBlend mode="normal" in2="BackgroundImageFix" result="effect1_dropShadow_14661_7270"/>
<feBlend mode="normal" in="SourceGraphic" in2="effect1_dropShadow_14661_7270" result="shape"/>
</filter>
<radialGradient id="paint0_radial_14661_7270" cx="0" cy="0" r="1" gradientUnits="userSpaceOnUse" gradientTransform="translate(249.334 167.692) rotate(90) scale(29.5385 25.5481)">
<stop stop-color="#F6E07D"/>
<stop offset="1" stop-color="#B2802C"/>
</radialGradient>
</defs>
</svg>
