<svg width="32" height="32" viewBox="0 0 32 32" fill="none" xmlns="http://www.w3.org/2000/svg">
<g clip-path="url(#clip0_14188_2604)">
<path fill-rule="evenodd" clip-rule="evenodd" d="M2.3424 2.3424C0 4.688 0 8.4576 0 16C0 23.5424 0 27.3136 2.3424 29.656C4.688 32 8.4576 32 16 32C23.5424 32 27.3136 32 29.656 29.656C32 27.3152 32 23.5424 32 16C32 8.4576 32 4.6864 29.656 2.3424C27.3152 0 23.5424 0 16 0C8.4576 0 4.6864 0 2.3424 2.3424ZM12.7232 6.8C12.0352 6.8 11.392 6.8 10.8672 6.8784C10.2736 6.9664 9.664 7.176 9.176 7.7184C8.7056 8.2416 8.5392 8.8656 8.4672 9.4608C8.4 10.0176 8.4 10.7088 8.4 11.488V11.5552C8.4 11.8735 8.52643 12.1787 8.75147 12.4037C8.97652 12.6288 9.28174 12.7552 9.6 12.7552C9.91826 12.7552 10.2235 12.6288 10.4485 12.4037C10.6736 12.1787 10.8 11.8735 10.8 11.5552C10.8 10.6864 10.8016 10.144 10.8496 9.7488C10.8608 9.62907 10.8855 9.51099 10.9232 9.3968C10.9288 9.36948 10.9415 9.34411 10.96 9.3232C10.96 9.32107 10.9675 9.3168 10.9792 9.3104C11.0573 9.28014 11.1391 9.26024 11.2224 9.2512C11.5488 9.2032 12.008 9.2 12.8 9.2H14.8V12C14.8 12.3183 14.9264 12.6235 15.1515 12.8485C15.3765 13.0736 15.6817 13.2 16 13.2C16.3183 13.2 16.6235 13.0736 16.8485 12.8485C17.0736 12.6235 17.2 12.3183 17.2 12V9.2H19.2C19.992 9.2 20.4512 9.2032 20.7776 9.2512C20.9248 9.2736 20.9936 9.2992 21.0208 9.3104L21.0384 9.3216C21.0572 9.34188 21.0704 9.36829 21.0768 9.3952C21.0992 9.456 21.128 9.5632 21.1504 9.7488C21.1984 10.144 21.2 10.6864 21.2 11.5568C21.2 11.8751 21.3264 12.1803 21.5515 12.4053C21.7765 12.6304 22.0817 12.7568 22.4 12.7568C22.7183 12.7568 23.0235 12.6304 23.2485 12.4053C23.4736 12.1803 23.6 11.8751 23.6 11.5568V11.488C23.6 10.7072 23.6 10.0176 23.5328 9.4608C23.4608 8.8656 23.2944 8.2416 22.824 7.7168C22.336 7.176 21.7264 6.9664 21.1328 6.8784C20.608 6.7984 19.9648 6.7984 19.2768 6.8H12.7232ZM9.6 14.8C9.28174 14.8 8.97652 14.9264 8.75147 15.1515C8.52643 15.3765 8.4 15.6817 8.4 16C8.4 16.3183 8.52643 16.6235 8.75147 16.8485C8.97652 17.0736 9.28174 17.2 9.6 17.2H22.4C22.7183 17.2 23.0235 17.0736 23.2485 16.8485C23.4736 16.6235 23.6 16.3183 23.6 16C23.6 15.6817 23.4736 15.3765 23.2485 15.1515C23.0235 14.9264 22.7183 14.8 22.4 14.8H9.6ZM17.2 20C17.2 19.6817 17.0736 19.3765 16.8485 19.1515C16.6235 18.9264 16.3183 18.8 16 18.8C15.6817 18.8 15.3765 18.9264 15.1515 19.1515C14.9264 19.3765 14.8 19.6817 14.8 20V22.8H12C11.6817 22.8 11.3765 22.9264 11.1515 23.1515C10.9264 23.3765 10.8 23.6817 10.8 24C10.8 24.3183 10.9264 24.6235 11.1515 24.8485C11.3765 25.0736 11.6817 25.2 12 25.2H20C20.3183 25.2 20.6235 25.0736 20.8485 24.8485C21.0736 24.6235 21.2 24.3183 21.2 24C21.2 23.6817 21.0736 23.3765 20.8485 23.1515C20.6235 22.9264 20.3183 22.8 20 22.8H17.2V20Z" fill="#B7B9BD"/>
</g>
<defs>
<clipPath id="clip0_14188_2604">
<rect width="32" height="32" fill="white"/>
</clipPath>
</defs>
</svg>
