<svg width="22" height="28" viewBox="0 0 22 28" fill="none" xmlns="http://www.w3.org/2000/svg">
<path d="M18.9997 8.6665H17.6663V7.33317C17.6663 3.65717 14.6757 0.666504 10.9997 0.666504C7.32367 0.666504 4.33301 3.65717 4.33301 7.33317V8.6665H2.99967C2.29243 8.6665 1.61415 8.94746 1.11406 9.44755C0.613959 9.94765 0.333008 10.6259 0.333008 11.3332V24.6665C0.333008 25.3737 0.613959 26.052 1.11406 26.5521C1.61415 27.0522 2.29243 27.3332 2.99967 27.3332H18.9997C19.7069 27.3332 20.3852 27.0522 20.8853 26.5521C21.3854 26.052 21.6663 25.3737 21.6663 24.6665V11.3332C21.6663 10.6259 21.3854 9.94765 20.8853 9.44755C20.3852 8.94746 19.7069 8.6665 18.9997 8.6665ZM6.99967 7.33317C6.99967 5.12784 8.79434 3.33317 10.9997 3.33317C13.205 3.33317 14.9997 5.12784 14.9997 7.33317V8.6665H6.99967V7.33317ZM12.333 18.9638V21.9998H9.66634V18.9638C8.87301 18.5025 8.33301 17.6518 8.33301 16.6665C8.33301 15.9593 8.61396 15.281 9.11406 14.7809C9.61415 14.2808 10.2924 13.9998 10.9997 13.9998C11.7069 13.9998 12.3852 14.2808 12.8853 14.7809C13.3854 15.281 13.6663 15.9593 13.6663 16.6665C13.6663 17.6505 13.1263 18.5012 12.333 18.9638Z" fill="#363946" fill-opacity="0.64"/>
</svg>
