<svg width="22" height="28" viewBox="0 0 22 28" fill="none" xmlns="http://www.w3.org/2000/svg">
<path d="M19.0002 8.66663H17.6668V7.33329C17.6668 3.65729 14.6762 0.666626 11.0002 0.666626C7.32416 0.666626 4.3335 3.65729 4.3335 7.33329V8.66663H3.00016C2.29292 8.66663 1.61464 8.94758 1.11454 9.44767C0.614448 9.94777 0.333496 10.626 0.333496 11.3333V24.6666C0.333496 25.3739 0.614448 26.0521 1.11454 26.5522C1.61464 27.0523 2.29292 27.3333 3.00016 27.3333H19.0002C19.7074 27.3333 20.3857 27.0523 20.8858 26.5522C21.3859 26.0521 21.6668 25.3739 21.6668 24.6666V11.3333C21.6668 10.626 21.3859 9.94777 20.8858 9.44767C20.3857 8.94758 19.7074 8.66663 19.0002 8.66663ZM7.00016 7.33329C7.00016 5.12796 8.79483 3.33329 11.0002 3.33329C13.2055 3.33329 15.0002 5.12796 15.0002 7.33329V8.66663H7.00016V7.33329ZM12.3335 18.964V22H9.66683V18.964C8.8735 18.5026 8.3335 17.652 8.3335 16.6666C8.3335 15.9594 8.61445 15.2811 9.11455 14.781C9.61464 14.2809 10.2929 14 11.0002 14C11.7074 14 12.3857 14.2809 12.8858 14.781C13.3859 15.2811 13.6668 15.9594 13.6668 16.6666C13.6668 17.6506 13.1268 18.5013 12.3335 18.964Z" fill="url(#paint0_radial_40000009_705)"/>
<defs>
<radialGradient id="paint0_radial_40000009_705" cx="0" cy="0" r="1" gradientUnits="userSpaceOnUse" gradientTransform="translate(11.002 0.324736) rotate(90) scale(32.8205 22.7094)">
<stop stop-color="#F6E07D"/>
<stop offset="1" stop-color="#B2802C"/>
</radialGradient>
</defs>
</svg>
