<svg width="172" height="164" viewBox="0 0 172 164" fill="none" xmlns="http://www.w3.org/2000/svg">
<path d="M74.9996 150C116.42 150 149.999 116.486 149.999 75C149.999 33.5138 116.42 0 74.9996 0C33.5797 0 0 33.5138 0 75C0 116.486 33.5797 150 74.9996 150Z" fill="#F8F7F4"/>
<path d="M121.449 31.2989V92.8639C121.449 96.5548 118.343 99.6552 114.645 99.6552H12.5742C8.87602 99.6552 5.76953 96.7025 5.76953 92.8639V31.2989C5.76953 27.608 8.87602 24.5076 12.5742 24.5076H114.645C118.343 24.5076 121.449 27.608 121.449 31.2989Z" fill="url(#paint0_radial_14390_5068)"/>
<path opacity="0.3" d="M121.45 51.8206V92.8639C121.45 96.5548 118.343 99.6552 114.645 99.6552H29.1426V58.6119C29.1426 54.921 32.1011 51.8206 35.9473 51.8206H121.45Z" fill="#989FB0"/>
<g filter="url(#filter0_d_14390_5068)">
<path d="M139.646 130.659H44.8237C39.0545 130.659 34.4688 126.082 34.4688 120.324V65.8461C34.4688 60.0882 39.0545 55.5115 44.8237 55.5115H139.646C145.415 55.5115 150.001 60.0882 150.001 65.8461V120.324C150.001 126.082 145.415 130.659 139.646 130.659Z" fill="url(#paint1_linear_14390_5068)"/>
</g>
<path d="M63.7583 113.681H48.6696C47.3382 113.681 46.3027 112.647 46.3027 111.319C46.3027 109.99 47.3382 108.956 48.6696 108.956H63.7583C65.0896 108.956 66.1251 109.99 66.1251 111.319C66.1251 112.647 65.0896 113.681 63.7583 113.681Z" fill="#7E8089"/>
<path d="M88.1665 113.681H73.0778C71.7464 113.681 70.7109 112.647 70.7109 111.319C70.7109 109.99 71.7464 108.956 73.0778 108.956H88.1665C89.4978 108.956 90.5333 109.99 90.5333 111.319C90.5333 112.647 89.4978 113.681 88.1665 113.681Z" fill="#7E8089"/>
<path d="M112.575 113.681H97.486C96.1546 113.681 95.1191 112.647 95.1191 111.319C95.1191 109.99 96.1546 108.956 97.486 108.956H112.575C113.906 108.956 114.942 109.99 114.942 111.319C114.942 112.647 113.906 113.681 112.575 113.681Z" fill="#7E8089"/>
<path d="M136.983 113.681H121.894C120.563 113.681 119.527 112.647 119.527 111.319C119.527 109.99 120.563 108.956 121.894 108.956H136.983C138.314 108.956 139.35 109.99 139.35 111.319C139.35 112.647 138.314 113.681 136.983 113.681Z" fill="#7E8089"/>
<path d="M131.509 85.3345C136.41 85.3345 140.384 81.3685 140.384 76.4762C140.384 71.5839 136.41 67.6179 131.509 67.6179C126.607 67.6179 122.633 71.5839 122.633 76.4762C122.633 81.3685 126.607 85.3345 131.509 85.3345Z" fill="url(#paint2_radial_14390_5068)"/>
<path d="M119.823 85.3345C124.725 85.3345 128.699 81.3685 128.699 76.4762C128.699 71.5839 124.725 67.6179 119.823 67.6179C114.921 67.6179 110.947 71.5839 110.947 76.4762C110.947 81.3685 114.921 85.3345 119.823 85.3345Z" fill="#7E8089"/>
<path d="M121.45 37.0569H5.91797V51.5254H121.45V37.0569Z" fill="#7E8089"/>
<path d="M65.0896 88.1399H48.5217C47.3382 88.1399 46.3027 87.1064 46.3027 85.9253V75.2954C46.3027 74.1143 47.3382 73.0808 48.5217 73.0808H64.9417C66.1251 73.0808 67.1606 74.1143 67.1606 75.2954V85.9253C67.3085 87.1064 66.273 88.1399 65.0896 88.1399Z" fill="#7E8089"/>
<defs>
<filter id="filter0_d_14390_5068" x="12.4688" y="44.5115" width="159.531" height="119.148" filterUnits="userSpaceOnUse" color-interpolation-filters="sRGB">
<feFlood flood-opacity="0" result="BackgroundImageFix"/>
<feColorMatrix in="SourceAlpha" type="matrix" values="0 0 0 0 0 0 0 0 0 0 0 0 0 0 0 0 0 0 127 0" result="hardAlpha"/>
<feOffset dy="11"/>
<feGaussianBlur stdDeviation="11"/>
<feColorMatrix type="matrix" values="0 0 0 0 0.397708 0 0 0 0 0.47749 0 0 0 0 0.575 0 0 0 0.27 0"/>
<feBlend mode="normal" in2="BackgroundImageFix" result="effect1_dropShadow_14390_5068"/>
<feBlend mode="normal" in="SourceGraphic" in2="effect1_dropShadow_14390_5068" result="shape"/>
</filter>
<radialGradient id="paint0_radial_14390_5068" cx="0" cy="0" r="1" gradientUnits="userSpaceOnUse" gradientTransform="translate(63.6192 23.5441) rotate(90) scale(92.4894 123.142)">
<stop stop-color="#F6E07D"/>
<stop offset="1" stop-color="#B2802C"/>
</radialGradient>
<linearGradient id="paint1_linear_14390_5068" x1="92.1971" y1="53.7732" x2="92.1971" y2="131.469" gradientUnits="userSpaceOnUse">
<stop stop-color="#FFFFFD"/>
<stop offset="0.9964" stop-color="#F4F5EC"/>
</linearGradient>
<radialGradient id="paint2_radial_14390_5068" cx="0" cy="0" r="1" gradientUnits="userSpaceOnUse" gradientTransform="translate(131.51 67.3908) rotate(90) scale(21.805 18.8964)">
<stop stop-color="#F6E07D"/>
<stop offset="1" stop-color="#B2802C"/>
</radialGradient>
</defs>
</svg>
