<svg width="200" height="200" viewBox="0 0 200 200" fill="none" xmlns="http://www.w3.org/2000/svg">
<path d="M126.336 133.28V172.443C126.191 172.443 124.298 173.171 124.152 173.171C124.007 173.171 123.861 173.171 123.861 173.316C123.716 173.316 123.57 173.316 123.424 173.462C120.367 174.335 115.999 175.063 115.126 175.209V133.28H126.336Z" fill="white"/>
<path d="M136.527 133.28V168.366C135.8 168.803 134.489 169.24 133.47 169.822H133.325C131.432 170.696 129.248 171.569 125.463 172.734V133.426H136.527V133.28Z" fill="#D5DAE5"/>
<path d="M95.6171 161.233C93.5789 164.29 91.104 169.24 89.6481 173.316C89.5025 173.607 89.3569 174.044 89.3569 174.335C88.3378 174.19 87.3187 173.899 86.2996 173.607C85.4261 171.569 84.8438 169.385 84.8438 169.385C85.4261 168.658 85.8629 168.075 86.4452 167.493C89.2113 164.144 92.1231 161.815 95.6171 161.233Z" fill="#AAB2C5"/>
<path d="M90.231 174.481C89.9398 174.481 89.6486 174.335 89.3574 174.335C88.3383 174.19 87.3192 173.899 86.3001 173.607C85.5722 173.462 84.9899 173.171 84.2619 173.025C83.9707 172.879 83.6796 172.879 83.3884 172.734C83.0972 172.588 82.8061 172.588 82.3693 172.443C78.5841 171.278 74.9444 169.677 71.4503 167.93C67.8107 161.815 65.7725 154.39 62.2784 144.053C62.2784 143.908 62.2784 143.908 62.1328 143.762C62.1328 143.762 62.424 143.762 63.1519 144.053C63.5887 144.345 64.3166 144.636 65.1901 145.218C66.9372 146.383 69.7033 148.421 73.7797 151.769C78.8752 155.991 83.2428 162.252 86.3001 167.347C87.6104 169.677 88.7751 171.715 89.6486 173.316C89.9398 173.607 90.0854 174.044 90.231 174.481Z" fill="#D5DAE5"/>
<path d="M84.2609 172.88C83.9697 172.734 83.6785 172.734 83.3873 172.588C83.0962 172.443 82.805 172.443 82.3682 172.297C75.6713 158.903 68.1008 150.314 63.7332 145.364C63.2964 144.781 62.8597 144.345 62.4229 143.908C62.4229 143.762 62.4229 143.762 62.2773 143.617C62.2773 143.617 62.5685 143.617 63.2964 143.908C63.7332 144.199 64.4611 144.49 65.3347 145.073C69.8478 150.314 77.5639 159.194 84.2609 172.88Z" fill="#F1F3FA"/>
<path d="M152.25 141.578C152.25 141.578 152.104 141.87 151.813 142.452C150.066 145.655 144.242 156.283 141.476 165.6C141.331 165.6 141.331 165.746 141.185 165.746C141.185 165.746 141.039 165.891 140.894 165.891C138.273 167.493 134.925 168.949 133.469 169.677H133.323C128.956 171.715 124.297 173.025 124.006 173.025C126.19 165.891 129.393 159.485 133.906 154.099C134.779 153.08 135.653 152.061 136.526 151.187C136.672 151.041 136.817 150.896 136.963 150.75C140.748 146.965 144.679 144.49 148.464 142.889C148.901 142.743 149.338 142.452 149.775 142.306C150.211 142.015 150.939 141.87 151.667 141.578C151.958 141.724 152.104 141.578 152.25 141.578Z" fill="#D5DAE5"/>
<path d="M152.104 141.288C152.104 141.288 151.959 141.433 151.813 141.87C151.813 142.016 151.668 142.016 151.668 142.161C144.097 148.858 138.128 160.068 134.343 169.386C134.052 169.531 133.761 169.677 133.469 169.823H133.324C133.033 169.968 132.596 170.114 132.305 170.259C132.45 169.968 132.596 169.823 132.596 169.823C134.488 165.164 139.584 151.915 148.465 143.035C148.756 142.743 149.047 142.452 149.338 142.161C150.357 141.87 151.231 141.579 152.104 141.288Z" fill="#F1F3FA"/>
<path d="M176.563 103.871C176.563 130.368 161.859 153.953 141.186 165.746C141.186 165.746 141.04 165.891 140.894 165.891C138.274 167.493 134.925 168.949 133.469 169.676H133.324C132.159 170.113 125.171 173.025 124.006 173.025C123.861 173.025 123.715 173.025 123.715 173.171C123.57 173.171 123.424 173.171 123.278 173.316C120.221 174.19 115.854 174.918 114.98 175.063C114.98 175.5 101.586 176.81 90.2303 174.335C88.7745 174.335 79.457 171.86 71.3041 167.784C48.3015 155.846 32.4326 131.678 32.4326 103.871C32.4326 64.1265 64.7528 31.9519 104.498 31.9519C144.388 31.9519 176.563 64.1265 176.563 103.871Z" fill="#F8F7F4"/>
<path d="M182.095 89.3131V133.862H147.3V134.008H77.5645V53.9356H143.806C144.68 53.79 145.553 53.79 146.572 53.79C147.737 53.79 148.756 53.79 149.921 53.9356C151.377 54.0812 152.687 54.2268 153.997 54.518C160.84 55.9738 166.954 59.4679 171.613 64.1267C178.165 70.678 182.095 79.5588 182.095 89.3131Z" fill="url(#paint0_radial_14420_4247)"/>
<path d="M168.701 101.542C173.068 101.542 176.708 98.0484 176.708 93.5352C176.708 89.022 173.068 85.528 168.701 85.528C164.333 85.528 160.693 89.022 160.693 93.5352C160.693 98.0484 164.187 101.542 168.701 101.542Z" fill="#AAB2C5"/>
<path d="M170.011 100.523C174.524 100.523 178.31 97.0291 178.31 92.5159C178.31 88.0027 174.67 84.5087 170.011 84.5087C165.498 84.5087 161.713 88.0027 161.713 92.5159C161.713 97.0291 165.353 100.523 170.011 100.523Z" fill="#D5DAE5"/>
<path d="M170.449 100.523C174.816 100.523 178.456 97.0291 178.456 92.5159C178.456 88.0027 174.816 84.5087 170.449 84.5087C166.081 84.5087 162.441 88.0027 162.441 92.5159C162.441 97.0291 165.935 100.523 170.449 100.523Z" fill="#E4E2D8"/>
<path d="M170.448 95.5732C172.195 95.5732 173.505 94.263 173.505 92.5159C173.505 90.7689 172.195 89.4586 170.448 89.4586C168.701 89.4586 167.391 90.7689 167.391 92.5159C167.391 94.263 168.701 95.5732 170.448 95.5732Z" fill="#D5DAE5"/>
<path d="M112.213 85.8189V134.008H41.167V85.8189C41.167 70.678 51.9404 57.8664 66.0622 54.6635C68.3916 54.0811 70.721 53.9355 73.196 53.9355H80.4753C96.4898 53.9355 109.593 65.5824 112.067 80.869C112.067 82.3249 112.213 84.0719 112.213 85.8189Z" fill="#4C3D19"/>
<path opacity="0.7" d="M112.214 92.9529L111.777 81.306C109.302 66.0195 96.0539 54.3726 80.185 54.3726H72.9057C70.4307 54.3726 68.1013 54.6637 65.772 55.1005L64.8984 55.8284L82.8055 129.641L111.923 131.242L112.214 92.9529Z" fill="#3B2D11"/>
<path d="M112.067 80.869C109.593 65.5824 96.3442 53.9355 80.4753 53.9355H73.196C70.721 53.9355 68.3916 54.0811 66.0622 54.6635C51.7948 57.8664 41.167 70.5324 41.167 85.8189V134.008H112.213V85.8189C112.213 84.0719 112.067 82.3249 112.067 80.869ZM109.301 131.096H44.0787V85.8189C44.0787 72.425 53.5418 60.4869 66.7902 57.5752C68.6828 57.1384 70.5754 56.9929 73.196 56.9929H80.4753C94.7427 56.9929 106.826 67.1839 109.156 81.3058C109.156 81.8881 109.156 82.616 109.156 83.344C109.156 84.2175 109.156 85.091 109.156 85.9645V131.096H109.301Z" fill="#7E8089"/>
<path d="M132.596 90.4779H170.885C172.05 90.4779 172.923 91.3514 172.923 92.5161C172.923 93.6808 172.05 94.5543 170.885 94.5543H132.596V90.4779Z" fill="#D9D9C9"/>
<path d="M131.285 70.9695C131.722 70.3871 132.741 70.6783 132.741 71.5518V90.3324V94.7H117.018V71.5518C117.018 70.8239 117.891 70.3871 118.473 70.9695L123.569 77.0841C124.297 77.9576 125.607 77.9576 126.335 77.0841L131.285 70.9695Z" fill="#F1EFE9"/>
<path d="M29.0842 38.2126C27.1916 47.0934 26.1725 56.1198 26.0269 65.1461C25.8813 73.4445 25.8813 82.6164 28.3563 90.6237C31.4136 100.815 40.8767 111.006 52.5236 107.948C58.9294 106.201 64.1705 100.669 65.6263 93.8266C66.4998 89.459 65.1896 84.3635 61.6955 81.7429C57.9103 79.268 52.378 79.8503 49.0295 82.9076C45.3898 85.9649 43.934 90.6237 44.0796 95.1369C44.2252 99.65 45.9722 104.018 48.0104 107.948C54.125 119.159 85.8628 113.19 109.448 110.423" stroke="#ACAEB3" stroke-width="2" stroke-miterlimit="10" stroke-dasharray="4 4"/>
<path d="M17.7283 30.933C18.4562 33.8448 21.6591 34.8639 24.862 33.1168C28.3561 31.3698 30.6855 30.2051 29.9575 27.439C29.2296 24.8184 26.0267 24.5272 22.3871 24.2361C17.8739 23.7993 17.0004 28.0213 17.7283 30.933Z" fill="url(#paint1_radial_14420_4247)"/>
<path d="M43.2063 33.5537C42.0416 36.0287 38.2564 37.4846 35.6358 35.0096C32.7241 32.3891 30.5403 30.642 31.705 27.8759C32.8697 25.4009 35.1991 26.1288 39.5667 26.8568C43.2063 27.7303 44.6622 30.9332 43.2063 33.5537Z" fill="url(#paint2_radial_14420_4247)"/>
<path d="M31.5582 23.7994C29.6656 23.5082 27.9186 24.5273 27.3362 26.2743C27.1906 26.7111 26.8995 27.439 26.8995 28.1669C26.4627 31.8066 27.6274 35.0095 29.8112 35.3007C31.995 35.5918 34.1788 32.8257 34.7611 29.4772C34.7611 28.4581 34.7611 27.7302 34.7611 27.0023C34.6155 25.2552 33.3053 24.0905 31.5582 23.7994C31.5582 23.7994 31.4126 23.7994 31.5582 23.7994Z" fill="url(#paint3_radial_14420_4247)"/>
<path d="M117.892 134.008H116.145C116.872 135.755 117.309 138.521 117.6 141.87C115.562 142.307 111.777 141.724 109.448 139.977C108.72 137.357 108.137 135.319 107.555 134.008H105.662C106.099 134.736 106.827 137.066 107.701 140.414C104.498 143.471 102.459 142.307 96.1992 139.249C95.6169 138.958 94.889 138.521 94.0154 138.23C92.5596 136.483 91.3949 135.027 90.2302 134.008H87.4641C88.6287 134.736 90.2302 136.192 91.9772 138.23C82.8053 145.218 74.5069 142.161 69.9937 140.56C69.2658 140.269 68.6834 140.123 68.1011 139.977C63.1512 137.357 58.638 135.319 54.8527 134.008H49.0293V134.154C56.163 135.319 72.9054 143.908 87.9008 153.662V153.808H88.0464C99.4021 161.233 109.739 169.386 113.67 175.355L115.125 175.209V175.355V175.209C115.417 175.209 115.853 175.064 116.145 175.064C116.436 175.064 116.727 174.918 116.872 174.918C116.581 173.608 115.562 168.367 114.252 161.961C114.98 162.398 115.853 162.834 117.018 162.834C117.309 162.834 117.6 162.834 117.746 162.834C117.6 167.493 117.455 171.861 117.164 175.064C117.746 174.918 118.328 174.918 118.911 174.772C119.347 167.493 120.658 142.889 117.892 134.008ZM117.6 143.617C117.746 145.801 117.892 148.13 117.892 150.46C115.999 151.333 114.834 150.314 113.087 148.421C112.505 147.693 111.777 146.965 111.049 146.529C110.758 145.073 110.321 143.763 110.03 142.452C112.359 143.471 115.417 143.908 117.6 143.617ZM109.739 149.004C110.321 151.77 111.049 154.827 111.631 157.884C111.195 157.884 110.903 158.176 110.612 158.321C110.03 158.758 109.156 159.195 107.118 158.612C106.39 157.302 105.662 155.992 104.934 154.827C104.061 153.226 103.042 151.77 102.314 150.46C105.662 150.605 107.846 150.168 109.739 149.004ZM108.137 142.307C108.574 143.763 108.865 145.364 109.302 147.111C107.701 148.421 105.662 149.004 101.149 148.421C99.4021 145.801 97.8007 143.326 96.3448 141.288C101.586 143.908 104.498 145.218 108.137 142.307ZM75.526 144.054C76.8363 144.345 78.1465 144.491 79.6024 144.491C83.6788 144.491 88.192 143.326 92.9963 139.686C95.0345 142.307 97.2183 145.51 99.4021 149.004C96.7816 151.479 92.414 151.77 88.6287 152.061C84.2612 149.149 79.748 146.529 75.526 144.054ZM90.9581 153.517C94.3066 153.226 97.9463 152.643 100.276 150.46C102.023 153.226 103.77 156.283 105.517 159.195C104.789 160.651 103.333 160.942 100.13 160.214C97.3639 157.884 94.161 155.701 90.9581 153.517ZM103.042 162.252C104.352 162.252 105.662 161.961 106.681 160.796C108.574 164.145 110.467 167.493 111.923 170.114C109.448 167.639 106.39 165.018 103.042 162.252ZM114.398 171.57C112.796 168.512 110.612 164.436 108.283 160.505C109.884 160.651 110.758 160.068 111.486 159.777C111.631 159.777 111.631 159.631 111.777 159.631C111.777 159.631 111.923 159.777 112.068 159.923C112.942 163.853 113.67 167.93 114.398 171.57ZM117.746 160.796C116.145 161.233 114.834 160.359 113.67 159.195C113.087 155.992 112.359 152.789 111.631 149.586L111.777 149.732C113.233 151.333 115.125 153.226 117.892 152.498C117.892 155.118 117.892 158.03 117.746 160.796Z" fill="#D1D2CF"/>
<defs>
<radialGradient id="paint0_radial_14420_4247" cx="0" cy="0" r="1" gradientUnits="userSpaceOnUse" gradientTransform="translate(129.839 52.7616) rotate(90) scale(98.7299 111.274)">
<stop stop-color="#F6E07D"/>
<stop offset="1" stop-color="#B2802C"/>
</radialGradient>
<radialGradient id="paint1_radial_14420_4247" cx="0" cy="0" r="1" gradientUnits="userSpaceOnUse" gradientTransform="translate(23.7965 24.0795) rotate(90) scale(12.0239 13.4031)">
<stop stop-color="#F6E07D"/>
<stop offset="1" stop-color="#B2802C"/>
</radialGradient>
<radialGradient id="paint2_radial_14420_4247" cx="0" cy="0" r="1" gradientUnits="userSpaceOnUse" gradientTransform="translate(37.576 26.0329) rotate(90) scale(12.4646 13.1769)">
<stop stop-color="#F6E07D"/>
<stop offset="1" stop-color="#B2802C"/>
</radialGradient>
<radialGradient id="paint3_radial_14420_4247" cx="0" cy="0" r="1" gradientUnits="userSpaceOnUse" gradientTransform="translate(30.7855 23.6016) rotate(90) scale(14.2421 8.46551)">
<stop stop-color="#F6E07D"/>
<stop offset="1" stop-color="#B2802C"/>
</radialGradient>
</defs>
</svg>
