<svg width="64" height="64" viewBox="0 0 64 64" fill="none" xmlns="http://www.w3.org/2000/svg">
<g clip-path="url(#clip0_14304_1355)">
<path d="M21.3333 64C19.8667 64 18.6116 63.4782 17.568 62.4347C16.5244 61.3911 16.0018 60.1351 16 58.6667V21.3333C16 19.8667 16.5227 18.6116 17.568 17.568C18.6133 16.5244 19.8684 16.0018 21.3333 16H58.6667C60.1333 16 61.3893 16.5227 62.4347 17.568C63.48 18.6133 64.0018 19.8684 64 21.3333V58.6667C64 60.1333 63.4782 61.3893 62.4347 62.4347C61.3911 63.48 60.1351 64.0018 58.6667 64H21.3333Z" fill="#363946" fill-opacity="0.4"/>
<path d="M40.5 48.0952C41.2625 48.0952 41.9938 47.8043 42.5329 47.2863C43.0721 46.7683 43.375 46.0658 43.375 45.3333C43.375 44.6008 43.0721 43.8983 42.5329 43.3804C41.9938 42.8624 41.2625 42.5714 40.5 42.5714C39.7375 42.5714 39.0062 42.8624 38.4671 43.3804C37.9279 43.8983 37.625 44.6008 37.625 45.3333C37.625 46.0658 37.9279 46.7683 38.4671 47.2863C39.0062 47.8043 39.7375 48.0952 40.5 48.0952ZM49.125 35.6667C49.8875 35.6667 50.6188 35.9577 51.1579 36.4756C51.6971 36.9936 52 37.6961 52 38.4286V52.2381C52 52.9706 51.6971 53.6731 51.1579 54.1911C50.6188 54.709 49.8875 55 49.125 55H31.875C31.1125 55 30.3812 54.709 29.8421 54.1911C29.3029 53.6731 29 52.9706 29 52.2381V38.4286C29 37.6961 29.3029 36.9936 29.8421 36.4756C30.3812 35.9577 31.1125 35.6667 31.875 35.6667H33.3125V32.9048C33.3125 31.0735 34.0698 29.3173 35.4177 28.0224C36.7656 26.7275 38.5938 26 40.5 26C41.4439 26 42.3785 26.1786 43.2505 26.5256C44.1226 26.8726 44.9149 27.3812 45.5823 28.0224C46.2498 28.6635 46.7792 29.4247 47.1404 30.2624C47.5016 31.1001 47.6875 31.998 47.6875 32.9048V35.6667H49.125ZM40.5 28.7619C39.3563 28.7619 38.2594 29.1984 37.4506 29.9753C36.6419 30.7523 36.1875 31.806 36.1875 32.9048V35.6667H44.8125V32.9048C44.8125 31.806 44.3581 30.7523 43.5494 29.9753C42.7406 29.1984 41.6437 28.7619 40.5 28.7619Z" fill="white"/>
</g>
<defs>
<clipPath id="clip0_14304_1355">
<rect width="64" height="64" fill="white"/>
</clipPath>
</defs>
</svg>
