<svg width="28" height="23" viewBox="0 0 28 23" fill="none" xmlns="http://www.w3.org/2000/svg">
<path d="M14 0.71875C15.2067 0.71875 16.364 1.21096 17.2173 2.08711C18.0706 2.96326 18.55 4.15157 18.55 5.39062C18.55 6.62968 18.0706 7.81799 17.2173 8.69414C16.364 9.57029 15.2067 10.0625 14 10.0625C12.7933 10.0625 11.636 9.57029 10.7827 8.69414C9.92937 7.81799 9.45 6.62968 9.45 5.39062C9.45 4.15157 9.92937 2.96326 10.7827 2.08711C11.636 1.21096 12.7933 0.71875 14 0.71875ZM4.2 3.95312C4.61366 3.95312 5.02328 4.03678 5.40545 4.19933C5.78763 4.36187 6.13488 4.60011 6.42739 4.90045C6.71989 5.20079 6.95192 5.55735 7.11022 5.94976C7.26852 6.34217 7.35 6.76276 7.35 7.1875C7.35 7.61224 7.26852 8.03283 7.11022 8.42524C6.95192 8.81765 6.71989 9.17421 6.42739 9.47455C6.13488 9.77489 5.78763 10.0131 5.40545 10.1757C5.02328 10.3382 4.61366 10.4219 4.2 10.4219C3.78634 10.4219 3.37672 10.3382 2.99455 10.1757C2.61237 10.0131 2.26512 9.77489 1.97261 9.47455C1.68011 9.17421 1.44808 8.81765 1.28978 8.42524C1.13148 8.03283 1.05 7.61224 1.05 7.1875C1.05 6.76276 1.13148 6.34217 1.28978 5.94976C1.44808 5.55735 1.68011 5.20079 1.97261 4.90045C2.26512 4.60011 2.61237 4.36187 2.99455 4.19933C3.37672 4.03678 3.78634 3.95312 4.2 3.95312ZM0 18.6875C0 15.5115 2.50688 12.9375 5.6 12.9375C6.16 12.9375 6.7025 13.0229 7.21437 13.1801C5.775 14.8332 4.9 17.0164 4.9 19.4062V20.125C4.9 20.6371 5.005 21.1223 5.19312 21.5625H1.4C0.625625 21.5625 0 20.9201 0 20.125V18.6875ZM22.8069 21.5625C22.995 21.1223 23.1 20.6371 23.1 20.125V19.4062C23.1 17.0164 22.225 14.8332 20.7856 13.1801C21.2975 13.0229 21.84 12.9375 22.4 12.9375C25.4931 12.9375 28 15.5115 28 18.6875V20.125C28 20.9201 27.3744 21.5625 26.6 21.5625H22.8069ZM20.65 7.1875C20.65 6.32969 20.9819 5.50701 21.5726 4.90045C22.1634 4.29389 22.9646 3.95312 23.8 3.95312C24.6354 3.95312 25.4366 4.29389 26.0274 4.90045C26.6181 5.50701 26.95 6.32969 26.95 7.1875C26.95 8.04531 26.6181 8.86799 26.0274 9.47455C25.4366 10.0811 24.6354 10.4219 23.8 10.4219C22.9646 10.4219 22.1634 10.0811 21.5726 9.47455C20.9819 8.86799 20.65 8.04531 20.65 7.1875ZM7 19.4062C7 15.4352 10.1325 12.2188 14 12.2188C17.8675 12.2188 21 15.4352 21 19.4062V20.125C21 20.9201 20.3744 21.5625 19.6 21.5625H8.4C7.62562 21.5625 7 20.9201 7 20.125V19.4062Z" fill="url(#paint0_radial_14425_5156)"/>
<defs>
<radialGradient id="paint0_radial_14425_5156" cx="0" cy="0" r="1" gradientUnits="userSpaceOnUse" gradientTransform="translate(14.0023 0.451515) rotate(90) scale(25.6538 29.8061)">
<stop stop-color="#F6E07D"/>
<stop offset="1" stop-color="#B2802C"/>
</radialGradient>
</defs>
</svg>
