<svg width="24" height="24" viewBox="0 0 24 24" fill="none" xmlns="http://www.w3.org/2000/svg">
<path d="M2.66667 24C1.93333 24 1.30578 23.7391 0.784 23.2173C0.262222 22.6956 0.000888889 22.0676 0 21.3333V2.66667C0 1.93333 0.261333 1.30578 0.784 0.784C1.30667 0.262222 1.93422 0.000888889 2.66667 0H21.3333C22.0667 0 22.6947 0.261333 23.2173 0.784C23.74 1.30667 24.0009 1.93422 24 2.66667V21.3333C24 22.0667 23.7391 22.6947 23.2173 23.2173C22.6956 23.74 22.0676 24.0009 21.3333 24H2.66667ZM5.33333 18.6667H18.6667C18.9333 18.6667 19.1333 18.5444 19.2667 18.3C19.4 18.0556 19.3778 17.8222 19.2 17.6L15.5333 12.7C15.4 12.5222 15.2222 12.4333 15 12.4333C14.7778 12.4333 14.6 12.5222 14.4667 12.7L11 17.3333L8.53333 14.0333C8.4 13.8556 8.22222 13.7667 8 13.7667C7.77778 13.7667 7.6 13.8556 7.46667 14.0333L4.8 17.6C4.62222 17.8222 4.6 18.0556 4.73333 18.3C4.86667 18.5444 5.06667 18.6667 5.33333 18.6667Z" fill="#B7B9BD"/>
</svg>
