<svg width="32" height="32" viewBox="0 0 32 32" fill="none" xmlns="http://www.w3.org/2000/svg">
<path fill-rule="evenodd" clip-rule="evenodd" d="M15.9997 1.33398C7.89967 1.33398 1.33301 7.90065 1.33301 16.0007C1.33301 24.1006 7.89967 30.6673 15.9997 30.6673C24.0997 30.6673 30.6663 24.1006 30.6663 16.0007C30.6663 7.90065 24.0997 1.33398 15.9997 1.33398ZM17.333 21.334C17.333 21.6876 17.1925 22.0267 16.9425 22.2768C16.6924 22.5268 16.3533 22.6673 15.9997 22.6673C15.6461 22.6673 15.3069 22.5268 15.0569 22.2768C14.8068 22.0267 14.6663 21.6876 14.6663 21.334V17.334H10.6663C10.3127 17.334 9.97358 17.1935 9.72353 16.9435C9.47348 16.6934 9.33301 16.3543 9.33301 16.0007C9.33301 15.647 9.47348 15.3079 9.72353 15.0578C9.97358 14.8078 10.3127 14.6673 10.6663 14.6673H14.6663V10.6673C14.6663 10.3137 14.8068 9.97456 15.0569 9.72451C15.3069 9.47446 15.6461 9.33398 15.9997 9.33398C16.3533 9.33398 16.6924 9.47446 16.9425 9.72451C17.1925 9.97456 17.333 10.3137 17.333 10.6673V14.6673H21.333C21.6866 14.6673 22.0258 14.8078 22.2758 15.0578C22.5259 15.3079 22.6663 15.647 22.6663 16.0007C22.6663 16.3543 22.5259 16.6934 22.2758 16.9435C22.0258 17.1935 21.6866 17.334 21.333 17.334H17.333V21.334Z" fill="#363946"/>
</svg>
