<svg width="20" height="20" viewBox="0 0 20 20" fill="none" xmlns="http://www.w3.org/2000/svg">
<path d="M3.06781 9.44444H2.31781H3.06781ZM3.06781 10.8333L2.53957 11.3657C2.83198 11.6559 3.30365 11.6559 3.59605 11.3657L3.06781 10.8333ZM4.9959 9.97685C5.28994 9.68511 5.2918 9.21024 5.00006 8.9162C4.70832 8.62216 4.23345 8.62029 3.93941 8.91203L4.46765 9.44444L4.9959 9.97685ZM2.19621 8.91203C1.90217 8.62029 1.4273 8.62216 1.13556 8.9162C0.843819 9.21024 0.845684 9.68511 1.13973 9.97685L1.66797 9.44444L2.19621 8.91203ZM15.4078 6.22612C15.6247 6.57899 16.0866 6.68918 16.4395 6.47225C16.7924 6.25532 16.9025 5.79341 16.6856 5.44054L16.0467 5.83333L15.4078 6.22612ZM10.067 2.5V1.75C5.79282 1.75 2.31781 5.18938 2.31781 9.44444H3.06781H3.81781C3.81781 6.02889 6.61011 3.25 10.067 3.25V2.5ZM3.06781 9.44444H2.31781L2.31781 10.8333H3.06781H3.81781L3.81781 9.44444L3.06781 9.44444ZM3.06781 10.8333L3.59605 11.3657L4.9959 9.97685L4.46765 9.44444L3.93941 8.91203L2.53957 10.3009L3.06781 10.8333ZM3.06781 10.8333L3.59605 10.3009L2.19621 8.91203L1.66797 9.44444L1.13973 9.97685L2.53957 11.3657L3.06781 10.8333ZM16.0467 5.83333L16.6856 5.44054C15.325 3.22738 12.869 1.75 10.067 1.75V2.5V3.25C12.3301 3.25 14.3107 4.44155 15.4078 6.22612L16.0467 5.83333Z" fill="#FF0000"/>
<path d="M16.9269 9.16669L17.4542 8.63327C17.162 8.34449 16.6919 8.34449 16.3997 8.63327L16.9269 9.16669ZM14.9945 10.0222C14.6999 10.3133 14.6972 10.7882 14.9883 11.0828C15.2795 11.3774 15.7544 11.3802 16.049 11.089L15.5218 10.5556L14.9945 10.0222ZM17.8049 11.089C18.0995 11.3802 18.5744 11.3774 18.8656 11.0828C19.1567 10.7882 19.154 10.3133 18.8594 10.0222L18.3321 10.5556L17.8049 11.089ZM4.53669 13.7728C4.31915 13.4203 3.85705 13.3109 3.50456 13.5284C3.15206 13.746 3.04266 14.2081 3.26019 14.5606L3.89844 14.1667L4.53669 13.7728ZM9.90097 17.5V18.25C14.1872 18.25 17.6769 14.8133 17.6769 10.5556H16.9269H16.1769C16.1769 13.9684 13.3754 16.75 9.90097 16.75V17.5ZM16.9269 10.5556H17.6769V9.16669H16.9269H16.1769V10.5556H16.9269ZM16.9269 9.16669L16.3997 8.63327L14.9945 10.0222L15.5218 10.5556L16.049 11.089L17.4542 9.7001L16.9269 9.16669ZM16.9269 9.16669L16.3997 9.7001L17.8049 11.089L18.3321 10.5556L18.8594 10.0222L17.4542 8.63327L16.9269 9.16669ZM3.89844 14.1667L3.26019 14.5606C4.62609 16.7739 7.09071 18.25 9.90097 18.25V17.5V16.75C7.62691 16.75 5.63788 15.5572 4.53669 13.7728L3.89844 14.1667Z" fill="#FF0000"/>
</svg>
