<svg width="24" height="24" viewBox="0 0 24 24" fill="none" xmlns="http://www.w3.org/2000/svg">
<path d="M11.3333 0.333344C9.56776 0.333458 7.82822 0.758533 6.26162 1.57265C4.69502 2.38677 3.34739 3.56602 2.33261 5.01075C1.31783 6.45548 0.665702 8.12324 0.431337 9.87313C0.196971 11.623 0.38725 13.4036 0.986096 15.0645C1.58494 16.7253 2.57476 18.2176 3.87192 19.4153C5.16908 20.6129 6.73546 21.4808 8.43872 21.9455C10.142 22.4102 11.9321 22.4581 13.6577 22.0851C15.3834 21.7121 16.9939 20.9293 18.3533 19.8027L21.9239 23.3733C22.1135 23.55 22.3642 23.6461 22.6233 23.6416C22.8824 23.637 23.1296 23.5321 23.3128 23.3488C23.496 23.1656 23.6009 22.9184 23.6055 22.6594C23.6101 22.4003 23.5139 22.1496 23.3373 21.96L19.7706 18.392C21.1134 16.787 21.9706 14.8323 22.2415 12.7573C22.5124 10.6823 22.1858 8.57301 21.3 6.67709C20.4142 4.78118 19.0059 3.17727 17.2406 2.05362C15.4752 0.929964 13.4259 0.333193 11.3333 0.333344Z" fill="url(#paint0_radial_40000023_3627)"/>
<defs>
<radialGradient id="paint0_radial_40000023_3627" cx="0" cy="0" r="1" gradientUnits="userSpaceOnUse" gradientTransform="translate(11.9718 0.0345092) rotate(90) scale(28.6872 24.7728)">
<stop stop-color="#F6E07D"/>
<stop offset="1" stop-color="#B2802C"/>
</radialGradient>
</defs>
</svg>
