<svg width="194" height="214" viewBox="0 0 194 214" fill="none" xmlns="http://www.w3.org/2000/svg">
<path d="M16.9228 190.578C18.0766 189.424 18.2689 187.693 17.1151 186.539C15.9613 185.386 14.2306 185.193 13.0768 186.347C11.9231 187.501 11.7308 189.232 12.8845 190.385C14.0383 191.539 15.769 191.731 16.9228 190.578Z" fill="#F1F3FA"/>
<path d="M89.6103 200C139.031 200 179.221 160.002 179.221 110.774C179.028 61.3542 139.031 21.3564 89.6103 21.3564C39.9977 21.3564 0 61.3542 0 110.582C0 160.002 39.9977 200 89.6103 200Z" fill="#F8F7F4"/>
<path d="M149.079 64.5913V71.5018H148.548H141.814L38.5119 71.1474C36.5628 71.1474 34.6137 70.793 32.6646 70.2614C32.4874 70.2614 32.3102 70.0842 32.133 70.0842C29.6523 69.1983 27.526 68.1351 25.7541 66.3632C24.3366 64.9457 23.2734 62.8194 23.2734 60.8703C23.2734 57.1493 26.2857 54.3142 30.5383 52.5423C31.9558 51.8335 33.7277 51.4791 35.4996 51.3019C36.2084 51.3019 36.9172 51.1248 37.6259 51.1248H135.613C136.676 51.1248 137.562 51.3019 138.448 51.4791C139.157 51.6563 139.865 51.8335 140.574 52.1879C145.713 54.3142 149.079 58.9212 149.079 64.5913Z" fill="url(#paint0_radial_14425_5693)"/>
<path opacity="0.1" d="M148.548 71.5017H141.814L38.5117 71.1473C36.5626 71.1473 34.6135 70.7929 32.6644 70.2613C32.4872 70.2613 32.31 70.0842 32.1328 70.0842C29.6521 69.1982 27.5258 68.135 25.7539 66.3631C26.9942 65.1228 28.589 64.0596 30.5381 63.3509C31.9556 62.6421 33.7275 62.2877 35.4994 62.1105C36.2082 61.9334 36.917 61.9333 37.6257 61.9333H135.613C136.676 61.9333 137.562 62.1105 138.448 62.2877C139.156 62.4649 139.865 62.6421 140.574 62.9965C144.472 64.5912 147.307 67.7807 148.548 71.5017Z" fill="#989FB0"/>
<g filter="url(#filter0_d_14425_5693)">
<path d="M161.657 82.3104V169.311C161.657 175.336 156.873 180.12 150.849 180.12H46.483C37.8006 180.12 31.0674 176.045 26.8148 172.678C24.8657 171.083 23.6253 168.603 23.6253 166.122C23.6253 164.882 23.6253 163.641 23.6253 162.401C23.6253 160.629 23.6253 158.503 23.6253 156.376C23.6253 146.454 23.6253 133.164 23.4481 119.698C23.4481 117.749 23.4481 115.8 23.4481 113.673C23.4481 106.586 23.4481 99.4979 23.2709 92.7647C23.2709 90.8156 23.2709 88.8665 23.2709 86.7402C23.2709 73.4508 23.0938 63.5281 23.0938 61.2246C23.0938 65.1228 26.8148 68.6666 31.7761 70.0842C31.9533 70.0842 32.1305 70.2614 32.3077 70.2614C34.0796 70.7929 36.2059 71.1473 38.155 71.1473L141.458 71.6789H148.9H150.672C156.873 71.5017 161.657 76.2859 161.657 82.3104Z" fill="url(#paint1_linear_14425_5693)"/>
</g>
<path opacity="0.1" d="M140.749 111.901C137.028 111.901 133.838 113.319 131.535 115.622C129.231 117.926 127.637 121.293 127.637 124.836C127.637 125.014 127.637 125.368 127.637 125.545C127.991 132.456 133.838 137.948 140.749 137.948H161.657V111.901H140.749Z" fill="url(#paint2_linear_14425_5693)"/>
<g filter="url(#filter1_d_14425_5693)">
<path d="M161.662 106.94V110.129C161.485 110.129 161.308 110.129 160.953 110.129H139.69C135.969 110.129 132.78 111.547 130.476 113.85C128.35 115.977 126.755 119.166 126.578 122.533C126.578 122.71 126.578 123.064 126.578 123.242C126.578 130.506 132.425 136.354 139.69 136.354H160.953C162.016 136.354 162.902 135.999 163.257 135.468C163.434 135.291 163.611 134.936 163.611 134.759V108.535C163.611 107.649 162.725 107.117 161.662 106.94Z" fill="url(#paint3_linear_14425_5693)"/>
</g>
<path d="M138.625 131.038C142.877 131.038 146.421 127.494 146.421 123.242C146.421 118.989 142.877 115.445 138.625 115.445C134.372 115.445 130.828 118.989 130.828 123.242C130.828 127.494 134.372 131.038 138.625 131.038Z" fill="#FAF9F1"/>
<path d="M70.6159 130.312C73.5436 130.312 76.0209 127.835 76.0209 124.907C76.0209 121.979 73.5436 119.502 70.6159 119.502C67.6882 119.502 65.2109 121.979 65.2109 124.907C65.2109 127.835 67.6882 130.312 70.6159 130.312Z" fill="#7E8089"/>
<path d="M112.053 130.312C114.981 130.312 117.458 127.835 117.458 124.907C117.458 121.979 114.981 119.502 112.053 119.502C109.126 119.502 106.648 121.979 106.648 124.907C106.648 128.06 109.126 130.312 112.053 130.312Z" fill="#7E8089"/>
<path d="M70.4053 107.025L58.5156 113.445L60.1206 116.417L72.0102 109.998L70.4053 107.025Z" fill="#7E8089"/>
<path d="M111.319 106.94L109.715 109.913L121.606 116.331L123.21 113.358L111.319 106.94Z" fill="#7E8089"/>
<path d="M91.3371 142.924C94.8197 142.924 97.6429 140.806 97.6429 138.194C97.6429 135.582 94.8197 133.465 91.3371 133.465C87.8545 133.465 85.0312 135.582 85.0312 138.194C85.0312 140.806 87.8545 142.924 91.3371 142.924Z" fill="#7E8089"/>
<path d="M184.152 7.08168C166.565 3.225 147.745 3.84207 130.467 8.93289C126.918 10.0128 123.062 11.4012 120.285 13.8695C115.965 17.4176 114.114 23.7426 115.503 29.1419C116.891 34.5413 121.519 39.015 127.227 40.0949C130.775 41.0205 135.095 39.7864 137.254 36.8553C139.26 33.77 138.797 29.1419 136.329 26.3651C133.861 23.2798 129.85 22.0456 126.147 22.1999C122.445 22.3542 118.742 23.7426 115.503 25.4395C105.012 31.1474 96.5278 41.1748 92.9796 52.8991C91.181 58.5948 90.5474 64.5818 91.0081 70.4709" stroke="#ACAEB3" stroke-width="2" stroke-miterlimit="10" stroke-dasharray="4 4"/>
<path d="M193.409 3.07063C193.255 5.38464 193.101 7.54438 191.404 8.00719C189.707 8.46999 188.935 6.92731 187.856 4.76757C186.776 2.76209 187.393 0.602348 189.244 0.139546C190.941 -0.323256 193.718 0.293814 193.409 3.07063Z" fill="url(#paint4_radial_14425_5693)"/>
<path d="M191.554 14.1779C192.016 11.4011 192.479 9.85843 190.936 9.08709C189.24 8.31575 188.16 9.70416 186.308 11.5554C184.766 13.2523 185.691 15.7206 187.234 16.4919C189.085 17.4175 191.091 16.4919 191.554 14.1779Z" fill="url(#paint5_radial_14425_5693)"/>
<path d="M193.717 9.08723C193.563 10.1671 192.792 10.9384 191.712 11.0927C191.249 11.0927 190.786 11.0927 190.169 11.0927C188.009 10.7842 186.313 9.39577 186.467 8.00736C186.621 6.61896 188.627 5.84762 191.095 6.15615C191.558 6.15615 192.02 6.31042 192.329 6.46469C193.255 6.77322 193.872 7.8531 193.717 9.08723C193.717 9.08723 193.717 8.93297 193.717 9.08723Z" fill="url(#paint6_radial_14425_5693)"/>
<path d="M23.8906 32.3031C23.8906 29.6805 23.8906 27.058 25.7418 26.2867C27.7473 25.5153 28.8272 27.3665 30.3699 29.9891C31.7583 32.3031 31.1412 34.7714 29.1357 35.5427C27.4388 36.314 23.8906 35.8512 23.8906 32.3031Z" fill="url(#paint7_radial_14425_5693)"/>
<path d="M24.9719 19.3446C24.6634 22.5843 24.2005 24.4355 26.206 25.2068C28.2115 25.9781 29.2914 24.2812 31.2969 21.8129C32.8395 19.6532 31.7597 16.8764 29.7542 16.105C27.7487 15.3337 25.2804 16.7221 24.9719 19.3446Z" fill="url(#paint8_radial_14425_5693)"/>
<path d="M23.2734 25.5152C23.2734 24.281 24.199 23.3554 25.2789 23.2011C25.7417 23.0469 26.3588 23.0469 26.9759 23.2011C29.4441 23.3554 31.6039 24.7438 31.4496 26.2865C31.2953 27.8292 29.2899 28.909 26.6673 28.6005C26.2045 28.6005 25.7417 28.4462 25.2789 28.292C24.0448 28.1377 23.2734 26.9036 23.2734 25.5152Z" fill="url(#paint9_radial_14425_5693)"/>
<path d="M33.7617 25.978C49.9598 25.978 79.8877 35.3883 80.3505 69.9443" stroke="#ACAEB3" stroke-width="2" stroke-miterlimit="10" stroke-dasharray="4 4"/>
<defs>
<filter id="filter0_d_14425_5693" x="1.09375" y="50.2246" width="182.562" height="162.895" filterUnits="userSpaceOnUse" color-interpolation-filters="sRGB">
<feFlood flood-opacity="0" result="BackgroundImageFix"/>
<feColorMatrix in="SourceAlpha" type="matrix" values="0 0 0 0 0 0 0 0 0 0 0 0 0 0 0 0 0 0 127 0" result="hardAlpha"/>
<feOffset dy="11"/>
<feGaussianBlur stdDeviation="11"/>
<feColorMatrix type="matrix" values="0 0 0 0 0.397708 0 0 0 0 0.47749 0 0 0 0 0.575 0 0 0 0.27 0"/>
<feBlend mode="normal" in2="BackgroundImageFix" result="effect1_dropShadow_14425_5693"/>
<feBlend mode="normal" in="SourceGraphic" in2="effect1_dropShadow_14425_5693" result="shape"/>
</filter>
<filter id="filter1_d_14425_5693" x="104.578" y="95.9399" width="81.0312" height="73.4138" filterUnits="userSpaceOnUse" color-interpolation-filters="sRGB">
<feFlood flood-opacity="0" result="BackgroundImageFix"/>
<feColorMatrix in="SourceAlpha" type="matrix" values="0 0 0 0 0 0 0 0 0 0 0 0 0 0 0 0 0 0 127 0" result="hardAlpha"/>
<feOffset dy="11"/>
<feGaussianBlur stdDeviation="11"/>
<feColorMatrix type="matrix" values="0 0 0 0 0.397708 0 0 0 0 0.47749 0 0 0 0 0.575 0 0 0 0.27 0"/>
<feBlend mode="normal" in2="BackgroundImageFix" result="effect1_dropShadow_14425_5693"/>
<feBlend mode="normal" in="SourceGraphic" in2="effect1_dropShadow_14425_5693" result="shape"/>
</filter>
<radialGradient id="paint0_radial_14425_5693" cx="0" cy="0" r="1" gradientUnits="userSpaceOnUse" gradientTransform="translate(86.1869 50.8635) rotate(90) scale(25.0794 133.921)">
<stop stop-color="#F6E07D"/>
<stop offset="1" stop-color="#B2802C"/>
</radialGradient>
<linearGradient id="paint1_linear_14425_5693" x1="92.3304" y1="58.4744" x2="92.3304" y2="181.402" gradientUnits="userSpaceOnUse">
<stop stop-color="#FFFFFD"/>
<stop offset="0.9964" stop-color="#F5F5EC"/>
</linearGradient>
<linearGradient id="paint2_linear_14425_5693" x1="144.65" y1="112.806" x2="144.65" y2="127.426" gradientUnits="userSpaceOnUse">
<stop stop-color="#B0BACC"/>
<stop offset="1" stop-color="#969EAE"/>
</linearGradient>
<linearGradient id="paint3_linear_14425_5693" x1="145.083" y1="106.26" x2="145.083" y2="136.671" gradientUnits="userSpaceOnUse">
<stop stop-color="#FFFFFD"/>
<stop offset="0.9964" stop-color="#F5F5EC"/>
</linearGradient>
<radialGradient id="paint4_radial_14425_5693" cx="0" cy="0" r="1" gradientUnits="userSpaceOnUse" gradientTransform="translate(190.379 -0.103715) rotate(90) scale(9.95638 6.50273)">
<stop stop-color="#F6E07D"/>
<stop offset="1" stop-color="#B2802C"/>
</radialGradient>
<radialGradient id="paint5_radial_14425_5693" cx="0" cy="0" r="1" gradientUnits="userSpaceOnUse" gradientTransform="translate(188.757 8.76736) rotate(90) scale(9.81784 6.9007)">
<stop stop-color="#F6E07D"/>
<stop offset="1" stop-color="#B2802C"/>
</radialGradient>
<radialGradient id="paint6_radial_14425_5693" cx="0" cy="0" r="1" gradientUnits="userSpaceOnUse" gradientTransform="translate(190.1 6.02447) rotate(90) scale(6.15888 7.75379)">
<stop stop-color="#F6E07D"/>
<stop offset="1" stop-color="#B2802C"/>
</radialGradient>
<radialGradient id="paint7_radial_14425_5693" cx="0" cy="0" r="1" gradientUnits="userSpaceOnUse" gradientTransform="translate(27.5052 25.9851) rotate(90) scale(12.0018 7.69427)">
<stop stop-color="#F6E07D"/>
<stop offset="1" stop-color="#B2802C"/>
</radialGradient>
<radialGradient id="paint8_radial_14425_5693" cx="0" cy="0" r="1" gradientUnits="userSpaceOnUse" gradientTransform="translate(28.3624 15.771) rotate(90) scale(11.6946 7.806)">
<stop stop-color="#F6E07D"/>
<stop offset="1" stop-color="#B2802C"/>
</radialGradient>
<radialGradient id="paint9_radial_14425_5693" cx="0" cy="0" r="1" gradientUnits="userSpaceOnUse" gradientTransform="translate(27.3661 23.0141) rotate(90) scale(6.85271 8.71187)">
<stop stop-color="#F6E07D"/>
<stop offset="1" stop-color="#B2802C"/>
</radialGradient>
</defs>
</svg>
