<svg width="33" height="32" viewBox="0 0 33 32" fill="none" xmlns="http://www.w3.org/2000/svg">
<g clip-path="url(#clip0_14188_2602)">
<path fill-rule="evenodd" clip-rule="evenodd" d="M0.333008 16C0.333008 8.4576 0.333008 4.6864 2.67541 2.3424C5.02101 0 8.79061 0 16.333 0C23.8754 0 27.6466 0 29.989 2.3424C32.333 4.688 32.333 8.4576 32.333 16C32.333 23.5424 32.333 27.3136 29.989 29.656C27.6482 32 23.8754 32 16.333 32C8.79061 32 5.01941 32 2.67541 29.656C0.333008 27.3152 0.333008 23.5424 0.333008 16ZM8.73301 24C8.73301 23.6817 8.85944 23.3765 9.08448 23.1515C9.30952 22.9264 9.61475 22.8 9.93301 22.8H22.733C23.0513 22.8 23.3565 22.9264 23.5815 23.1515C23.8066 23.3765 23.933 23.6817 23.933 24C23.933 24.3183 23.8066 24.6235 23.5815 24.8485C23.3565 25.0736 23.0513 25.2 22.733 25.2H9.93301C9.61475 25.2 9.30952 25.0736 9.08448 24.8485C8.85944 24.6235 8.73301 24.3183 8.73301 24ZM11.133 8C11.133 7.68174 11.0066 7.37652 10.7815 7.15147C10.5565 6.92643 10.2513 6.8 9.93301 6.8C9.61475 6.8 9.30952 6.92643 9.08448 7.15147C8.85944 7.37652 8.73301 7.68174 8.73301 8V12.8C8.73301 14.8156 9.53372 16.7487 10.959 18.174C12.3843 19.5993 14.3174 20.4 16.333 20.4C18.3487 20.4 20.2817 19.5993 21.707 18.174C23.1323 16.7487 23.933 14.8156 23.933 12.8V8C23.933 7.68174 23.8066 7.37652 23.5815 7.15147C23.3565 6.92643 23.0513 6.8 22.733 6.8C22.4147 6.8 22.1095 6.92643 21.8845 7.15147C21.6594 7.37652 21.533 7.68174 21.533 8V12.8C21.533 14.1791 20.9852 15.5018 20.01 16.477C19.0348 17.4521 17.7121 18 16.333 18C14.9539 18 13.6312 17.4521 12.6561 16.477C11.6809 15.5018 11.133 14.1791 11.133 12.8V8Z" fill="#B7B9BD"/>
</g>
<defs>
<clipPath id="clip0_14188_2602">
<rect width="33" height="32" fill="white"/>
</clipPath>
</defs>
</svg>
