<svg width="20" height="20" viewBox="0 0 20 20" fill="none" xmlns="http://www.w3.org/2000/svg">
<path d="M5.20821 5.83329C5.20821 4.56246 5.71305 3.34368 6.61166 2.44507C7.51027 1.54646 8.72905 1.04163 9.99988 1.04163C11.2707 1.04163 12.4895 1.54646 13.3881 2.44507C14.2867 3.34368 14.7915 4.56246 14.7915 5.83329C14.7915 7.10412 14.2867 8.3229 13.3881 9.22151C12.4895 10.1201 11.2707 10.625 9.99988 10.625C8.72905 10.625 7.51027 10.1201 6.61166 9.22151C5.71305 8.3229 5.20821 7.10412 5.20821 5.83329ZM9.83155 11.8841C9.86742 11.8787 9.90361 11.8757 9.93988 11.875H10.0599C10.0965 11.875 10.1327 11.878 10.1682 11.8841L16.2474 12.9533L16.279 12.96C17.399 13.2183 18.6024 13.9291 18.8365 15.31L18.8399 15.3341L18.9349 16.065V16.0666C19.1549 17.7408 17.8274 18.9583 16.2599 18.9583C16.2253 18.9577 16.1908 18.9549 16.1565 18.95H3.73988C2.17238 18.95 0.844045 17.7316 1.06488 16.0566L1.15988 15.3325L1.16405 15.3075C1.39738 13.9516 2.61071 13.2008 3.72821 12.9583L3.75238 12.9533L9.83155 11.8841Z" fill="#363946" fill-opacity="0.64"/>
</svg>
