<svg width="24" height="24" viewBox="0 0 24 24" fill="none" xmlns="http://www.w3.org/2000/svg">
<path fill-rule="evenodd" clip-rule="evenodd" d="M2.66667 0.0227071C1.95942 0.0227071 1.28115 0.303393 0.781049 0.803017C0.280951 1.30264 0 1.98028 0 2.68685V21.3359C0 22.0424 0.280951 22.7201 0.781049 23.2197C1.28115 23.7193 1.95942 24 2.66667 24L21.3333 23.9773C22.0406 23.9773 22.7189 23.6966 23.219 23.197C23.719 22.6974 24 22.0197 24 21.3132V2.66414C24 1.95757 23.719 1.27993 23.219 0.780309C22.7189 0.280686 22.0406 0 21.3333 0L2.66667 0.0227071ZM7.33333 7.52227C7.36292 7.2676 7.45168 7.02337 7.59252 6.80905C7.73337 6.59474 7.9224 6.41628 8.14454 6.28791C8.36667 6.15954 8.61577 6.08482 8.87194 6.0697C9.12812 6.05459 9.38428 6.0995 9.62 6.20086C10.292 6.48858 11.7107 7.13597 13.508 8.17232C14.7711 8.89355 15.991 9.68794 17.1613 10.5514C17.3671 10.7044 17.5342 10.9033 17.6494 11.1322C17.7645 11.3612 17.8245 11.6139 17.8245 11.8702C17.8245 12.1264 17.7645 12.3791 17.6494 12.6081C17.5342 12.837 17.3671 13.0359 17.1613 13.1889C15.9909 14.0515 14.7711 14.845 13.508 15.5653C12.2516 16.2985 10.9534 16.9577 9.62 17.5395C9.38431 17.6411 9.12808 17.6862 8.8718 17.6713C8.61552 17.6563 8.3663 17.5816 8.14408 17.4532C7.92186 17.3248 7.73281 17.1462 7.59203 16.9317C7.45125 16.7172 7.36266 16.4728 7.33333 16.218C7.17335 14.7743 7.09501 13.3227 7.09867 11.8702C7.09867 9.80411 7.248 8.24825 7.33333 7.52227Z" fill="#B7B9BD"/>
</svg>
