<svg width="28" height="23" viewBox="0 0 28 23" fill="none" xmlns="http://www.w3.org/2000/svg">
<path fill-rule="evenodd" clip-rule="evenodd" d="M19.5755 0.0640108C20.0967 -0.0290874 20.6326 -0.0204721 21.1504 0.0888035C21.6682 0.198127 22.1578 0.406195 22.5889 0.700356C23.0199 0.994516 23.384 1.36898 23.6591 1.80068C23.9341 2.23238 24.115 2.71283 24.1898 3.21268C23.9691 3.18583 23.7464 3.17248 23.5239 3.17254H8.06754C7.19688 3.36024 7.30228 4.5326 8.31556 4.5326H23.5239C24.5338 4.53365 25.5019 4.91647 26.2161 5.59632C26.9302 6.27619 27.3322 7.19793 27.3334 8.15941V19.0399C27.3323 20.0014 26.9302 20.923 26.2161 21.6029C25.5019 22.2829 24.5339 22.6656 23.5239 22.6667H4.47627C3.46626 22.6656 2.49824 22.2829 1.78406 21.6029C1.06996 20.923 0.667851 20.0014 0.666748 19.0399V8.15941C0.666924 8.01534 0.678645 7.87246 0.69651 7.73085V6.346C0.696611 5.12912 1.39801 3.09668 3.82275 2.62592C3.84621 2.62122 3.86984 2.61487 3.89343 2.61057H3.9046C3.98017 2.59714 4.05612 2.58646 4.13153 2.57397L19.5755 0.0640108ZM21.4257 11.9244C21.0776 11.7871 20.694 11.7517 20.3245 11.8216C19.9552 11.8917 19.616 12.0641 19.3498 12.3175C19.0834 12.5711 18.9024 12.8949 18.8289 13.2466C18.7556 13.5983 18.7927 13.9626 18.9368 14.2938C19.081 14.6252 19.3255 14.908 19.6387 15.1073C19.9519 15.3065 20.3198 15.413 20.6965 15.413C21.2017 15.413 21.686 15.2218 22.0432 14.8818C22.4004 14.5417 22.6013 14.0805 22.6013 13.5996C22.6012 13.2411 22.4893 12.8907 22.2801 12.5926C22.0708 12.2944 21.7737 12.0616 21.4257 11.9244Z" fill="url(#paint0_radial_40000023_3633)"/>
<defs>
<radialGradient id="paint0_radial_40000023_3633" cx="0" cy="0" r="1" gradientUnits="userSpaceOnUse" gradientTransform="translate(14.0023 -0.290607) rotate(90) scale(27.8974 28.3868)">
<stop stop-color="#F6E07D"/>
<stop offset="1" stop-color="#B2802C"/>
</radialGradient>
</defs>
</svg>
